<?xml version="1.0" encoding="UTF-8" standalone="no"?>
<!DOCTYPE svg PUBLIC "-//W3C//DTD SVG 1.1//EN"
 "http://www.w3.org/Graphics/SVG/1.1/DTD/svg11.dtd">
<!-- Generated by graphviz version 2.38.0 (20140413.2041)
 -->
<!-- Title: Ogre::RenderWindow Pages: 1 -->
<svg width="540pt" height="330pt"
 viewBox="0.00 0.00 539.50 330.00" xmlns="http://www.w3.org/2000/svg" xmlns:xlink="http://www.w3.org/1999/xlink">
<g id="graph0" class="graph" transform="scale(1 1) rotate(0) translate(4 326)">
<title>Ogre::RenderWindow</title>
<!-- Node1 -->
<g id="node1" class="node"><title>Node1</title>
<polygon fill="#bfbfbf" stroke="black" points="289,-190.5 289,-209.5 399,-209.5 399,-190.5 289,-190.5"/>
<text text-anchor="middle" x="344" y="-197.5" font-family="Helvetica,sans-Serif" font-size="10.00">Ogre::RenderWindow</text>
</g>
<!-- Node4 -->
<g id="node4" class="node"><title>Node4</title>
<g id="a_node4"><a xlink:href="class_ogre_1_1_d3_d11_render_window_base.html" target="_top" xlink:title="Ogre::D3D11RenderWindowBase">
<polygon fill="none" stroke="black" points="94,-134.5 94,-153.5 258,-153.5 258,-134.5 94,-134.5"/>
<text text-anchor="middle" x="176" y="-141.5" font-family="Helvetica,sans-Serif" font-size="10.00">Ogre::D3D11RenderWindowBase</text>
</a>
</g>
</g>
<!-- Node1&#45;&gt;Node4 -->
<g id="edge3" class="edge"><title>Node1&#45;&gt;Node4</title>
<path fill="none" stroke="midnightblue" d="M307.614,-187.304C275.958,-177.129 230.832,-162.625 202.496,-153.516"/>
<polygon fill="midnightblue" stroke="midnightblue" points="306.789,-190.715 317.38,-190.444 308.931,-184.051 306.789,-190.715"/>
</g>
<!-- Node9 -->
<g id="node9" class="node"><title>Node9</title>
<g id="a_node9"><a xlink:href="class_ogre_1_1_d3_d9_render_window.html" target="_top" xlink:title="Ogre::D3D9RenderWindow">
<polygon fill="none" stroke="black" points="276,-134.5 276,-153.5 412,-153.5 412,-134.5 276,-134.5"/>
<text text-anchor="middle" x="344" y="-141.5" font-family="Helvetica,sans-Serif" font-size="10.00">Ogre::D3D9RenderWindow</text>
</a>
</g>
</g>
<!-- Node1&#45;&gt;Node9 -->
<g id="edge8" class="edge"><title>Node1&#45;&gt;Node9</title>
<path fill="none" stroke="midnightblue" d="M344,-179.805C344,-170.91 344,-160.78 344,-153.751"/>
<polygon fill="midnightblue" stroke="midnightblue" points="340.5,-180.083 344,-190.083 347.5,-180.083 340.5,-180.083"/>
</g>
<!-- Node10 -->
<g id="node10" class="node"><title>Node10</title>
<g id="a_node10"><a xlink:href="class_ogre_1_1_na_cl_window.html" target="_top" xlink:title="Ogre::NaClWindow">
<polygon fill="none" stroke="black" points="430.5,-134.5 430.5,-153.5 531.5,-153.5 531.5,-134.5 430.5,-134.5"/>
<text text-anchor="middle" x="481" y="-141.5" font-family="Helvetica,sans-Serif" font-size="10.00">Ogre::NaClWindow</text>
</a>
</g>
</g>
<!-- Node1&#45;&gt;Node10 -->
<g id="edge9" class="edge"><title>Node1&#45;&gt;Node10</title>
<path fill="none" stroke="midnightblue" d="M375.023,-186.772C400.757,-176.629 436.686,-162.467 459.394,-153.516"/>
<polygon fill="midnightblue" stroke="midnightblue" points="373.728,-183.52 365.708,-190.444 376.295,-190.033 373.728,-183.52"/>
</g>
<!-- Node2 -->
<g id="node2" class="node"><title>Node2</title>
<g id="a_node2"><a xlink:href="class_ogre_1_1_render_target.html" target="_top" xlink:title="A &#39;canvas&#39; which can receive the results of a rendering operation. ">
<polygon fill="none" stroke="black" points="292.5,-246.5 292.5,-265.5 395.5,-265.5 395.5,-246.5 292.5,-246.5"/>
<text text-anchor="middle" x="344" y="-253.5" font-family="Helvetica,sans-Serif" font-size="10.00">Ogre::RenderTarget</text>
</a>
</g>
</g>
<!-- Node2&#45;&gt;Node1 -->
<g id="edge1" class="edge"><title>Node2&#45;&gt;Node1</title>
<path fill="none" stroke="midnightblue" d="M344,-235.805C344,-226.91 344,-216.78 344,-209.751"/>
<polygon fill="midnightblue" stroke="midnightblue" points="340.5,-236.083 344,-246.083 347.5,-236.083 340.5,-236.083"/>
</g>
<!-- Node3 -->
<g id="node3" class="node"><title>Node3</title>
<g id="a_node3"><a xlink:href="class_ogre_1_1_allocated_object.html" target="_top" xlink:title="Superclass for all objects that wish to use custom memory allocators when their new / delete operator...">
<polygon fill="none" stroke="black" points="300.5,-302.5 300.5,-321.5 387.5,-321.5 387.5,-302.5 300.5,-302.5"/>
<text text-anchor="middle" x="344" y="-309.5" font-family="Helvetica,sans-Serif" font-size="10.00">RenderSysAlloc</text>
</a>
</g>
</g>
<!-- Node3&#45;&gt;Node2 -->
<g id="edge2" class="edge"><title>Node3&#45;&gt;Node2</title>
<path fill="none" stroke="midnightblue" d="M344,-291.805C344,-282.91 344,-272.78 344,-265.751"/>
<polygon fill="midnightblue" stroke="midnightblue" points="340.5,-292.083 344,-302.083 347.5,-292.083 340.5,-292.083"/>
</g>
<!-- Node5 -->
<g id="node5" class="node"><title>Node5</title>
<g id="a_node5"><a xlink:href="class_ogre_1_1_d3_d11_render_window_image_source.html" target="_top" xlink:title="Ogre::D3D11RenderWindowImage\lSource">
<polygon fill="none" stroke="black" points="0,-67.5 0,-97.5 168,-97.5 168,-67.5 0,-67.5"/>
<text text-anchor="start" x="8" y="-85.5" font-family="Helvetica,sans-Serif" font-size="10.00">Ogre::D3D11RenderWindowImage</text>
<text text-anchor="middle" x="84" y="-74.5" font-family="Helvetica,sans-Serif" font-size="10.00">Source</text>
</a>
</g>
</g>
<!-- Node4&#45;&gt;Node5 -->
<g id="edge4" class="edge"><title>Node4&#45;&gt;Node5</title>
<path fill="none" stroke="midnightblue" d="M154.366,-129.008C139.692,-119.518 120.367,-107.02 105.683,-97.523"/>
<polygon fill="midnightblue" stroke="midnightblue" points="152.521,-131.983 162.819,-134.475 156.322,-126.106 152.521,-131.983"/>
</g>
<!-- Node6 -->
<g id="node6" class="node"><title>Node6</title>
<g id="a_node6"><a xlink:href="class_ogre_1_1_d3_d11_render_window_swap_chain_based.html" target="_top" xlink:title="Ogre::D3D11RenderWindowSwap\lChainBased">
<polygon fill="none" stroke="black" points="186,-67.5 186,-97.5 352,-97.5 352,-67.5 186,-67.5"/>
<text text-anchor="start" x="194" y="-85.5" font-family="Helvetica,sans-Serif" font-size="10.00">Ogre::D3D11RenderWindowSwap</text>
<text text-anchor="middle" x="269" y="-74.5" font-family="Helvetica,sans-Serif" font-size="10.00">ChainBased</text>
</a>
</g>
</g>
<!-- Node4&#45;&gt;Node6 -->
<g id="edge5" class="edge"><title>Node4&#45;&gt;Node6</title>
<path fill="none" stroke="midnightblue" d="M197.869,-129.008C212.703,-119.518 232.238,-107.02 247.082,-97.523"/>
<polygon fill="midnightblue" stroke="midnightblue" points="195.862,-126.138 189.325,-134.475 199.634,-132.034 195.862,-126.138"/>
</g>
<!-- Node7 -->
<g id="node7" class="node"><title>Node7</title>
<g id="a_node7"><a xlink:href="class_ogre_1_1_d3_d11_render_window_core_window.html" target="_top" xlink:title="Ogre::D3D11RenderWindowCore\lWindow">
<polygon fill="none" stroke="black" points="97,-0.5 97,-30.5 259,-30.5 259,-0.5 97,-0.5"/>
<text text-anchor="start" x="105" y="-18.5" font-family="Helvetica,sans-Serif" font-size="10.00">Ogre::D3D11RenderWindowCore</text>
<text text-anchor="middle" x="178" y="-7.5" font-family="Helvetica,sans-Serif" font-size="10.00">Window</text>
</a>
</g>
</g>
<!-- Node6&#45;&gt;Node7 -->
<g id="edge6" class="edge"><title>Node6&#45;&gt;Node7</title>
<path fill="none" stroke="midnightblue" d="M240.932,-61.4511C226.932,-51.4517 210.339,-39.5995 197.707,-30.5765"/>
<polygon fill="midnightblue" stroke="midnightblue" points="239.083,-64.4316 249.254,-67.396 243.151,-58.7355 239.083,-64.4316"/>
</g>
<!-- Node8 -->
<g id="node8" class="node"><title>Node8</title>
<g id="a_node8"><a xlink:href="class_ogre_1_1_d3_d11_render_window_hwnd.html" target="_top" xlink:title="Ogre::D3D11RenderWindowHwnd">
<polygon fill="none" stroke="black" points="277.5,-6 277.5,-25 444.5,-25 444.5,-6 277.5,-6"/>
<text text-anchor="middle" x="361" y="-13" font-family="Helvetica,sans-Serif" font-size="10.00">Ogre::D3D11RenderWindowHwnd</text>
</a>
</g>
</g>
<!-- Node6&#45;&gt;Node8 -->
<g id="edge7" class="edge"><title>Node6&#45;&gt;Node8</title>
<path fill="none" stroke="midnightblue" d="M297.583,-61.3056C314.859,-49.0999 335.98,-34.1772 348.959,-25.007"/>
<polygon fill="midnightblue" stroke="midnightblue" points="295.11,-58.7671 288.963,-67.396 299.149,-64.4841 295.11,-58.7671"/>
</g>
</g>
</svg>
