<?xml version="1.0" encoding="UTF-8" standalone="no"?>
<!DOCTYPE svg PUBLIC "-//W3C//DTD SVG 1.1//EN"
 "http://www.w3.org/Graphics/SVG/1.1/DTD/svg11.dtd">
<!-- Generated by graphviz version 2.38.0 (20140413.2041)
 -->
<!-- Title: Ogre::Plugin Pages: 1 -->
<svg width="324pt" height="180pt"
 viewBox="0.00 0.00 324.00 180.00" xmlns="http://www.w3.org/2000/svg" xmlns:xlink="http://www.w3.org/1999/xlink">
<g id="graph0" class="graph" transform="scale(1 1) rotate(0) translate(4 176)">
<title>Ogre::Plugin</title>
<!-- Node1 -->
<g id="node1" class="node"><title>Node1</title>
<polygon fill="#bfbfbf" stroke="black" points="101,-76.5 101,-95.5 172,-95.5 172,-76.5 101,-76.5"/>
<text text-anchor="middle" x="136.5" y="-83.5" font-family="Helvetica,sans-Serif" font-size="10.00">Ogre::Plugin</text>
</g>
<!-- Node3 -->
<g id="node3" class="node"><title>Node3</title>
<g id="a_node3"><a xlink:href="class_ogre_1_1_d3_d11_plugin.html" target="_top" xlink:title="Plugin instance for D3D11 Manager. ">
<polygon fill="none" stroke="black" points="211.5,-152.5 211.5,-171.5 312.5,-171.5 312.5,-152.5 211.5,-152.5"/>
<text text-anchor="middle" x="262" y="-159.5" font-family="Helvetica,sans-Serif" font-size="10.00">Ogre::D3D11Plugin</text>
</a>
</g>
</g>
<!-- Node1&#45;&gt;Node3 -->
<g id="edge2" class="edge"><title>Node1&#45;&gt;Node3</title>
<path fill="none" stroke="midnightblue" d="M154.803,-102.783C168.379,-115.226 188.229,-131.887 208,-143 214.476,-146.64 221.778,-149.793 228.845,-152.428"/>
<polygon fill="midnightblue" stroke="midnightblue" points="156.906,-99.9563 147.218,-95.6678 152.117,-105.062 156.906,-99.9563"/>
</g>
<!-- Node4 -->
<g id="node4" class="node"><title>Node4</title>
<g id="a_node4"><a xlink:href="class_ogre_1_1_d3_d9_plugin.html" target="_top" xlink:title="Plugin instance for D3D9 Manager. ">
<polygon fill="none" stroke="black" points="214,-114.5 214,-133.5 310,-133.5 310,-114.5 214,-114.5"/>
<text text-anchor="middle" x="262" y="-121.5" font-family="Helvetica,sans-Serif" font-size="10.00">Ogre::D3D9Plugin</text>
</a>
</g>
</g>
<!-- Node1&#45;&gt;Node4 -->
<g id="edge3" class="edge"><title>Node1&#45;&gt;Node4</title>
<path fill="none" stroke="midnightblue" d="M178.24,-98.5353C195.04,-103.705 214.197,-109.599 229.846,-114.414"/>
<polygon fill="midnightblue" stroke="midnightblue" points="179.251,-95.1847 168.664,-95.589 177.193,-101.875 179.251,-95.1847"/>
</g>
<!-- Node5 -->
<g id="node5" class="node"><title>Node5</title>
<g id="a_node5"><a xlink:href="class_ogre_1_1_g_l3_plus_plugin.html" target="_top" xlink:title="Plugin instance for GL3Plus Manager. ">
<polygon fill="none" stroke="black" points="208,-76.5 208,-95.5 316,-95.5 316,-76.5 208,-76.5"/>
<text text-anchor="middle" x="262" y="-83.5" font-family="Helvetica,sans-Serif" font-size="10.00">Ogre::GL3PlusPlugin</text>
</a>
</g>
</g>
<!-- Node1&#45;&gt;Node5 -->
<g id="edge4" class="edge"><title>Node1&#45;&gt;Node5</title>
<path fill="none" stroke="midnightblue" d="M182.343,-86C190.547,-86 199.183,-86 207.607,-86"/>
<polygon fill="midnightblue" stroke="midnightblue" points="182.23,-82.5001 172.23,-86 182.23,-89.5001 182.23,-82.5001"/>
</g>
<!-- Node6 -->
<g id="node6" class="node"><title>Node6</title>
<g id="a_node6"><a xlink:href="class_ogre_1_1_g_l_e_s2_plugin.html" target="_top" xlink:title="Plugin instance for GL ES 2 Manager. ">
<polygon fill="none" stroke="black" points="211,-38.5 211,-57.5 313,-57.5 313,-38.5 211,-38.5"/>
<text text-anchor="middle" x="262" y="-45.5" font-family="Helvetica,sans-Serif" font-size="10.00">Ogre::GLES2Plugin</text>
</a>
</g>
</g>
<!-- Node1&#45;&gt;Node6 -->
<g id="edge5" class="edge"><title>Node1&#45;&gt;Node6</title>
<path fill="none" stroke="midnightblue" d="M178.24,-73.4647C195.04,-68.2952 214.197,-62.4009 229.846,-57.5859"/>
<polygon fill="midnightblue" stroke="midnightblue" points="177.193,-70.1248 168.664,-76.411 179.251,-76.8153 177.193,-70.1248"/>
</g>
<!-- Node7 -->
<g id="node7" class="node"><title>Node7</title>
<g id="a_node7"><a xlink:href="class_ogre_1_1_g_l_plugin.html" target="_top" xlink:title="Plugin instance for GL Manager. ">
<polygon fill="none" stroke="black" points="220.5,-0.5 220.5,-19.5 303.5,-19.5 303.5,-0.5 220.5,-0.5"/>
<text text-anchor="middle" x="262" y="-7.5" font-family="Helvetica,sans-Serif" font-size="10.00">Ogre::GLPlugin</text>
</a>
</g>
</g>
<!-- Node1&#45;&gt;Node7 -->
<g id="edge6" class="edge"><title>Node1&#45;&gt;Node7</title>
<path fill="none" stroke="midnightblue" d="M154.803,-69.2171C168.379,-56.774 188.229,-40.1126 208,-29 214.476,-25.36 221.778,-22.2067 228.845,-19.572"/>
<polygon fill="midnightblue" stroke="midnightblue" points="152.117,-66.9382 147.218,-76.3322 156.906,-72.0437 152.117,-66.9382"/>
</g>
<!-- Node2 -->
<g id="node2" class="node"><title>Node2</title>
<g id="a_node2"><a xlink:href="class_ogre_1_1_allocated_object.html" target="_top" xlink:title="Superclass for all objects that wish to use custom memory allocators when their new / delete operator...">
<polygon fill="none" stroke="black" points="0,-76.5 0,-95.5 65,-95.5 65,-76.5 0,-76.5"/>
<text text-anchor="middle" x="32.5" y="-83.5" font-family="Helvetica,sans-Serif" font-size="10.00">PluginAlloc</text>
</a>
</g>
</g>
<!-- Node2&#45;&gt;Node1 -->
<g id="edge1" class="edge"><title>Node2&#45;&gt;Node1</title>
<path fill="none" stroke="midnightblue" d="M75.3605,-86C83.8761,-86 92.7431,-86 100.97,-86"/>
<polygon fill="midnightblue" stroke="midnightblue" points="75.2143,-82.5001 65.2143,-86 75.2143,-89.5001 75.2143,-82.5001"/>
</g>
</g>
</svg>
