<?xml version="1.0" encoding="UTF-8" standalone="no"?>
<!DOCTYPE svg PUBLIC "-//W3C//DTD SVG 1.1//EN"
 "http://www.w3.org/Graphics/SVG/1.1/DTD/svg11.dtd">
<!-- Generated by graphviz version 2.38.0 (20140413.2041)
 -->
<!-- Title: Ogre::HighLevelGpuProgramFactory Pages: 1 -->
<svg width="462pt" height="268pt"
 viewBox="0.00 0.00 462.00 267.50" xmlns="http://www.w3.org/2000/svg" xmlns:xlink="http://www.w3.org/1999/xlink">
<g id="graph0" class="graph" transform="scale(1 1) rotate(0) translate(4 263.5)">
<title>Ogre::HighLevelGpuProgramFactory</title>
<!-- Node1 -->
<g id="node1" class="node"><title>Node1</title>
<polygon fill="#bfbfbf" stroke="black" points="107,-120.5 107,-150.5 249,-150.5 249,-120.5 107,-120.5"/>
<text text-anchor="start" x="115" y="-138.5" font-family="Helvetica,sans-Serif" font-size="10.00">Ogre::HighLevelGpuProgram</text>
<text text-anchor="middle" x="178" y="-127.5" font-family="Helvetica,sans-Serif" font-size="10.00">Factory</text>
</g>
<!-- Node3 -->
<g id="node3" class="node"><title>Node3</title>
<g id="a_node3"><a xlink:href="class_ogre_1_1_d3_d11_h_l_s_l_program_factory.html" target="_top" xlink:title="Factory class for D3D11 HLSL programs. ">
<polygon fill="none" stroke="black" points="285,-240 285,-259 454,-259 454,-240 285,-240"/>
<text text-anchor="middle" x="369.5" y="-247" font-family="Helvetica,sans-Serif" font-size="10.00">Ogre::D3D11HLSLProgramFactory</text>
</a>
</g>
</g>
<!-- Node1&#45;&gt;Node3 -->
<g id="edge2" class="edge"><title>Node1&#45;&gt;Node3</title>
<path fill="none" stroke="midnightblue" d="M197.934,-158.134C217.488,-180.005 250.005,-212.404 285,-230.5 292.527,-234.392 300.842,-237.493 309.221,-239.962"/>
<polygon fill="midnightblue" stroke="midnightblue" points="200.557,-155.817 191.336,-150.599 195.291,-160.428 200.557,-155.817"/>
</g>
<!-- Node4 -->
<g id="node4" class="node"><title>Node4</title>
<g id="a_node4"><a xlink:href="class_ogre_1_1_d3_d9_h_l_s_l_program_factory.html" target="_top" xlink:title="Factory class for D3D9 HLSL programs. ">
<polygon fill="none" stroke="black" points="287.5,-202 287.5,-221 451.5,-221 451.5,-202 287.5,-202"/>
<text text-anchor="middle" x="369.5" y="-209" font-family="Helvetica,sans-Serif" font-size="10.00">Ogre::D3D9HLSLProgramFactory</text>
</a>
</g>
</g>
<!-- Node1&#45;&gt;Node4 -->
<g id="edge3" class="edge"><title>Node1&#45;&gt;Node4</title>
<path fill="none" stroke="midnightblue" d="M211.149,-155.74C231.629,-167.878 259.094,-182.791 285,-192.5 295.024,-196.256 306.014,-199.403 316.634,-201.985"/>
<polygon fill="midnightblue" stroke="midnightblue" points="212.916,-152.719 202.544,-150.56 209.306,-158.716 212.916,-152.719"/>
</g>
<!-- Node5 -->
<g id="node5" class="node"><title>Node5</title>
<g id="a_node5"><a xlink:href="class_ogre_1_1_g_l_s_l_1_1_g_l_s_l_program_factory.html" target="_top" xlink:title="Factory class for GLSL programs. ">
<polygon fill="none" stroke="black" points="285,-164 285,-183 454,-183 454,-164 285,-164"/>
<text text-anchor="middle" x="369.5" y="-171" font-family="Helvetica,sans-Serif" font-size="10.00">Ogre::GLSL::GLSLProgramFactory</text>
</a>
</g>
</g>
<!-- Node1&#45;&gt;Node5 -->
<g id="edge4" class="edge"><title>Node1&#45;&gt;Node5</title>
<path fill="none" stroke="midnightblue" d="M258.951,-151.532C280.037,-155.761 302.127,-160.19 320.902,-163.955"/>
<polygon fill="midnightblue" stroke="midnightblue" points="259.517,-148.076 249.024,-149.542 258.141,-154.94 259.517,-148.076"/>
</g>
<!-- Node6 -->
<g id="node6" class="node"><title>Node6</title>
<g id="a_node6"><a xlink:href="class_ogre_1_1_g_l_s_l_e_s_cg_program_factory.html" target="_top" xlink:title="Factory class for GLSL ES programs. ">
<polygon fill="none" stroke="black" points="287.5,-126 287.5,-145 451.5,-145 451.5,-126 287.5,-126"/>
<text text-anchor="middle" x="369.5" y="-133" font-family="Helvetica,sans-Serif" font-size="10.00">Ogre::GLSLESCgProgramFactory</text>
</a>
</g>
</g>
<!-- Node1&#45;&gt;Node6 -->
<g id="edge5" class="edge"><title>Node1&#45;&gt;Node6</title>
<path fill="none" stroke="midnightblue" d="M259.05,-135.5C268.376,-135.5 277.897,-135.5 287.239,-135.5"/>
<polygon fill="midnightblue" stroke="midnightblue" points="259.024,-132 249.024,-135.5 259.024,-139 259.024,-132"/>
</g>
<!-- Node7 -->
<g id="node7" class="node"><title>Node7</title>
<g id="a_node7"><a xlink:href="class_ogre_1_1_g_l_s_l_e_s_program_factory.html" target="_top" xlink:title="Factory class for GLSL ES programs. ">
<polygon fill="none" stroke="black" points="293.5,-88 293.5,-107 445.5,-107 445.5,-88 293.5,-88"/>
<text text-anchor="middle" x="369.5" y="-95" font-family="Helvetica,sans-Serif" font-size="10.00">Ogre::GLSLESProgramFactory</text>
</a>
</g>
</g>
<!-- Node1&#45;&gt;Node7 -->
<g id="edge6" class="edge"><title>Node1&#45;&gt;Node7</title>
<path fill="none" stroke="midnightblue" d="M258.951,-119.468C280.037,-115.239 302.127,-110.81 320.902,-107.045"/>
<polygon fill="midnightblue" stroke="midnightblue" points="258.141,-116.06 249.024,-121.458 259.517,-122.924 258.141,-116.06"/>
</g>
<!-- Node8 -->
<g id="node8" class="node"><title>Node8</title>
<g id="a_node8"><a xlink:href="class_ogre_1_1_g_l_s_l_shader_factory.html" target="_top" xlink:title="Factory class for GLSL shaders. ">
<polygon fill="none" stroke="black" points="303.5,-50 303.5,-69 435.5,-69 435.5,-50 303.5,-50"/>
<text text-anchor="middle" x="369.5" y="-57" font-family="Helvetica,sans-Serif" font-size="10.00">Ogre::GLSLShaderFactory</text>
</a>
</g>
</g>
<!-- Node1&#45;&gt;Node8 -->
<g id="edge7" class="edge"><title>Node1&#45;&gt;Node8</title>
<path fill="none" stroke="midnightblue" d="M211.149,-115.26C231.629,-103.122 259.094,-88.2086 285,-78.5 295.024,-74.7436 306.014,-71.5973 316.634,-69.0149"/>
<polygon fill="midnightblue" stroke="midnightblue" points="209.306,-112.284 202.544,-120.44 212.916,-118.281 209.306,-112.284"/>
</g>
<!-- Node9 -->
<g id="node9" class="node"><title>Node9</title>
<g id="a_node9"><a xlink:href="class_ogre_1_1_unified_high_level_gpu_program_factory.html" target="_top" xlink:title="Factory class for Unified programs. ">
<polygon fill="none" stroke="black" points="301.5,-0.5 301.5,-30.5 437.5,-30.5 437.5,-0.5 301.5,-0.5"/>
<text text-anchor="start" x="309.5" y="-18.5" font-family="Helvetica,sans-Serif" font-size="10.00">Ogre::UnifiedHighLevelGpu</text>
<text text-anchor="middle" x="369.5" y="-7.5" font-family="Helvetica,sans-Serif" font-size="10.00">ProgramFactory</text>
</a>
</g>
</g>
<!-- Node1&#45;&gt;Node9 -->
<g id="edge8" class="edge"><title>Node1&#45;&gt;Node9</title>
<path fill="none" stroke="midnightblue" d="M198.796,-112.719C218.612,-91.2364 250.975,-59.5689 285,-40.5 291.732,-36.727 299.096,-33.4651 306.573,-30.6604"/>
<polygon fill="midnightblue" stroke="midnightblue" points="195.954,-110.643 191.838,-120.406 201.144,-115.34 195.954,-110.643"/>
</g>
<!-- Node2 -->
<g id="node2" class="node"><title>Node2</title>
<g id="a_node2"><a xlink:href="class_ogre_1_1_allocated_object.html" target="_top" xlink:title="Superclass for all objects that wish to use custom memory allocators when their new / delete operator...">
<polygon fill="none" stroke="black" points="0,-126 0,-145 71,-145 71,-126 0,-126"/>
<text text-anchor="middle" x="35.5" y="-133" font-family="Helvetica,sans-Serif" font-size="10.00">FactoryAlloc</text>
</a>
</g>
</g>
<!-- Node2&#45;&gt;Node1 -->
<g id="edge1" class="edge"><title>Node2&#45;&gt;Node1</title>
<path fill="none" stroke="midnightblue" d="M81.2963,-135.5C89.5014,-135.5 98.2422,-135.5 106.978,-135.5"/>
<polygon fill="midnightblue" stroke="midnightblue" points="81.2304,-132 71.2303,-135.5 81.2303,-139 81.2304,-132"/>
</g>
</g>
</svg>
