<?xml version="1.0" encoding="UTF-8" standalone="no"?>
<!DOCTYPE svg PUBLIC "-//W3C//DTD SVG 1.1//EN"
 "http://www.w3.org/Graphics/SVG/1.1/DTD/svg11.dtd">
<!-- Generated by graphviz version 2.38.0 (20140413.2041)
 -->
<!-- Title: Ogre::TerrainMaterialGeneratorA::SM2Profile::ShaderHelperHLSL Pages: 1 -->
<svg width="175pt" height="229pt"
 viewBox="0.00 0.00 175.00 229.00" xmlns="http://www.w3.org/2000/svg" xmlns:xlink="http://www.w3.org/1999/xlink">
<g id="graph0" class="graph" transform="scale(1 1) rotate(0) translate(4 225)">
<title>Ogre::TerrainMaterialGeneratorA::SM2Profile::ShaderHelperHLSL</title>
<!-- Node1 -->
<g id="node1" class="node"><title>Node1</title>
<polygon fill="#bfbfbf" stroke="black" points="-1.42109e-14,-0.5 -1.42109e-14,-30.5 167,-30.5 167,-0.5 -1.42109e-14,-0.5"/>
<text text-anchor="start" x="8" y="-18.5" font-family="Helvetica,sans-Serif" font-size="10.00">Ogre::TerrainMaterialGenerator</text>
<text text-anchor="middle" x="83.5" y="-7.5" font-family="Helvetica,sans-Serif" font-size="10.00">A::SM2Profile::ShaderHelperHLSL</text>
</g>
<!-- Node2 -->
<g id="node2" class="node"><title>Node2</title>
<g id="a_node2"><a xlink:href="class_ogre_1_1_terrain_material_generator_a_1_1_s_m2_profile_1_1_shader_helper_cg.html" target="_top" xlink:title="Utility class to help with generating shaders for Cg / HLSL. ">
<polygon fill="none" stroke="black" points="6,-67.5 6,-97.5 161,-97.5 161,-67.5 6,-67.5"/>
<text text-anchor="start" x="14" y="-85.5" font-family="Helvetica,sans-Serif" font-size="10.00">Ogre::TerrainMaterialGenerator</text>
<text text-anchor="middle" x="83.5" y="-74.5" font-family="Helvetica,sans-Serif" font-size="10.00">A::SM2Profile::ShaderHelperCg</text>
</a>
</g>
</g>
<!-- Node2&#45;&gt;Node1 -->
<g id="edge1" class="edge"><title>Node2&#45;&gt;Node1</title>
<path fill="none" stroke="midnightblue" d="M83.5,-57.1081C83.5,-48.1539 83.5,-38.3227 83.5,-30.5765"/>
<polygon fill="midnightblue" stroke="midnightblue" points="80.0001,-57.3959 83.5,-67.396 87.0001,-57.396 80.0001,-57.3959"/>
</g>
<!-- Node3 -->
<g id="node3" class="node"><title>Node3</title>
<g id="a_node3"><a xlink:href="class_ogre_1_1_terrain_material_generator_a_1_1_s_m2_profile_1_1_shader_helper.html" target="_top" xlink:title="Interface definition for helper class to generate shaders. ">
<polygon fill="none" stroke="black" points="8,-134.5 8,-164.5 159,-164.5 159,-134.5 8,-134.5"/>
<text text-anchor="start" x="16" y="-152.5" font-family="Helvetica,sans-Serif" font-size="10.00">Ogre::TerrainMaterialGenerator</text>
<text text-anchor="middle" x="83.5" y="-141.5" font-family="Helvetica,sans-Serif" font-size="10.00">A::SM2Profile::ShaderHelper</text>
</a>
</g>
</g>
<!-- Node3&#45;&gt;Node2 -->
<g id="edge2" class="edge"><title>Node3&#45;&gt;Node2</title>
<path fill="none" stroke="midnightblue" d="M83.5,-124.108C83.5,-115.154 83.5,-105.323 83.5,-97.5765"/>
<polygon fill="midnightblue" stroke="midnightblue" points="80.0001,-124.396 83.5,-134.396 87.0001,-124.396 80.0001,-124.396"/>
</g>
<!-- Node4 -->
<g id="node4" class="node"><title>Node4</title>
<g id="a_node4"><a xlink:href="class_ogre_1_1_allocated_object.html" target="_top" xlink:title="Superclass for all objects that wish to use custom memory allocators when their new / delete operator...">
<polygon fill="none" stroke="black" points="49.5,-201.5 49.5,-220.5 117.5,-220.5 117.5,-201.5 49.5,-201.5"/>
<text text-anchor="middle" x="83.5" y="-208.5" font-family="Helvetica,sans-Serif" font-size="10.00">TerrainAlloc</text>
</a>
</g>
</g>
<!-- Node4&#45;&gt;Node3 -->
<g id="edge3" class="edge"><title>Node4&#45;&gt;Node3</title>
<path fill="none" stroke="midnightblue" d="M83.5,-191.235C83.5,-182.586 83.5,-172.497 83.5,-164.523"/>
<polygon fill="midnightblue" stroke="midnightblue" points="80.0001,-191.475 83.5,-201.475 87.0001,-191.475 80.0001,-191.475"/>
</g>
</g>
</svg>
