<?xml version="1.0" encoding="UTF-8" standalone="no"?>
<!DOCTYPE svg PUBLIC "-//W3C//DTD SVG 1.1//EN"
 "http://www.w3.org/Graphics/SVG/1.1/DTD/svg11.dtd">
<!-- Generated by graphviz version 2.38.0 (20140413.2041)
 -->
<!-- Title: Ogre::RenderQueueListener Pages: 1 -->
<svg width="256pt" height="95pt"
 viewBox="0.00 0.00 256.00 95.00" xmlns="http://www.w3.org/2000/svg" xmlns:xlink="http://www.w3.org/1999/xlink">
<g id="graph0" class="graph" transform="scale(1 1) rotate(0) translate(4 91)">
<title>Ogre::RenderQueueListener</title>
<!-- Node1 -->
<g id="node1" class="node"><title>Node1</title>
<polygon fill="#bfbfbf" stroke="black" points="56.5,-67.5 56.5,-86.5 194.5,-86.5 194.5,-67.5 56.5,-67.5"/>
<text text-anchor="middle" x="125.5" y="-74.5" font-family="Helvetica,sans-Serif" font-size="10.00">Ogre::RenderQueueListener</text>
</g>
<!-- Node2 -->
<g id="node2" class="node"><title>Node2</title>
<g id="a_node2"><a xlink:href="class_ogre_1_1_compositor_chain_1_1_r_q_listener.html" target="_top" xlink:title="Render queue listener used to set up rendering events. ">
<polygon fill="none" stroke="black" points="0,-0.5 0,-30.5 119,-30.5 119,-0.5 0,-0.5"/>
<text text-anchor="start" x="8" y="-18.5" font-family="Helvetica,sans-Serif" font-size="10.00">Ogre::CompositorChain</text>
<text text-anchor="middle" x="59.5" y="-7.5" font-family="Helvetica,sans-Serif" font-size="10.00">::RQListener</text>
</a>
</g>
</g>
<!-- Node1&#45;&gt;Node2 -->
<g id="edge1" class="edge"><title>Node1&#45;&gt;Node2</title>
<path fill="none" stroke="midnightblue" d="M108.469,-60.6459C98.1523,-51.3456 85.0925,-39.572 75.0549,-30.523"/>
<polygon fill="midnightblue" stroke="midnightblue" points="106.273,-63.3788 116.044,-67.4751 110.96,-58.1796 106.273,-63.3788"/>
</g>
<!-- Node3 -->
<g id="node3" class="node"><title>Node3</title>
<g id="a_node3"><a xlink:href="class_ogre_1_1_overlay_system.html" target="_top" xlink:title="This class simplify initialization / finalization of the overlay system. ">
<polygon fill="none" stroke="black" points="137,-6 137,-25 248,-25 248,-6 137,-6"/>
<text text-anchor="middle" x="192.5" y="-13" font-family="Helvetica,sans-Serif" font-size="10.00">Ogre::OverlaySystem</text>
</a>
</g>
</g>
<!-- Node1&#45;&gt;Node3 -->
<g id="edge2" class="edge"><title>Node1&#45;&gt;Node3</title>
<path fill="none" stroke="midnightblue" d="M142.785,-60.6496C155.559,-49.3058 172.478,-34.2811 182.918,-25.0091"/>
<polygon fill="midnightblue" stroke="midnightblue" points="140.253,-58.2179 135.099,-67.4751 144.901,-63.4519 140.253,-58.2179"/>
</g>
</g>
</svg>
