<?xml version="1.0" encoding="UTF-8" standalone="no"?>
<!DOCTYPE svg PUBLIC "-//W3C//DTD SVG 1.1//EN"
 "http://www.w3.org/Graphics/SVG/1.1/DTD/svg11.dtd">
<!-- Generated by graphviz version 2.38.0 (20140413.2041)
 -->
<!-- Title: Ogre::GpuProgram Pages: 1 -->
<svg width="750pt" height="420pt"
 viewBox="0.00 0.00 750.00 419.50" xmlns="http://www.w3.org/2000/svg" xmlns:xlink="http://www.w3.org/1999/xlink">
<g id="graph0" class="graph" transform="scale(1 1) rotate(0) translate(4 415.5)">
<title>Ogre::GpuProgram</title>
<!-- Node1 -->
<g id="node1" class="node"><title>Node1</title>
<polygon fill="#bfbfbf" stroke="black" points="265,-287 265,-306 363,-306 363,-287 265,-287"/>
<text text-anchor="middle" x="314" y="-294" font-family="Helvetica,sans-Serif" font-size="10.00">Ogre::GpuProgram</text>
</g>
<!-- Node5 -->
<g id="node5" class="node"><title>Node5</title>
<g id="a_node5"><a xlink:href="class_ogre_1_1_d3_d9_gpu_program.html" target="_top" xlink:title="Direct3D implementation of a few things common to low&#45;level vertex &amp; fragment programs. ">
<polygon fill="none" stroke="black" points="408,-354 408,-373 532,-373 532,-354 408,-354"/>
<text text-anchor="middle" x="470" y="-361" font-family="Helvetica,sans-Serif" font-size="10.00">Ogre::D3D9GpuProgram</text>
</a>
</g>
</g>
<!-- Node1&#45;&gt;Node5 -->
<g id="edge4" class="edge"><title>Node1&#45;&gt;Node5</title>
<path fill="none" stroke="midnightblue" d="M346.622,-310.258C376.549,-323.278 420.693,-342.483 446.976,-353.918"/>
<polygon fill="midnightblue" stroke="midnightblue" points="347.631,-306.88 337.064,-306.099 344.838,-313.298 347.631,-306.88"/>
</g>
<!-- Node8 -->
<g id="node8" class="node"><title>Node8</title>
<g id="a_node8"><a xlink:href="class_ogre_1_1_g_l_e_s2_gpu_program.html" target="_top" xlink:title="Generalised low&#45;level GL program, can be applied to multiple types (eg ARB and NV) ...">
<polygon fill="none" stroke="black" points="405,-297 405,-316 535,-316 535,-297 405,-297"/>
<text text-anchor="middle" x="470" y="-304" font-family="Helvetica,sans-Serif" font-size="10.00">Ogre::GLES2GpuProgram</text>
</a>
</g>
</g>
<!-- Node1&#45;&gt;Node8 -->
<g id="edge7" class="edge"><title>Node1&#45;&gt;Node8</title>
<path fill="none" stroke="midnightblue" d="M373.376,-300.291C383.634,-300.957 394.361,-301.653 404.768,-302.329"/>
<polygon fill="midnightblue" stroke="midnightblue" points="373.51,-296.792 363.304,-299.637 373.056,-303.777 373.51,-296.792"/>
</g>
<!-- Node10 -->
<g id="node10" class="node"><title>Node10</title>
<g id="a_node10"><a xlink:href="class_ogre_1_1_g_l_gpu_program.html" target="_top" xlink:title="Generalised low&#45;level GL program, can be applied to multiple types (eg ARB and NV) ...">
<polygon fill="none" stroke="black" points="414.5,-249 414.5,-268 525.5,-268 525.5,-249 414.5,-249"/>
<text text-anchor="middle" x="470" y="-256" font-family="Helvetica,sans-Serif" font-size="10.00">Ogre::GLGpuProgram</text>
</a>
</g>
</g>
<!-- Node1&#45;&gt;Node10 -->
<g id="edge9" class="edge"><title>Node1&#45;&gt;Node10</title>
<path fill="none" stroke="midnightblue" d="M363.794,-284.46C385.308,-279.151 410.232,-273.001 430.419,-268.02"/>
<polygon fill="midnightblue" stroke="midnightblue" points="362.731,-281.117 353.861,-286.911 364.408,-287.913 362.731,-281.117"/>
</g>
<!-- Node14 -->
<g id="node14" class="node"><title>Node14</title>
<g id="a_node14"><a xlink:href="class_ogre_1_1_high_level_gpu_program.html" target="_top" xlink:title="Abstract base class representing a high&#45;level program (a vertex or fragment program). ">
<polygon fill="none" stroke="black" points="399,-107 399,-126 541,-126 541,-107 399,-107"/>
<text text-anchor="middle" x="470" y="-114" font-family="Helvetica,sans-Serif" font-size="10.00">Ogre::HighLevelGpuProgram</text>
</a>
</g>
</g>
<!-- Node1&#45;&gt;Node14 -->
<g id="edge13" class="edge"><title>Node1&#45;&gt;Node14</title>
<path fill="none" stroke="midnightblue" d="M330.131,-278.815C362.153,-241.386 435.871,-155.223 460.679,-126.225"/>
<polygon fill="midnightblue" stroke="midnightblue" points="327.121,-276.949 323.28,-286.822 332.44,-281.499 327.121,-276.949"/>
</g>
<!-- Node2 -->
<g id="node2" class="node"><title>Node2</title>
<g id="a_node2"><a xlink:href="class_ogre_1_1_resource.html" target="_top" xlink:title="Abstract class representing a loadable resource (e.g. ">
<polygon fill="none" stroke="black" points="143,-287 143,-306 229,-306 229,-287 143,-287"/>
<text text-anchor="middle" x="186" y="-294" font-family="Helvetica,sans-Serif" font-size="10.00">Ogre::Resource</text>
</a>
</g>
</g>
<!-- Node2&#45;&gt;Node1 -->
<g id="edge1" class="edge"><title>Node2&#45;&gt;Node1</title>
<path fill="none" stroke="midnightblue" d="M239.441,-296.5C247.889,-296.5 256.599,-296.5 264.938,-296.5"/>
<polygon fill="midnightblue" stroke="midnightblue" points="239.307,-293 229.307,-296.5 239.307,-300 239.307,-293"/>
</g>
<!-- Node3 -->
<g id="node3" class="node"><title>Node3</title>
<g id="a_node3"><a xlink:href="class_ogre_1_1_string_interface.html" target="_top" xlink:title="Class defining the common interface which classes can use to present a reflection&#45;style, self&#45;defining parameter set to callers. ">
<polygon fill="none" stroke="black" points="0,-306 0,-325 107,-325 107,-306 0,-306"/>
<text text-anchor="middle" x="53.5" y="-313" font-family="Helvetica,sans-Serif" font-size="10.00">Ogre::StringInterface</text>
</a>
</g>
</g>
<!-- Node3&#45;&gt;Node2 -->
<g id="edge2" class="edge"><title>Node3&#45;&gt;Node2</title>
<path fill="none" stroke="midnightblue" d="M117.331,-306.352C126.011,-305.088 134.749,-303.816 142.929,-302.625"/>
<polygon fill="midnightblue" stroke="midnightblue" points="116.595,-302.922 107.203,-307.827 117.603,-309.849 116.595,-302.922"/>
</g>
<!-- Node4 -->
<g id="node4" class="node"><title>Node4</title>
<g id="a_node4"><a xlink:href="class_ogre_1_1_allocated_object.html" target="_top" xlink:title="Superclass for all objects that wish to use custom memory allocators when their new / delete operator...">
<polygon fill="none" stroke="black" points="13.5,-268 13.5,-287 93.5,-287 93.5,-268 13.5,-268"/>
<text text-anchor="middle" x="53.5" y="-275" font-family="Helvetica,sans-Serif" font-size="10.00">ResourceAlloc</text>
</a>
</g>
</g>
<!-- Node4&#45;&gt;Node2 -->
<g id="edge3" class="edge"><title>Node4&#45;&gt;Node2</title>
<path fill="none" stroke="midnightblue" d="M103.713,-284.665C116.542,-286.533 130.253,-288.529 142.69,-290.34"/>
<polygon fill="midnightblue" stroke="midnightblue" points="104.054,-281.178 93.6543,-283.201 103.046,-288.105 104.054,-281.178"/>
</g>
<!-- Node6 -->
<g id="node6" class="node"><title>Node6</title>
<g id="a_node6"><a xlink:href="class_ogre_1_1_d3_d9_gpu_fragment_program.html" target="_top" xlink:title="Direct3D implementation of low&#45;level fragment programs. ">
<polygon fill="none" stroke="black" points="577,-392 577,-411 742,-411 742,-392 577,-392"/>
<text text-anchor="middle" x="659.5" y="-399" font-family="Helvetica,sans-Serif" font-size="10.00">Ogre::D3D9GpuFragmentProgram</text>
</a>
</g>
</g>
<!-- Node5&#45;&gt;Node6 -->
<g id="edge5" class="edge"><title>Node5&#45;&gt;Node6</title>
<path fill="none" stroke="midnightblue" d="M528.284,-375.11C554.951,-380.514 586.281,-386.864 611.526,-391.98"/>
<polygon fill="midnightblue" stroke="midnightblue" points="528.81,-371.645 518.314,-373.089 527.42,-378.506 528.81,-371.645"/>
</g>
<!-- Node7 -->
<g id="node7" class="node"><title>Node7</title>
<g id="a_node7"><a xlink:href="class_ogre_1_1_d3_d9_gpu_vertex_program.html" target="_top" xlink:title="Direct3D implementation of low&#45;level vertex programs. ">
<polygon fill="none" stroke="black" points="583.5,-354 583.5,-373 735.5,-373 735.5,-354 583.5,-354"/>
<text text-anchor="middle" x="659.5" y="-361" font-family="Helvetica,sans-Serif" font-size="10.00">Ogre::D3D9GpuVertexProgram</text>
</a>
</g>
</g>
<!-- Node5&#45;&gt;Node7 -->
<g id="edge6" class="edge"><title>Node5&#45;&gt;Node7</title>
<path fill="none" stroke="midnightblue" d="M542.266,-363.5C555.707,-363.5 569.804,-363.5 583.36,-363.5"/>
<polygon fill="midnightblue" stroke="midnightblue" points="542.135,-360 532.135,-363.5 542.135,-367 542.135,-360"/>
</g>
<!-- Node9 -->
<g id="node9" class="node"><title>Node9</title>
<g id="a_node9"><a xlink:href="class_ogre_1_1_g_l_s_l_e_s_gpu_program.html" target="_top" xlink:title="GLSL ES low level compiled shader object &#45; this class is used to get at the linked program object and...">
<polygon fill="none" stroke="black" points="591,-316 591,-335 728,-335 728,-316 591,-316"/>
<text text-anchor="middle" x="659.5" y="-323" font-family="Helvetica,sans-Serif" font-size="10.00">Ogre::GLSLESGpuProgram</text>
</a>
</g>
</g>
<!-- Node8&#45;&gt;Node9 -->
<g id="edge8" class="edge"><title>Node8&#45;&gt;Node9</title>
<path fill="none" stroke="midnightblue" d="M545.3,-314.029C560.365,-315.556 576.13,-317.153 590.947,-318.655"/>
<polygon fill="midnightblue" stroke="midnightblue" points="545.304,-310.512 535.002,-312.986 544.599,-317.476 545.304,-310.512"/>
</g>
<!-- Node11 -->
<g id="node11" class="node"><title>Node11</title>
<g id="a_node11"><a xlink:href="class_ogre_1_1_g_l_arb_gpu_program.html" target="_top" xlink:title="Specialisation of the GL low&#45;level program for ARB programs. ">
<polygon fill="none" stroke="black" points="596.5,-278 596.5,-297 722.5,-297 722.5,-278 596.5,-278"/>
<text text-anchor="middle" x="659.5" y="-285" font-family="Helvetica,sans-Serif" font-size="10.00">Ogre::GLArbGpuProgram</text>
</a>
</g>
</g>
<!-- Node10&#45;&gt;Node11 -->
<g id="edge10" class="edge"><title>Node10&#45;&gt;Node11</title>
<path fill="none" stroke="midnightblue" d="M535.868,-268.533C555.611,-271.587 577.249,-274.933 596.779,-277.954"/>
<polygon fill="midnightblue" stroke="midnightblue" points="536.154,-265.036 525.737,-266.966 535.084,-271.953 536.154,-265.036"/>
</g>
<!-- Node12 -->
<g id="node12" class="node"><title>Node12</title>
<g id="a_node12"><a xlink:href="class_ogre_1_1_g_l_gpu_nvparse_program.html" target="_top" xlink:title="Ogre::GLGpuNvparseProgram">
<polygon fill="none" stroke="black" points="585.5,-240 585.5,-259 733.5,-259 733.5,-240 585.5,-240"/>
<text text-anchor="middle" x="659.5" y="-247" font-family="Helvetica,sans-Serif" font-size="10.00">Ogre::GLGpuNvparseProgram</text>
</a>
</g>
</g>
<!-- Node10&#45;&gt;Node12 -->
<g id="edge11" class="edge"><title>Node10&#45;&gt;Node12</title>
<path fill="none" stroke="midnightblue" d="M535.978,-255.381C551.864,-254.619 568.97,-253.797 585.215,-253.018"/>
<polygon fill="midnightblue" stroke="midnightblue" points="535.557,-251.897 525.737,-255.873 535.893,-258.889 535.557,-251.897"/>
</g>
<!-- Node13 -->
<g id="node13" class="node"><title>Node13</title>
<g id="a_node13"><a xlink:href="class_ogre_1_1_g_l_s_l_1_1_g_l_s_l_gpu_program.html" target="_top" xlink:title="GLSL low level compiled shader object &#45; this class is used to get at the linked program object and pr...">
<polygon fill="none" stroke="black" points="582.5,-202 582.5,-221 736.5,-221 736.5,-202 582.5,-202"/>
<text text-anchor="middle" x="659.5" y="-209" font-family="Helvetica,sans-Serif" font-size="10.00">Ogre::GLSL::GLSLGpuProgram</text>
</a>
</g>
</g>
<!-- Node10&#45;&gt;Node13 -->
<g id="edge12" class="edge"><title>Node10&#45;&gt;Node13</title>
<path fill="none" stroke="midnightblue" d="M516.057,-246.287C534.864,-241.271 556.958,-235.482 577,-230.5 589.831,-227.311 603.838,-223.988 616.564,-221.029"/>
<polygon fill="midnightblue" stroke="midnightblue" points="515.022,-242.941 506.267,-248.908 516.832,-249.703 515.022,-242.941"/>
</g>
<!-- Node15 -->
<g id="node15" class="node"><title>Node15</title>
<g id="a_node15"><a xlink:href="class_ogre_1_1_d3_d11_h_l_s_l_program.html" target="_top" xlink:title="Specialization of HighLevelGpuProgram to provide support for D3D11 High&#45;Level Shader Language (HLSL)...">
<polygon fill="none" stroke="black" points="591.5,-164 591.5,-183 727.5,-183 727.5,-164 591.5,-164"/>
<text text-anchor="middle" x="659.5" y="-171" font-family="Helvetica,sans-Serif" font-size="10.00">Ogre::D3D11HLSLProgram</text>
</a>
</g>
</g>
<!-- Node14&#45;&gt;Node15 -->
<g id="edge14" class="edge"><title>Node14&#45;&gt;Node15</title>
<path fill="none" stroke="midnightblue" d="M504.745,-129.721C525.409,-137.535 552.505,-147.28 577,-154.5 588.706,-157.95 601.505,-161.182 613.419,-163.967"/>
<polygon fill="midnightblue" stroke="midnightblue" points="505.747,-126.357 495.156,-126.059 503.25,-132.896 505.747,-126.357"/>
</g>
<!-- Node16 -->
<g id="node16" class="node"><title>Node16</title>
<g id="a_node16"><a xlink:href="class_ogre_1_1_d3_d9_h_l_s_l_program.html" target="_top" xlink:title="Specialisation of HighLevelGpuProgram to provide support for D3D9 High&#45;Level Shader Language (HLSL)...">
<polygon fill="none" stroke="black" points="594,-126 594,-145 725,-145 725,-126 594,-126"/>
<text text-anchor="middle" x="659.5" y="-133" font-family="Helvetica,sans-Serif" font-size="10.00">Ogre::D3D9HLSLProgram</text>
</a>
</g>
</g>
<!-- Node14&#45;&gt;Node16 -->
<g id="edge15" class="edge"><title>Node14&#45;&gt;Node16</title>
<path fill="none" stroke="midnightblue" d="M551.314,-124.638C565.49,-126.075 580.085,-127.554 593.765,-128.94"/>
<polygon fill="midnightblue" stroke="midnightblue" points="551.387,-121.128 541.085,-123.602 550.681,-128.092 551.387,-121.128"/>
</g>
<!-- Node17 -->
<g id="node17" class="node"><title>Node17</title>
<g id="a_node17"><a xlink:href="class_ogre_1_1_g_l_s_l_1_1_g_l_s_l_program.html" target="_top" xlink:title="Specialisation of HighLevelGpuProgram to provide support for OpenGL Shader Language (GLSL)...">
<polygon fill="none" stroke="black" points="591.5,-88 591.5,-107 727.5,-107 727.5,-88 591.5,-88"/>
<text text-anchor="middle" x="659.5" y="-95" font-family="Helvetica,sans-Serif" font-size="10.00">Ogre::GLSL::GLSLProgram</text>
</a>
</g>
</g>
<!-- Node14&#45;&gt;Node17 -->
<g id="edge16" class="edge"><title>Node14&#45;&gt;Node17</title>
<path fill="none" stroke="midnightblue" d="M551.21,-108.372C564.57,-107.018 578.304,-105.627 591.297,-104.31"/>
<polygon fill="midnightblue" stroke="midnightblue" points="550.681,-104.908 541.085,-109.398 551.387,-111.872 550.681,-104.908"/>
</g>
<!-- Node18 -->
<g id="node18" class="node"><title>Node18</title>
<g id="a_node18"><a xlink:href="class_ogre_1_1_g_l_s_l_shader.html" target="_top" xlink:title="Specialisation of HighLevelGpuProgram to encapsulate shader objects obtained from compiled shaders wr...">
<polygon fill="none" stroke="black" points="610,-50 610,-69 709,-69 709,-50 610,-50"/>
<text text-anchor="middle" x="659.5" y="-57" font-family="Helvetica,sans-Serif" font-size="10.00">Ogre::GLSLShader</text>
</a>
</g>
</g>
<!-- Node14&#45;&gt;Node18 -->
<g id="edge17" class="edge"><title>Node14&#45;&gt;Node18</title>
<path fill="none" stroke="midnightblue" d="M504.745,-103.279C525.409,-95.4653 552.505,-85.7197 577,-78.5 588.706,-75.0497 601.505,-71.8179 613.419,-69.0329"/>
<polygon fill="midnightblue" stroke="midnightblue" points="503.25,-100.104 495.156,-106.941 505.747,-106.643 503.25,-100.104"/>
</g>
<!-- Node19 -->
<g id="node19" class="node"><title>Node19</title>
<g id="a_node19"><a xlink:href="class_ogre_1_1_unified_high_level_gpu_program.html" target="_top" xlink:title="Specialisation of HighLevelGpuProgram which just delegates its implementation to one other high level...">
<polygon fill="none" stroke="black" points="591.5,-0.5 591.5,-30.5 727.5,-30.5 727.5,-0.5 591.5,-0.5"/>
<text text-anchor="start" x="599.5" y="-18.5" font-family="Helvetica,sans-Serif" font-size="10.00">Ogre::UnifiedHighLevelGpu</text>
<text text-anchor="middle" x="659.5" y="-7.5" font-family="Helvetica,sans-Serif" font-size="10.00">Program</text>
</a>
</g>
</g>
<!-- Node14&#45;&gt;Node19 -->
<g id="edge18" class="edge"><title>Node14&#45;&gt;Node19</title>
<path fill="none" stroke="midnightblue" d="M489.802,-100.105C510.099,-83.132 543.975,-56.8555 577,-40.5 584.56,-36.7561 592.793,-33.44 601.026,-30.5468"/>
<polygon fill="midnightblue" stroke="midnightblue" points="487.331,-97.6111 481.976,-106.753 491.863,-102.946 487.331,-97.6111"/>
</g>
</g>
</svg>
