<?xml version="1.0" encoding="UTF-8" standalone="no"?>
<!DOCTYPE svg PUBLIC "-//W3C//DTD SVG 1.1//EN"
 "http://www.w3.org/Graphics/SVG/1.1/DTD/svg11.dtd">
<!-- Generated by graphviz version 2.38.0 (20140413.2041)
 -->
<!-- Title: Ogre::Resource Pages: 1 -->
<svg width="750pt" height="503pt"
 viewBox="0.00 0.00 750.00 503.00" xmlns="http://www.w3.org/2000/svg" xmlns:xlink="http://www.w3.org/1999/xlink">
<g id="graph0" class="graph" transform="scale(1 1) rotate(0) translate(4 499)">
<title>Ogre::Resource</title>
<!-- Node1 -->
<g id="node1" class="node"><title>Node1</title>
<polygon fill="#bfbfbf" stroke="black" points="143,-228.5 143,-247.5 229,-247.5 229,-228.5 143,-228.5"/>
<text text-anchor="middle" x="186" y="-235.5" font-family="Helvetica,sans-Serif" font-size="10.00">Ogre::Resource</text>
</g>
<!-- Node4 -->
<g id="node4" class="node"><title>Node4</title>
<g id="a_node4"><a xlink:href="class_ogre_1_1_compositor.html" target="_top" xlink:title="Class representing a Compositor object. ">
<polygon fill="none" stroke="black" points="267,-342.5 267,-361.5 361,-361.5 361,-342.5 267,-342.5"/>
<text text-anchor="middle" x="314" y="-349.5" font-family="Helvetica,sans-Serif" font-size="10.00">Ogre::Compositor</text>
</a>
</g>
</g>
<!-- Node1&#45;&gt;Node4 -->
<g id="edge3" class="edge"><title>Node1&#45;&gt;Node4</title>
<path fill="none" stroke="midnightblue" d="M197.989,-256.382C211.426,-277.467 235.994,-311.845 265,-333 270.141,-336.75 276.123,-339.881 282.083,-342.448"/>
<polygon fill="midnightblue" stroke="midnightblue" points="200.867,-254.381 192.623,-247.725 194.917,-258.069 200.867,-254.381"/>
</g>
<!-- Node5 -->
<g id="node5" class="node"><title>Node5</title>
<g id="a_node5"><a xlink:href="class_ogre_1_1_font.html" target="_top" xlink:title="Class representing a font in the system. ">
<polygon fill="none" stroke="black" points="282.5,-304.5 282.5,-323.5 345.5,-323.5 345.5,-304.5 282.5,-304.5"/>
<text text-anchor="middle" x="314" y="-311.5" font-family="Helvetica,sans-Serif" font-size="10.00">Ogre::Font</text>
</a>
</g>
</g>
<!-- Node1&#45;&gt;Node5 -->
<g id="edge4" class="edge"><title>Node1&#45;&gt;Node5</title>
<path fill="none" stroke="midnightblue" d="M206.386,-254.329C221.626,-266.617 243.761,-283.286 265,-295 271.357,-298.506 278.497,-301.695 285.287,-304.418"/>
<polygon fill="midnightblue" stroke="midnightblue" points="208.22,-251.307 198.268,-247.671 203.781,-256.719 208.22,-251.307"/>
</g>
<!-- Node6 -->
<g id="node6" class="node"><title>Node6</title>
<g id="a_node6"><a xlink:href="class_ogre_1_1_gpu_program.html" target="_top" xlink:title="Defines a program which runs on the GPU such as a vertex or fragment program. ">
<polygon fill="none" stroke="black" points="265,-266.5 265,-285.5 363,-285.5 363,-266.5 265,-266.5"/>
<text text-anchor="middle" x="314" y="-273.5" font-family="Helvetica,sans-Serif" font-size="10.00">Ogre::GpuProgram</text>
</a>
</g>
</g>
<!-- Node1&#45;&gt;Node6 -->
<g id="edge5" class="edge"><title>Node1&#45;&gt;Node6</title>
<path fill="none" stroke="midnightblue" d="M228.564,-250.535C245.705,-255.705 265.25,-261.599 281.215,-266.414"/>
<polygon fill="midnightblue" stroke="midnightblue" points="229.38,-247.126 218.795,-247.589 227.359,-253.827 229.38,-247.126"/>
</g>
<!-- Node22 -->
<g id="node22" class="node"><title>Node22</title>
<g id="a_node22"><a xlink:href="class_ogre_1_1_material.html" target="_top" xlink:title="Class encapsulates rendering properties of an object. ">
<polygon fill="none" stroke="black" points="275,-228.5 275,-247.5 353,-247.5 353,-228.5 275,-228.5"/>
<text text-anchor="middle" x="314" y="-235.5" font-family="Helvetica,sans-Serif" font-size="10.00">Ogre::Material</text>
</a>
</g>
</g>
<!-- Node1&#45;&gt;Node22 -->
<g id="edge21" class="edge"><title>Node1&#45;&gt;Node22</title>
<path fill="none" stroke="midnightblue" d="M239.535,-238C251.371,-238 263.715,-238 274.831,-238"/>
<polygon fill="midnightblue" stroke="midnightblue" points="239.307,-234.5 229.307,-238 239.307,-241.5 239.307,-234.5"/>
</g>
<!-- Node23 -->
<g id="node23" class="node"><title>Node23</title>
<g id="a_node23"><a xlink:href="class_ogre_1_1_mesh.html" target="_top" xlink:title="Resource holding data about 3D mesh. ">
<polygon fill="none" stroke="black" points="280,-190.5 280,-209.5 348,-209.5 348,-190.5 280,-190.5"/>
<text text-anchor="middle" x="314" y="-197.5" font-family="Helvetica,sans-Serif" font-size="10.00">Ogre::Mesh</text>
</a>
</g>
</g>
<!-- Node1&#45;&gt;Node23 -->
<g id="edge22" class="edge"><title>Node1&#45;&gt;Node23</title>
<path fill="none" stroke="midnightblue" d="M228.564,-225.465C245.705,-220.295 265.25,-214.401 281.215,-209.586"/>
<polygon fill="midnightblue" stroke="midnightblue" points="227.359,-222.173 218.795,-228.411 229.38,-228.874 227.359,-222.173"/>
</g>
<!-- Node25 -->
<g id="node25" class="node"><title>Node25</title>
<g id="a_node25"><a xlink:href="class_ogre_1_1_skeleton.html" target="_top" xlink:title="A collection of Bone objects used to animate a skinned mesh. ">
<polygon fill="none" stroke="black" points="273,-152.5 273,-171.5 355,-171.5 355,-152.5 273,-152.5"/>
<text text-anchor="middle" x="314" y="-159.5" font-family="Helvetica,sans-Serif" font-size="10.00">Ogre::Skeleton</text>
</a>
</g>
</g>
<!-- Node1&#45;&gt;Node25 -->
<g id="edge24" class="edge"><title>Node1&#45;&gt;Node25</title>
<path fill="none" stroke="midnightblue" d="M206.386,-221.671C221.626,-209.383 243.761,-192.714 265,-181 271.357,-177.494 278.497,-174.305 285.287,-171.582"/>
<polygon fill="midnightblue" stroke="midnightblue" points="203.781,-219.281 198.268,-228.329 208.22,-224.693 203.781,-219.281"/>
</g>
<!-- Node27 -->
<g id="node27" class="node"><title>Node27</title>
<g id="a_node27"><a xlink:href="class_ogre_1_1_texture.html" target="_top" xlink:title="Abstract class representing a Texture resource. ">
<polygon fill="none" stroke="black" points="275.5,-76.5 275.5,-95.5 352.5,-95.5 352.5,-76.5 275.5,-76.5"/>
<text text-anchor="middle" x="314" y="-83.5" font-family="Helvetica,sans-Serif" font-size="10.00">Ogre::Texture</text>
</a>
</g>
</g>
<!-- Node1&#45;&gt;Node27 -->
<g id="edge26" class="edge"><title>Node1&#45;&gt;Node27</title>
<path fill="none" stroke="midnightblue" d="M201.34,-220.401C216.938,-201.291 242.638,-169.893 265,-143 278.896,-126.288 295.226,-106.963 304.81,-95.6513"/>
<polygon fill="midnightblue" stroke="midnightblue" points="198.541,-218.296 194.933,-228.257 203.965,-222.72 198.541,-218.296"/>
</g>
<!-- Node2 -->
<g id="node2" class="node"><title>Node2</title>
<g id="a_node2"><a xlink:href="class_ogre_1_1_string_interface.html" target="_top" xlink:title="Class defining the common interface which classes can use to present a reflection&#45;style, self&#45;defining parameter set to callers. ">
<polygon fill="none" stroke="black" points="0,-247.5 0,-266.5 107,-266.5 107,-247.5 0,-247.5"/>
<text text-anchor="middle" x="53.5" y="-254.5" font-family="Helvetica,sans-Serif" font-size="10.00">Ogre::StringInterface</text>
</a>
</g>
</g>
<!-- Node2&#45;&gt;Node1 -->
<g id="edge1" class="edge"><title>Node2&#45;&gt;Node1</title>
<path fill="none" stroke="midnightblue" d="M117.331,-247.852C126.011,-246.588 134.749,-245.316 142.929,-244.125"/>
<polygon fill="midnightblue" stroke="midnightblue" points="116.595,-244.422 107.203,-249.327 117.603,-251.349 116.595,-244.422"/>
</g>
<!-- Node3 -->
<g id="node3" class="node"><title>Node3</title>
<g id="a_node3"><a xlink:href="class_ogre_1_1_allocated_object.html" target="_top" xlink:title="Superclass for all objects that wish to use custom memory allocators when their new / delete operator...">
<polygon fill="none" stroke="black" points="13.5,-209.5 13.5,-228.5 93.5,-228.5 93.5,-209.5 13.5,-209.5"/>
<text text-anchor="middle" x="53.5" y="-216.5" font-family="Helvetica,sans-Serif" font-size="10.00">ResourceAlloc</text>
</a>
</g>
</g>
<!-- Node3&#45;&gt;Node1 -->
<g id="edge2" class="edge"><title>Node3&#45;&gt;Node1</title>
<path fill="none" stroke="midnightblue" d="M103.713,-226.165C116.542,-228.033 130.253,-230.029 142.69,-231.84"/>
<polygon fill="midnightblue" stroke="midnightblue" points="104.054,-222.678 93.6543,-224.701 103.046,-229.605 104.054,-222.678"/>
</g>
<!-- Node7 -->
<g id="node7" class="node"><title>Node7</title>
<g id="a_node7"><a xlink:href="class_ogre_1_1_d3_d9_gpu_program.html" target="_top" xlink:title="Direct3D implementation of a few things common to low&#45;level vertex &amp; fragment programs. ">
<polygon fill="none" stroke="black" points="408,-437.5 408,-456.5 532,-456.5 532,-437.5 408,-437.5"/>
<text text-anchor="middle" x="470" y="-444.5" font-family="Helvetica,sans-Serif" font-size="10.00">Ogre::D3D9GpuProgram</text>
</a>
</g>
</g>
<!-- Node6&#45;&gt;Node7 -->
<g id="edge6" class="edge"><title>Node6&#45;&gt;Node7</title>
<path fill="none" stroke="midnightblue" d="M358.42,-291.001C360.047,-292.233 361.585,-293.564 363,-295 394.692,-327.161 372.588,-353.378 399,-390 413.576,-410.211 437.049,-427.304 452.744,-437.356"/>
<polygon fill="midnightblue" stroke="midnightblue" points="360.038,-287.887 349.688,-285.622 356.367,-293.847 360.038,-287.887"/>
</g>
<!-- Node10 -->
<g id="node10" class="node"><title>Node10</title>
<g id="a_node10"><a xlink:href="class_ogre_1_1_g_l_e_s2_gpu_program.html" target="_top" xlink:title="Generalised low&#45;level GL program, can be applied to multiple types (eg ARB and NV) ...">
<polygon fill="none" stroke="black" points="405,-361.5 405,-380.5 535,-380.5 535,-361.5 405,-361.5"/>
<text text-anchor="middle" x="470" y="-368.5" font-family="Helvetica,sans-Serif" font-size="10.00">Ogre::GLES2GpuProgram</text>
</a>
</g>
</g>
<!-- Node6&#45;&gt;Node10 -->
<g id="edge9" class="edge"><title>Node6&#45;&gt;Node10</title>
<path fill="none" stroke="midnightblue" d="M354.251,-289.845C357.298,-291.425 360.253,-293.142 363,-295 382.271,-308.033 380.548,-318.83 399,-333 414.025,-344.538 433.016,-354.61 447.425,-361.48"/>
<polygon fill="midnightblue" stroke="midnightblue" points="355.5,-286.566 344.956,-285.521 352.547,-292.913 355.5,-286.566"/>
</g>
<!-- Node12 -->
<g id="node12" class="node"><title>Node12</title>
<g id="a_node12"><a xlink:href="class_ogre_1_1_g_l_gpu_program.html" target="_top" xlink:title="Generalised low&#45;level GL program, can be applied to multiple types (eg ARB and NV) ...">
<polygon fill="none" stroke="black" points="414.5,-304.5 414.5,-323.5 525.5,-323.5 525.5,-304.5 414.5,-304.5"/>
<text text-anchor="middle" x="470" y="-311.5" font-family="Helvetica,sans-Serif" font-size="10.00">Ogre::GLGpuProgram</text>
</a>
</g>
</g>
<!-- Node6&#45;&gt;Node12 -->
<g id="edge11" class="edge"><title>Node6&#45;&gt;Node12</title>
<path fill="none" stroke="midnightblue" d="M363.794,-288.04C385.308,-293.349 410.232,-299.499 430.419,-304.48"/>
<polygon fill="midnightblue" stroke="midnightblue" points="364.408,-284.587 353.861,-285.589 362.731,-291.383 364.408,-284.587"/>
</g>
<!-- Node16 -->
<g id="node16" class="node"><title>Node16</title>
<g id="a_node16"><a xlink:href="class_ogre_1_1_high_level_gpu_program.html" target="_top" xlink:title="Abstract base class representing a high&#45;level program (a vertex or fragment program). ">
<polygon fill="none" stroke="black" points="399,-228.5 399,-247.5 541,-247.5 541,-228.5 399,-228.5"/>
<text text-anchor="middle" x="470" y="-235.5" font-family="Helvetica,sans-Serif" font-size="10.00">Ogre::HighLevelGpuProgram</text>
</a>
</g>
</g>
<!-- Node6&#45;&gt;Node16 -->
<g id="edge15" class="edge"><title>Node6&#45;&gt;Node16</title>
<path fill="none" stroke="midnightblue" d="M363.794,-263.96C385.308,-258.651 410.232,-252.501 430.419,-247.52"/>
<polygon fill="midnightblue" stroke="midnightblue" points="362.731,-260.617 353.861,-266.411 364.408,-267.413 362.731,-260.617"/>
</g>
<!-- Node8 -->
<g id="node8" class="node"><title>Node8</title>
<g id="a_node8"><a xlink:href="class_ogre_1_1_d3_d9_gpu_fragment_program.html" target="_top" xlink:title="Direct3D implementation of low&#45;level fragment programs. ">
<polygon fill="none" stroke="black" points="577,-475.5 577,-494.5 742,-494.5 742,-475.5 577,-475.5"/>
<text text-anchor="middle" x="659.5" y="-482.5" font-family="Helvetica,sans-Serif" font-size="10.00">Ogre::D3D9GpuFragmentProgram</text>
</a>
</g>
</g>
<!-- Node7&#45;&gt;Node8 -->
<g id="edge7" class="edge"><title>Node7&#45;&gt;Node8</title>
<path fill="none" stroke="midnightblue" d="M528.284,-458.61C554.951,-464.014 586.281,-470.364 611.526,-475.48"/>
<polygon fill="midnightblue" stroke="midnightblue" points="528.81,-455.145 518.314,-456.589 527.42,-462.006 528.81,-455.145"/>
</g>
<!-- Node9 -->
<g id="node9" class="node"><title>Node9</title>
<g id="a_node9"><a xlink:href="class_ogre_1_1_d3_d9_gpu_vertex_program.html" target="_top" xlink:title="Direct3D implementation of low&#45;level vertex programs. ">
<polygon fill="none" stroke="black" points="583.5,-437.5 583.5,-456.5 735.5,-456.5 735.5,-437.5 583.5,-437.5"/>
<text text-anchor="middle" x="659.5" y="-444.5" font-family="Helvetica,sans-Serif" font-size="10.00">Ogre::D3D9GpuVertexProgram</text>
</a>
</g>
</g>
<!-- Node7&#45;&gt;Node9 -->
<g id="edge8" class="edge"><title>Node7&#45;&gt;Node9</title>
<path fill="none" stroke="midnightblue" d="M542.266,-447C555.707,-447 569.804,-447 583.36,-447"/>
<polygon fill="midnightblue" stroke="midnightblue" points="542.135,-443.5 532.135,-447 542.135,-450.5 542.135,-443.5"/>
</g>
<!-- Node11 -->
<g id="node11" class="node"><title>Node11</title>
<g id="a_node11"><a xlink:href="class_ogre_1_1_g_l_s_l_e_s_gpu_program.html" target="_top" xlink:title="GLSL ES low level compiled shader object &#45; this class is used to get at the linked program object and...">
<polygon fill="none" stroke="black" points="591,-399.5 591,-418.5 728,-418.5 728,-399.5 591,-399.5"/>
<text text-anchor="middle" x="659.5" y="-406.5" font-family="Helvetica,sans-Serif" font-size="10.00">Ogre::GLSLESGpuProgram</text>
</a>
</g>
</g>
<!-- Node10&#45;&gt;Node11 -->
<g id="edge10" class="edge"><title>Node10&#45;&gt;Node11</title>
<path fill="none" stroke="midnightblue" d="M528.284,-382.61C554.951,-388.014 586.281,-394.364 611.526,-399.48"/>
<polygon fill="midnightblue" stroke="midnightblue" points="528.81,-379.145 518.314,-380.589 527.42,-386.006 528.81,-379.145"/>
</g>
<!-- Node13 -->
<g id="node13" class="node"><title>Node13</title>
<g id="a_node13"><a xlink:href="class_ogre_1_1_g_l_arb_gpu_program.html" target="_top" xlink:title="Specialisation of the GL low&#45;level program for ARB programs. ">
<polygon fill="none" stroke="black" points="596.5,-361.5 596.5,-380.5 722.5,-380.5 722.5,-361.5 596.5,-361.5"/>
<text text-anchor="middle" x="659.5" y="-368.5" font-family="Helvetica,sans-Serif" font-size="10.00">Ogre::GLArbGpuProgram</text>
</a>
</g>
</g>
<!-- Node12&#45;&gt;Node13 -->
<g id="edge12" class="edge"><title>Node12&#45;&gt;Node13</title>
<path fill="none" stroke="midnightblue" d="M504.745,-327.221C525.409,-335.035 552.505,-344.78 577,-352 588.706,-355.45 601.505,-358.682 613.419,-361.467"/>
<polygon fill="midnightblue" stroke="midnightblue" points="505.747,-323.857 495.156,-323.559 503.25,-330.396 505.747,-323.857"/>
</g>
<!-- Node14 -->
<g id="node14" class="node"><title>Node14</title>
<g id="a_node14"><a xlink:href="class_ogre_1_1_g_l_gpu_nvparse_program.html" target="_top" xlink:title="Ogre::GLGpuNvparseProgram">
<polygon fill="none" stroke="black" points="585.5,-323.5 585.5,-342.5 733.5,-342.5 733.5,-323.5 585.5,-323.5"/>
<text text-anchor="middle" x="659.5" y="-330.5" font-family="Helvetica,sans-Serif" font-size="10.00">Ogre::GLGpuNvparseProgram</text>
</a>
</g>
</g>
<!-- Node12&#45;&gt;Node14 -->
<g id="edge13" class="edge"><title>Node12&#45;&gt;Node14</title>
<path fill="none" stroke="midnightblue" d="M535.978,-320.584C551.864,-322.194 568.97,-323.928 585.215,-325.574"/>
<polygon fill="midnightblue" stroke="midnightblue" points="536.039,-317.073 525.737,-319.547 535.333,-324.037 536.039,-317.073"/>
</g>
<!-- Node15 -->
<g id="node15" class="node"><title>Node15</title>
<g id="a_node15"><a xlink:href="class_ogre_1_1_g_l_s_l_1_1_g_l_s_l_gpu_program.html" target="_top" xlink:title="GLSL low level compiled shader object &#45; this class is used to get at the linked program object and pr...">
<polygon fill="none" stroke="black" points="582.5,-285.5 582.5,-304.5 736.5,-304.5 736.5,-285.5 582.5,-285.5"/>
<text text-anchor="middle" x="659.5" y="-292.5" font-family="Helvetica,sans-Serif" font-size="10.00">Ogre::GLSL::GLSLGpuProgram</text>
</a>
</g>
</g>
<!-- Node12&#45;&gt;Node15 -->
<g id="edge14" class="edge"><title>Node12&#45;&gt;Node15</title>
<path fill="none" stroke="midnightblue" d="M535.926,-307.421C550.926,-305.901 567.016,-304.27 582.444,-302.707"/>
<polygon fill="midnightblue" stroke="midnightblue" points="535.333,-303.963 525.737,-308.453 536.039,-310.927 535.333,-303.963"/>
</g>
<!-- Node17 -->
<g id="node17" class="node"><title>Node17</title>
<g id="a_node17"><a xlink:href="class_ogre_1_1_d3_d11_h_l_s_l_program.html" target="_top" xlink:title="Specialization of HighLevelGpuProgram to provide support for D3D11 High&#45;Level Shader Language (HLSL)...">
<polygon fill="none" stroke="black" points="591.5,-247.5 591.5,-266.5 727.5,-266.5 727.5,-247.5 591.5,-247.5"/>
<text text-anchor="middle" x="659.5" y="-254.5" font-family="Helvetica,sans-Serif" font-size="10.00">Ogre::D3D11HLSLProgram</text>
</a>
</g>
</g>
<!-- Node16&#45;&gt;Node17 -->
<g id="edge16" class="edge"><title>Node16&#45;&gt;Node17</title>
<path fill="none" stroke="midnightblue" d="M551.21,-246.128C564.57,-247.482 578.304,-248.873 591.297,-250.19"/>
<polygon fill="midnightblue" stroke="midnightblue" points="551.387,-242.628 541.085,-245.102 550.681,-249.592 551.387,-242.628"/>
</g>
<!-- Node18 -->
<g id="node18" class="node"><title>Node18</title>
<g id="a_node18"><a xlink:href="class_ogre_1_1_d3_d9_h_l_s_l_program.html" target="_top" xlink:title="Specialisation of HighLevelGpuProgram to provide support for D3D9 High&#45;Level Shader Language (HLSL)...">
<polygon fill="none" stroke="black" points="594,-209.5 594,-228.5 725,-228.5 725,-209.5 594,-209.5"/>
<text text-anchor="middle" x="659.5" y="-216.5" font-family="Helvetica,sans-Serif" font-size="10.00">Ogre::D3D9HLSLProgram</text>
</a>
</g>
</g>
<!-- Node16&#45;&gt;Node18 -->
<g id="edge17" class="edge"><title>Node16&#45;&gt;Node18</title>
<path fill="none" stroke="midnightblue" d="M551.314,-229.862C565.49,-228.425 580.085,-226.946 593.765,-225.56"/>
<polygon fill="midnightblue" stroke="midnightblue" points="550.681,-226.408 541.085,-230.898 551.387,-233.372 550.681,-226.408"/>
</g>
<!-- Node19 -->
<g id="node19" class="node"><title>Node19</title>
<g id="a_node19"><a xlink:href="class_ogre_1_1_g_l_s_l_1_1_g_l_s_l_program.html" target="_top" xlink:title="Specialisation of HighLevelGpuProgram to provide support for OpenGL Shader Language (GLSL)...">
<polygon fill="none" stroke="black" points="591.5,-171.5 591.5,-190.5 727.5,-190.5 727.5,-171.5 591.5,-171.5"/>
<text text-anchor="middle" x="659.5" y="-178.5" font-family="Helvetica,sans-Serif" font-size="10.00">Ogre::GLSL::GLSLProgram</text>
</a>
</g>
</g>
<!-- Node16&#45;&gt;Node19 -->
<g id="edge18" class="edge"><title>Node16&#45;&gt;Node19</title>
<path fill="none" stroke="midnightblue" d="M522.208,-225.512C528.605,-223.541 535.003,-221.363 541,-219 557.832,-212.368 560.051,-206.328 577,-200 586.936,-196.29 597.833,-193.151 608.334,-190.559"/>
<polygon fill="midnightblue" stroke="midnightblue" points="520.824,-222.27 512.211,-228.439 522.791,-228.988 520.824,-222.27"/>
</g>
<!-- Node20 -->
<g id="node20" class="node"><title>Node20</title>
<g id="a_node20"><a xlink:href="class_ogre_1_1_g_l_s_l_shader.html" target="_top" xlink:title="Specialisation of HighLevelGpuProgram to encapsulate shader objects obtained from compiled shaders wr...">
<polygon fill="none" stroke="black" points="610,-133.5 610,-152.5 709,-152.5 709,-133.5 610,-133.5"/>
<text text-anchor="middle" x="659.5" y="-140.5" font-family="Helvetica,sans-Serif" font-size="10.00">Ogre::GLSLShader</text>
</a>
</g>
</g>
<!-- Node16&#45;&gt;Node20 -->
<g id="edge19" class="edge"><title>Node16&#45;&gt;Node20</title>
<path fill="none" stroke="midnightblue" d="M532.604,-224.259C535.546,-222.692 538.367,-220.945 541,-219 565.1,-201.196 552.584,-179.367 577,-162 586.59,-155.179 598.27,-150.772 609.758,-147.935"/>
<polygon fill="midnightblue" stroke="midnightblue" points="531.106,-221.095 523.475,-228.445 534.024,-227.458 531.106,-221.095"/>
</g>
<!-- Node21 -->
<g id="node21" class="node"><title>Node21</title>
<g id="a_node21"><a xlink:href="class_ogre_1_1_unified_high_level_gpu_program.html" target="_top" xlink:title="Specialisation of HighLevelGpuProgram which just delegates its implementation to one other high level...">
<polygon fill="none" stroke="black" points="591.5,-84 591.5,-114 727.5,-114 727.5,-84 591.5,-84"/>
<text text-anchor="start" x="599.5" y="-102" font-family="Helvetica,sans-Serif" font-size="10.00">Ogre::UnifiedHighLevelGpu</text>
<text text-anchor="middle" x="659.5" y="-91" font-family="Helvetica,sans-Serif" font-size="10.00">Program</text>
</a>
</g>
</g>
<!-- Node16&#45;&gt;Node21 -->
<g id="edge20" class="edge"><title>Node16&#45;&gt;Node21</title>
<path fill="none" stroke="midnightblue" d="M535.442,-223.365C537.396,-222.033 539.257,-220.581 541,-219 574.441,-188.661 544.058,-154.88 577,-124 581.211,-120.052 586.031,-116.728 591.175,-113.927"/>
<polygon fill="midnightblue" stroke="midnightblue" points="533.365,-220.518 526.371,-228.477 536.802,-226.617 533.365,-220.518"/>
</g>
<!-- Node24 -->
<g id="node24" class="node"><title>Node24</title>
<g id="a_node24"><a xlink:href="class_ogre_1_1_patch_mesh.html" target="_top" xlink:title="Patch specialisation of Mesh. ">
<polygon fill="none" stroke="black" points="423.5,-190.5 423.5,-209.5 516.5,-209.5 516.5,-190.5 423.5,-190.5"/>
<text text-anchor="middle" x="470" y="-197.5" font-family="Helvetica,sans-Serif" font-size="10.00">Ogre::PatchMesh</text>
</a>
</g>
</g>
<!-- Node23&#45;&gt;Node24 -->
<g id="edge23" class="edge"><title>Node23&#45;&gt;Node24</title>
<path fill="none" stroke="midnightblue" d="M358.273,-200C378.605,-200 402.847,-200 423.458,-200"/>
<polygon fill="midnightblue" stroke="midnightblue" points="358.037,-196.5 348.037,-200 358.037,-203.5 358.037,-196.5"/>
</g>
<!-- Node26 -->
<g id="node26" class="node"><title>Node26</title>
<g id="a_node26"><a xlink:href="class_ogre_1_1_skeleton_instance.html" target="_top" xlink:title="A SkeletonInstance is a single instance of a Skeleton used by a world object. ">
<polygon fill="none" stroke="black" points="410.5,-152.5 410.5,-171.5 529.5,-171.5 529.5,-152.5 410.5,-152.5"/>
<text text-anchor="middle" x="470" y="-159.5" font-family="Helvetica,sans-Serif" font-size="10.00">Ogre::SkeletonInstance</text>
</a>
</g>
</g>
<!-- Node25&#45;&gt;Node26 -->
<g id="edge25" class="edge"><title>Node25&#45;&gt;Node26</title>
<path fill="none" stroke="midnightblue" d="M365.249,-162C379.634,-162 395.441,-162 410.286,-162"/>
<polygon fill="midnightblue" stroke="midnightblue" points="365.06,-158.5 355.06,-162 365.06,-165.5 365.06,-158.5"/>
</g>
<!-- Node28 -->
<g id="node28" class="node"><title>Node28</title>
<g id="a_node28"><a xlink:href="class_ogre_1_1_d3_d11_texture.html" target="_top" xlink:title="Specialisation of Texture for D3D11. ">
<polygon fill="none" stroke="black" points="416.5,-114.5 416.5,-133.5 523.5,-133.5 523.5,-114.5 416.5,-114.5"/>
<text text-anchor="middle" x="470" y="-121.5" font-family="Helvetica,sans-Serif" font-size="10.00">Ogre::D3D11Texture</text>
</a>
</g>
</g>
<!-- Node27&#45;&gt;Node28 -->
<g id="edge27" class="edge"><title>Node27&#45;&gt;Node28</title>
<path fill="none" stroke="midnightblue" d="M362.4,-97.6961C384.211,-103.078 409.76,-109.382 430.378,-114.47"/>
<polygon fill="midnightblue" stroke="midnightblue" points="363.22,-94.2935 352.673,-95.2958 361.543,-101.09 363.22,-94.2935"/>
</g>
<!-- Node29 -->
<g id="node29" class="node"><title>Node29</title>
<g id="a_node29"><a xlink:href="class_ogre_1_1_d3_d9_texture.html" target="_top" xlink:title="Ogre::D3D9Texture">
<polygon fill="none" stroke="black" points="419,-76.5 419,-95.5 521,-95.5 521,-76.5 419,-76.5"/>
<text text-anchor="middle" x="470" y="-83.5" font-family="Helvetica,sans-Serif" font-size="10.00">Ogre::D3D9Texture</text>
</a>
</g>
</g>
<!-- Node27&#45;&gt;Node29 -->
<g id="edge28" class="edge"><title>Node27&#45;&gt;Node29</title>
<path fill="none" stroke="midnightblue" d="M362.843,-86C380.656,-86 400.912,-86 418.921,-86"/>
<polygon fill="midnightblue" stroke="midnightblue" points="362.673,-82.5001 352.673,-86 362.673,-89.5001 362.673,-82.5001"/>
</g>
<!-- Node30 -->
<g id="node30" class="node"><title>Node30</title>
<g id="a_node30"><a xlink:href="class_ogre_1_1_g_l3_plus_texture.html" target="_top" xlink:title="Ogre::GL3PlusTexture">
<polygon fill="none" stroke="black" points="413,-38.5 413,-57.5 527,-57.5 527,-38.5 413,-38.5"/>
<text text-anchor="middle" x="470" y="-45.5" font-family="Helvetica,sans-Serif" font-size="10.00">Ogre::GL3PlusTexture</text>
</a>
</g>
</g>
<!-- Node27&#45;&gt;Node30 -->
<g id="edge29" class="edge"><title>Node27&#45;&gt;Node30</title>
<path fill="none" stroke="midnightblue" d="M362.4,-74.3039C384.211,-68.9219 409.76,-62.6176 430.378,-57.5302"/>
<polygon fill="midnightblue" stroke="midnightblue" points="361.543,-70.9103 352.673,-76.7042 363.22,-77.7065 361.543,-70.9103"/>
</g>
<!-- Node31 -->
<g id="node31" class="node"><title>Node31</title>
<g id="a_node31"><a xlink:href="class_ogre_1_1_g_l_texture.html" target="_top" xlink:title="Ogre::GLTexture">
<polygon fill="none" stroke="black" points="425.5,-0.5 425.5,-19.5 514.5,-19.5 514.5,-0.5 425.5,-0.5"/>
<text text-anchor="middle" x="470" y="-7.5" font-family="Helvetica,sans-Serif" font-size="10.00">Ogre::GLTexture</text>
</a>
</g>
</g>
<!-- Node27&#45;&gt;Node31 -->
<g id="edge30" class="edge"><title>Node27&#45;&gt;Node31</title>
<path fill="none" stroke="midnightblue" d="M334.695,-69.8503C351.039,-57.1573 375.353,-39.8628 399,-29 407.239,-25.2153 416.38,-22.0565 425.265,-19.471"/>
<polygon fill="midnightblue" stroke="midnightblue" points="332.149,-67.4021 326.489,-76.3585 336.499,-72.8865 332.149,-67.4021"/>
</g>
</g>
</svg>
