<?xml version="1.0" encoding="UTF-8" standalone="no"?>
<!DOCTYPE svg PUBLIC "-//W3C//DTD SVG 1.1//EN"
 "http://www.w3.org/Graphics/SVG/1.1/DTD/svg11.dtd">
<!-- Generated by graphviz version 2.38.0 (20140413.2041)
 -->
<!-- Title: Ogre::TerrainMaterialGeneratorA::SM2Profile::ShaderHelperGLSLES Pages: 1 -->
<svg width="189pt" height="162pt"
 viewBox="0.00 0.00 189.00 162.00" xmlns="http://www.w3.org/2000/svg" xmlns:xlink="http://www.w3.org/1999/xlink">
<g id="graph0" class="graph" transform="scale(1 1) rotate(0) translate(4 158)">
<title>Ogre::TerrainMaterialGeneratorA::SM2Profile::ShaderHelperGLSLES</title>
<!-- Node1 -->
<g id="node1" class="node"><title>Node1</title>
<polygon fill="#bfbfbf" stroke="black" points="0,-0.5 0,-30.5 181,-30.5 181,-0.5 0,-0.5"/>
<text text-anchor="start" x="8" y="-18.5" font-family="Helvetica,sans-Serif" font-size="10.00">Ogre::TerrainMaterialGenerator</text>
<text text-anchor="middle" x="90.5" y="-7.5" font-family="Helvetica,sans-Serif" font-size="10.00">A::SM2Profile::ShaderHelperGLSLES</text>
</g>
<!-- Node2 -->
<g id="node2" class="node"><title>Node2</title>
<g id="a_node2"><a xlink:href="class_ogre_1_1_terrain_material_generator_a_1_1_s_m2_profile_1_1_shader_helper.html" target="_top" xlink:title="Interface definition for helper class to generate shaders. ">
<polygon fill="none" stroke="black" points="15,-67.5 15,-97.5 166,-97.5 166,-67.5 15,-67.5"/>
<text text-anchor="start" x="23" y="-85.5" font-family="Helvetica,sans-Serif" font-size="10.00">Ogre::TerrainMaterialGenerator</text>
<text text-anchor="middle" x="90.5" y="-74.5" font-family="Helvetica,sans-Serif" font-size="10.00">A::SM2Profile::ShaderHelper</text>
</a>
</g>
</g>
<!-- Node2&#45;&gt;Node1 -->
<g id="edge1" class="edge"><title>Node2&#45;&gt;Node1</title>
<path fill="none" stroke="midnightblue" d="M90.5,-57.1081C90.5,-48.1539 90.5,-38.3227 90.5,-30.5765"/>
<polygon fill="midnightblue" stroke="midnightblue" points="87.0001,-57.3959 90.5,-67.396 94.0001,-57.396 87.0001,-57.3959"/>
</g>
<!-- Node3 -->
<g id="node3" class="node"><title>Node3</title>
<g id="a_node3"><a xlink:href="class_ogre_1_1_allocated_object.html" target="_top" xlink:title="Superclass for all objects that wish to use custom memory allocators when their new / delete operator...">
<polygon fill="none" stroke="black" points="56.5,-134.5 56.5,-153.5 124.5,-153.5 124.5,-134.5 56.5,-134.5"/>
<text text-anchor="middle" x="90.5" y="-141.5" font-family="Helvetica,sans-Serif" font-size="10.00">TerrainAlloc</text>
</a>
</g>
</g>
<!-- Node3&#45;&gt;Node2 -->
<g id="edge2" class="edge"><title>Node3&#45;&gt;Node2</title>
<path fill="none" stroke="midnightblue" d="M90.5,-124.235C90.5,-115.586 90.5,-105.497 90.5,-97.523"/>
<polygon fill="midnightblue" stroke="midnightblue" points="87.0001,-124.475 90.5,-134.475 94.0001,-124.475 87.0001,-124.475"/>
</g>
</g>
</svg>
