<?xml version="1.0" encoding="UTF-8" standalone="no"?>
<!DOCTYPE svg PUBLIC "-//W3C//DTD SVG 1.1//EN"
 "http://www.w3.org/Graphics/SVG/1.1/DTD/svg11.dtd">
<!-- Generated by graphviz version 2.38.0 (20140413.2041)
 -->
<!-- Title: Ogre::Any::placeholder Pages: 1 -->
<svg width="298pt" height="162pt"
 viewBox="0.00 0.00 297.50 162.00" xmlns="http://www.w3.org/2000/svg" xmlns:xlink="http://www.w3.org/1999/xlink">
<g id="graph0" class="graph" transform="scale(1 1) rotate(0) translate(4 158)">
<title>Ogre::Any::placeholder</title>
<!-- Node1 -->
<g id="node1" class="node"><title>Node1</title>
<polygon fill="#bfbfbf" stroke="black" points="68.5,-134.5 68.5,-153.5 184.5,-153.5 184.5,-134.5 68.5,-134.5"/>
<text text-anchor="middle" x="126.5" y="-141.5" font-family="Helvetica,sans-Serif" font-size="10.00">Ogre::Any::placeholder</text>
</g>
<!-- Node2 -->
<g id="node2" class="node"><title>Node2</title>
<g id="a_node2"><a xlink:href="class_ogre_1_1_any_1_1holder.html" target="_top" xlink:title="Ogre::Any::holder\&lt;\l ValueType \&gt;">
<polygon fill="none" stroke="black" points="0,-67.5 0,-97.5 99,-97.5 99,-67.5 0,-67.5"/>
<text text-anchor="start" x="8" y="-85.5" font-family="Helvetica,sans-Serif" font-size="10.00">Ogre::Any::holder&lt;</text>
<text text-anchor="middle" x="49.5" y="-74.5" font-family="Helvetica,sans-Serif" font-size="10.00"> ValueType &gt;</text>
</a>
</g>
</g>
<!-- Node1&#45;&gt;Node2 -->
<g id="edge1" class="edge"><title>Node1&#45;&gt;Node2</title>
<path fill="none" stroke="midnightblue" d="M107.341,-128.195C95.1991,-118.813 79.5898,-106.751 67.6474,-97.523"/>
<polygon fill="midnightblue" stroke="midnightblue" points="105.415,-131.13 115.468,-134.475 109.695,-125.591 105.415,-131.13"/>
</g>
<!-- Node3 -->
<g id="node3" class="node"><title>Node3</title>
<g id="a_node3"><a xlink:href="class_ogre_1_1_any_numeric_1_1numplaceholder.html" target="_top" xlink:title="Ogre::AnyNumeric::numplaceholder">
<polygon fill="none" stroke="black" points="117.5,-73 117.5,-92 289.5,-92 289.5,-73 117.5,-73"/>
<text text-anchor="middle" x="203.5" y="-80" font-family="Helvetica,sans-Serif" font-size="10.00">Ogre::AnyNumeric::numplaceholder</text>
</a>
</g>
</g>
<!-- Node1&#45;&gt;Node3 -->
<g id="edge2" class="edge"><title>Node1&#45;&gt;Node3</title>
<path fill="none" stroke="midnightblue" d="M145.532,-128.294C160.302,-116.88 180.261,-101.458 192.488,-92.0091"/>
<polygon fill="midnightblue" stroke="midnightblue" points="143.305,-125.591 137.532,-134.475 147.585,-131.13 143.305,-125.591"/>
</g>
<!-- Node4 -->
<g id="node4" class="node"><title>Node4</title>
<g id="a_node4"><a xlink:href="class_ogre_1_1_any_numeric_1_1numholder.html" target="_top" xlink:title="Ogre::AnyNumeric::numholder\l\&lt; ValueType \&gt;">
<polygon fill="none" stroke="black" points="129,-0.5 129,-30.5 278,-30.5 278,-0.5 129,-0.5"/>
<text text-anchor="start" x="137" y="-18.5" font-family="Helvetica,sans-Serif" font-size="10.00">Ogre::AnyNumeric::numholder</text>
<text text-anchor="middle" x="203.5" y="-7.5" font-family="Helvetica,sans-Serif" font-size="10.00">&lt; ValueType &gt;</text>
</a>
</g>
</g>
<!-- Node3&#45;&gt;Node4 -->
<g id="edge3" class="edge"><title>Node3&#45;&gt;Node4</title>
<path fill="none" stroke="midnightblue" d="M203.5,-62.4107C203.5,-52.222 203.5,-39.901 203.5,-30.589"/>
<polygon fill="midnightblue" stroke="midnightblue" points="200,-62.7338 203.5,-72.7338 207,-62.7338 200,-62.7338"/>
</g>
</g>
</svg>
