<?xml version="1.0" encoding="UTF-8" standalone="no"?>
<!DOCTYPE svg PUBLIC "-//W3C//DTD SVG 1.1//EN"
 "http://www.w3.org/Graphics/SVG/1.1/DTD/svg11.dtd">
<!-- Generated by graphviz version 2.38.0 (20140413.2041)
 -->
<!-- Title: Ogre::D3D11RenderWindowSwapChainBased Pages: 1 -->
<svg width="356pt" height="330pt"
 viewBox="0.00 0.00 355.50 330.00" xmlns="http://www.w3.org/2000/svg" xmlns:xlink="http://www.w3.org/1999/xlink">
<g id="graph0" class="graph" transform="scale(1 1) rotate(0) translate(4 326)">
<title>Ogre::D3D11RenderWindowSwapChainBased</title>
<!-- Node1 -->
<g id="node1" class="node"><title>Node1</title>
<polygon fill="#bfbfbf" stroke="black" points="89,-67.5 89,-97.5 255,-97.5 255,-67.5 89,-67.5"/>
<text text-anchor="start" x="97" y="-85.5" font-family="Helvetica,sans-Serif" font-size="10.00">Ogre::D3D11RenderWindowSwap</text>
<text text-anchor="middle" x="172" y="-74.5" font-family="Helvetica,sans-Serif" font-size="10.00">ChainBased</text>
</g>
<!-- Node7 -->
<g id="node7" class="node"><title>Node7</title>
<g id="a_node7"><a xlink:href="class_ogre_1_1_d3_d11_render_window_core_window.html" target="_top" xlink:title="Ogre::D3D11RenderWindowCore\lWindow">
<polygon fill="none" stroke="black" points="0,-0.5 0,-30.5 162,-30.5 162,-0.5 0,-0.5"/>
<text text-anchor="start" x="8" y="-18.5" font-family="Helvetica,sans-Serif" font-size="10.00">Ogre::D3D11RenderWindowCore</text>
<text text-anchor="middle" x="81" y="-7.5" font-family="Helvetica,sans-Serif" font-size="10.00">Window</text>
</a>
</g>
</g>
<!-- Node1&#45;&gt;Node7 -->
<g id="edge6" class="edge"><title>Node1&#45;&gt;Node7</title>
<path fill="none" stroke="midnightblue" d="M143.932,-61.4511C129.932,-51.4517 113.339,-39.5995 100.707,-30.5765"/>
<polygon fill="midnightblue" stroke="midnightblue" points="142.083,-64.4316 152.254,-67.396 146.151,-58.7355 142.083,-64.4316"/>
</g>
<!-- Node8 -->
<g id="node8" class="node"><title>Node8</title>
<g id="a_node8"><a xlink:href="class_ogre_1_1_d3_d11_render_window_hwnd.html" target="_top" xlink:title="Ogre::D3D11RenderWindowHwnd">
<polygon fill="none" stroke="black" points="180.5,-6 180.5,-25 347.5,-25 347.5,-6 180.5,-6"/>
<text text-anchor="middle" x="264" y="-13" font-family="Helvetica,sans-Serif" font-size="10.00">Ogre::D3D11RenderWindowHwnd</text>
</a>
</g>
</g>
<!-- Node1&#45;&gt;Node8 -->
<g id="edge7" class="edge"><title>Node1&#45;&gt;Node8</title>
<path fill="none" stroke="midnightblue" d="M200.583,-61.3056C217.859,-49.0999 238.98,-34.1772 251.959,-25.007"/>
<polygon fill="midnightblue" stroke="midnightblue" points="198.11,-58.7671 191.963,-67.396 202.149,-64.4841 198.11,-58.7671"/>
</g>
<!-- Node2 -->
<g id="node2" class="node"><title>Node2</title>
<g id="a_node2"><a xlink:href="class_ogre_1_1_d3_d11_render_window_base.html" target="_top" xlink:title="Ogre::D3D11RenderWindowBase">
<polygon fill="none" stroke="black" points="90,-134.5 90,-153.5 254,-153.5 254,-134.5 90,-134.5"/>
<text text-anchor="middle" x="172" y="-141.5" font-family="Helvetica,sans-Serif" font-size="10.00">Ogre::D3D11RenderWindowBase</text>
</a>
</g>
</g>
<!-- Node2&#45;&gt;Node1 -->
<g id="edge1" class="edge"><title>Node2&#45;&gt;Node1</title>
<path fill="none" stroke="midnightblue" d="M172,-124.235C172,-115.586 172,-105.497 172,-97.523"/>
<polygon fill="midnightblue" stroke="midnightblue" points="168.5,-124.475 172,-134.475 175.5,-124.475 168.5,-124.475"/>
</g>
<!-- Node3 -->
<g id="node3" class="node"><title>Node3</title>
<g id="a_node3"><a xlink:href="class_ogre_1_1_render_window.html" target="_top" xlink:title="Manages the target rendering window. ">
<polygon fill="none" stroke="black" points="44,-190.5 44,-209.5 154,-209.5 154,-190.5 44,-190.5"/>
<text text-anchor="middle" x="99" y="-197.5" font-family="Helvetica,sans-Serif" font-size="10.00">Ogre::RenderWindow</text>
</a>
</g>
</g>
<!-- Node3&#45;&gt;Node2 -->
<g id="edge2" class="edge"><title>Node3&#45;&gt;Node2</title>
<path fill="none" stroke="midnightblue" d="M119.142,-184.101C132.279,-174.382 148.982,-162.027 160.058,-153.834"/>
<polygon fill="midnightblue" stroke="midnightblue" points="116.687,-181.563 110.729,-190.324 120.85,-187.191 116.687,-181.563"/>
</g>
<!-- Node4 -->
<g id="node4" class="node"><title>Node4</title>
<g id="a_node4"><a xlink:href="class_ogre_1_1_render_target.html" target="_top" xlink:title="A &#39;canvas&#39; which can receive the results of a rendering operation. ">
<polygon fill="none" stroke="black" points="47.5,-246.5 47.5,-265.5 150.5,-265.5 150.5,-246.5 47.5,-246.5"/>
<text text-anchor="middle" x="99" y="-253.5" font-family="Helvetica,sans-Serif" font-size="10.00">Ogre::RenderTarget</text>
</a>
</g>
</g>
<!-- Node4&#45;&gt;Node3 -->
<g id="edge3" class="edge"><title>Node4&#45;&gt;Node3</title>
<path fill="none" stroke="midnightblue" d="M99,-235.805C99,-226.91 99,-216.78 99,-209.751"/>
<polygon fill="midnightblue" stroke="midnightblue" points="95.5001,-236.083 99,-246.083 102.5,-236.083 95.5001,-236.083"/>
</g>
<!-- Node5 -->
<g id="node5" class="node"><title>Node5</title>
<g id="a_node5"><a xlink:href="class_ogre_1_1_allocated_object.html" target="_top" xlink:title="Superclass for all objects that wish to use custom memory allocators when their new / delete operator...">
<polygon fill="none" stroke="black" points="55.5,-302.5 55.5,-321.5 142.5,-321.5 142.5,-302.5 55.5,-302.5"/>
<text text-anchor="middle" x="99" y="-309.5" font-family="Helvetica,sans-Serif" font-size="10.00">RenderSysAlloc</text>
</a>
</g>
</g>
<!-- Node5&#45;&gt;Node4 -->
<g id="edge4" class="edge"><title>Node5&#45;&gt;Node4</title>
<path fill="none" stroke="midnightblue" d="M99,-291.805C99,-282.91 99,-272.78 99,-265.751"/>
<polygon fill="midnightblue" stroke="midnightblue" points="95.5001,-292.083 99,-302.083 102.5,-292.083 95.5001,-292.083"/>
</g>
<!-- Node6 -->
<g id="node6" class="node"><title>Node6</title>
<g id="a_node6"><a xlink:href="class_ogre_1_1_d3_d11_device_resource.html" target="_top" xlink:title="Represents a Direct3D rendering resource. ">
<polygon fill="none" stroke="black" points="172.5,-190.5 172.5,-209.5 319.5,-209.5 319.5,-190.5 172.5,-190.5"/>
<text text-anchor="middle" x="246" y="-197.5" font-family="Helvetica,sans-Serif" font-size="10.00">Ogre::D3D11DeviceResource</text>
</a>
</g>
</g>
<!-- Node6&#45;&gt;Node2 -->
<g id="edge5" class="edge"><title>Node6&#45;&gt;Node2</title>
<path fill="none" stroke="darkgreen" d="M225.966,-184.38C212.591,-174.62 195.441,-162.106 184.106,-153.834"/>
<polygon fill="darkgreen" stroke="darkgreen" points="223.97,-187.257 234.111,-190.324 228.096,-181.602 223.97,-187.257"/>
</g>
</g>
</svg>
