<?xml version="1.0" encoding="UTF-8" standalone="no"?>
<!DOCTYPE svg PUBLIC "-//W3C//DTD SVG 1.1//EN"
 "http://www.w3.org/Graphics/SVG/1.1/DTD/svg11.dtd">
<!-- Generated by graphviz version 2.38.0 (20140413.2041)
 -->
<!-- Title: Ogre::SceneManager::Listener Pages: 1 -->
<svg width="320pt" height="116pt"
 viewBox="0.00 0.00 320.00 116.00" xmlns="http://www.w3.org/2000/svg" xmlns:xlink="http://www.w3.org/1999/xlink">
<g id="graph0" class="graph" transform="scale(1 1) rotate(0) translate(4 112)">
<title>Ogre::SceneManager::Listener</title>
<!-- Node1 -->
<g id="node1" class="node"><title>Node1</title>
<polygon fill="#bfbfbf" stroke="black" points="0,-39 0,-69 109,-69 109,-39 0,-39"/>
<text text-anchor="start" x="8" y="-57" font-family="Helvetica,sans-Serif" font-size="10.00">Ogre::SceneManager</text>
<text text-anchor="middle" x="54.5" y="-46" font-family="Helvetica,sans-Serif" font-size="10.00">::Listener</text>
</g>
<!-- Node2 -->
<g id="node2" class="node"><title>Node2</title>
<g id="a_node2"><a xlink:href="class_ogre_1_1_hlms_manager.html" target="_top" xlink:title="Ogre::HlmsManager">
<polygon fill="none" stroke="black" points="176.5,-88.5 176.5,-107.5 280.5,-107.5 280.5,-88.5 176.5,-88.5"/>
<text text-anchor="middle" x="228.5" y="-95.5" font-family="Helvetica,sans-Serif" font-size="10.00">Ogre::HlmsManager</text>
</a>
</g>
</g>
<!-- Node1&#45;&gt;Node2 -->
<g id="edge1" class="edge"><title>Node1&#45;&gt;Node2</title>
<path fill="none" stroke="midnightblue" d="M117.73,-71.7796C126.858,-74.272 136.159,-76.7486 145,-79 157.676,-82.2283 171.51,-85.5084 184.164,-88.4141"/>
<polygon fill="midnightblue" stroke="midnightblue" points="118.494,-68.3597 107.923,-69.0787 116.635,-75.1084 118.494,-68.3597"/>
</g>
<!-- Node3 -->
<g id="node3" class="node"><title>Node3</title>
<g id="a_node3"><a xlink:href="class_ogre_1_1_r_t_shader_1_1_shader_generator_1_1_s_g_scene_manager_listener.html" target="_top" xlink:title="Shader generator scene manager sub class. ">
<polygon fill="none" stroke="black" points="145,-39 145,-69 312,-69 312,-39 145,-39"/>
<text text-anchor="start" x="153" y="-57" font-family="Helvetica,sans-Serif" font-size="10.00">Ogre::RTShader::ShaderGenerator</text>
<text text-anchor="middle" x="228.5" y="-46" font-family="Helvetica,sans-Serif" font-size="10.00">::SGSceneManagerListener</text>
</a>
</g>
</g>
<!-- Node1&#45;&gt;Node3 -->
<g id="edge2" class="edge"><title>Node1&#45;&gt;Node3</title>
<path fill="none" stroke="midnightblue" d="M119.653,-54C127.848,-54 136.325,-54 144.761,-54"/>
<polygon fill="midnightblue" stroke="midnightblue" points="119.45,-50.5001 109.45,-54 119.45,-57.5001 119.45,-50.5001"/>
</g>
<!-- Node4 -->
<g id="node4" class="node"><title>Node4</title>
<g id="a_node4"><a xlink:href="class_ogre_1_1_terrain.html" target="_top" xlink:title="The main containing class for a chunk of terrain. ">
<polygon fill="none" stroke="black" points="191.5,-0.5 191.5,-19.5 265.5,-19.5 265.5,-0.5 191.5,-0.5"/>
<text text-anchor="middle" x="228.5" y="-7.5" font-family="Helvetica,sans-Serif" font-size="10.00">Ogre::Terrain</text>
</a>
</g>
</g>
<!-- Node1&#45;&gt;Node4 -->
<g id="edge3" class="edge"><title>Node1&#45;&gt;Node4</title>
<path fill="none" stroke="midnightblue" d="M119.125,-36.7361C127.811,-34.4384 136.619,-32.1392 145,-30 160.137,-26.1363 176.883,-22.0433 191.31,-18.5733"/>
<polygon fill="midnightblue" stroke="midnightblue" points="118.164,-33.3699 109.398,-39.3211 119.962,-40.1351 118.164,-33.3699"/>
</g>
</g>
</svg>
