<?xml version="1.0" encoding="UTF-8" standalone="no"?>
<!DOCTYPE svg PUBLIC "-//W3C//DTD SVG 1.1//EN"
 "http://www.w3.org/Graphics/SVG/1.1/DTD/svg11.dtd">
<!-- Generated by graphviz version 2.38.0 (20140413.2041)
 -->
<!-- Title: Ogre::RenderObjectListener Pages: 1 -->
<svg width="298pt" height="95pt"
 viewBox="0.00 0.00 297.50 95.00" xmlns="http://www.w3.org/2000/svg" xmlns:xlink="http://www.w3.org/1999/xlink">
<g id="graph0" class="graph" transform="scale(1 1) rotate(0) translate(4 91)">
<title>Ogre::RenderObjectListener</title>
<!-- Node1 -->
<g id="node1" class="node"><title>Node1</title>
<polygon fill="#bfbfbf" stroke="black" points="60,-67.5 60,-86.5 198,-86.5 198,-67.5 60,-67.5"/>
<text text-anchor="middle" x="129" y="-74.5" font-family="Helvetica,sans-Serif" font-size="10.00">Ogre::RenderObjectListener</text>
</g>
<!-- Node2 -->
<g id="node2" class="node"><title>Node2</title>
<g id="a_node2"><a xlink:href="class_ogre_1_1_hlms_manager.html" target="_top" xlink:title="Ogre::HlmsManager">
<polygon fill="none" stroke="black" points="0,-6 0,-25 104,-25 104,-6 0,-6"/>
<text text-anchor="middle" x="52" y="-13" font-family="Helvetica,sans-Serif" font-size="10.00">Ogre::HlmsManager</text>
</a>
</g>
</g>
<!-- Node1&#45;&gt;Node2 -->
<g id="edge1" class="edge"><title>Node1&#45;&gt;Node2</title>
<path fill="none" stroke="midnightblue" d="M109.968,-61.2938C95.198,-49.8803 75.2393,-34.4577 63.0118,-25.0091"/>
<polygon fill="midnightblue" stroke="midnightblue" points="107.915,-64.1301 117.968,-67.4751 112.195,-58.5911 107.915,-64.1301"/>
</g>
<!-- Node3 -->
<g id="node3" class="node"><title>Node3</title>
<g id="a_node3"><a xlink:href="class_ogre_1_1_r_t_shader_1_1_shader_generator_1_1_s_g_render_object_listener.html" target="_top" xlink:title="Shader generator RenderObjectListener sub class. ">
<polygon fill="none" stroke="black" points="122.5,-0.5 122.5,-30.5 289.5,-30.5 289.5,-0.5 122.5,-0.5"/>
<text text-anchor="start" x="130.5" y="-18.5" font-family="Helvetica,sans-Serif" font-size="10.00">Ogre::RTShader::ShaderGenerator</text>
<text text-anchor="middle" x="206" y="-7.5" font-family="Helvetica,sans-Serif" font-size="10.00">::SGRenderObjectListener</text>
</a>
</g>
</g>
<!-- Node1&#45;&gt;Node3 -->
<g id="edge2" class="edge"><title>Node1&#45;&gt;Node3</title>
<path fill="none" stroke="midnightblue" d="M148.159,-61.1955C160.301,-51.8129 175.91,-39.7512 187.853,-30.523"/>
<polygon fill="midnightblue" stroke="midnightblue" points="145.805,-58.5911 140.032,-67.4751 150.085,-64.1301 145.805,-58.5911"/>
</g>
</g>
</svg>
