<?xml version="1.0" encoding="UTF-8" standalone="no"?>
<!DOCTYPE svg PUBLIC "-//W3C//DTD SVG 1.1//EN"
 "http://www.w3.org/Graphics/SVG/1.1/DTD/svg11.dtd">
<!-- Generated by graphviz version 2.38.0 (20140413.2041)
 -->
<!-- Title: Ogre::ResourceManager Pages: 1 -->
<svg width="646pt" height="382pt"
 viewBox="0.00 0.00 646.00 382.00" xmlns="http://www.w3.org/2000/svg" xmlns:xlink="http://www.w3.org/1999/xlink">
<g id="graph0" class="graph" transform="scale(1 1) rotate(0) translate(4 378)">
<title>Ogre::ResourceManager</title>
<!-- Node1 -->
<g id="node1" class="node"><title>Node1</title>
<polygon fill="#bfbfbf" stroke="black" points="134,-212.5 134,-231.5 257,-231.5 257,-212.5 134,-212.5"/>
<text text-anchor="middle" x="195.5" y="-219.5" font-family="Helvetica,sans-Serif" font-size="10.00">Ogre::ResourceManager</text>
</g>
<!-- Node4 -->
<g id="node4" class="node"><title>Node4</title>
<g id="a_node4"><a xlink:href="class_ogre_1_1_compositor_manager.html" target="_top" xlink:title="Class for managing Compositor settings for Ogre. ">
<polygon fill="none" stroke="black" points="298.5,-354.5 298.5,-373.5 429.5,-373.5 429.5,-354.5 298.5,-354.5"/>
<text text-anchor="middle" x="364" y="-361.5" font-family="Helvetica,sans-Serif" font-size="10.00">Ogre::CompositorManager</text>
</a>
</g>
</g>
<!-- Node1&#45;&gt;Node4 -->
<g id="edge3" class="edge"><title>Node1&#45;&gt;Node4</title>
<path fill="none" stroke="midnightblue" d="M206.001,-240.589C220.837,-267.724 252.096,-317.891 293,-345 298.878,-348.896 305.534,-351.996 312.346,-354.463"/>
<polygon fill="midnightblue" stroke="midnightblue" points="209.072,-238.909 201.29,-231.719 202.889,-242.193 209.072,-238.909"/>
</g>
<!-- Node5 -->
<g id="node5" class="node"><title>Node5</title>
<g id="a_node5"><a xlink:href="class_ogre_1_1_font_manager.html" target="_top" xlink:title="Manages Font resources, parsing .fontdef files and generally organising them. ">
<polygon fill="none" stroke="black" points="313.5,-316.5 313.5,-335.5 414.5,-335.5 414.5,-316.5 313.5,-316.5"/>
<text text-anchor="middle" x="364" y="-323.5" font-family="Helvetica,sans-Serif" font-size="10.00">Ogre::FontManager</text>
</a>
</g>
</g>
<!-- Node1&#45;&gt;Node5 -->
<g id="edge4" class="edge"><title>Node1&#45;&gt;Node5</title>
<path fill="none" stroke="midnightblue" d="M211.436,-239.229C229.058,-258.499 260.141,-289.322 293,-307 300.097,-310.818 308.021,-313.915 315.914,-316.412"/>
<polygon fill="midnightblue" stroke="midnightblue" points="214.019,-236.867 204.742,-231.749 208.802,-241.535 214.019,-236.867"/>
</g>
<!-- Node6 -->
<g id="node6" class="node"><title>Node6</title>
<g id="a_node6"><a xlink:href="class_ogre_1_1_gpu_program_manager.html" target="_top" xlink:title="Ogre::GpuProgramManager">
<polygon fill="none" stroke="black" points="296,-278.5 296,-297.5 432,-297.5 432,-278.5 296,-278.5"/>
<text text-anchor="middle" x="364" y="-285.5" font-family="Helvetica,sans-Serif" font-size="10.00">Ogre::GpuProgramManager</text>
</a>
</g>
</g>
<!-- Node1&#45;&gt;Node6 -->
<g id="edge5" class="edge"><title>Node1&#45;&gt;Node6</title>
<path fill="none" stroke="midnightblue" d="M223.244,-236.231C242.327,-246.016 268.794,-258.845 293,-268 303.285,-271.89 314.664,-275.445 325.206,-278.445"/>
<polygon fill="midnightblue" stroke="midnightblue" points="224.738,-233.064 214.25,-231.565 221.515,-239.277 224.738,-233.064"/>
</g>
<!-- Node12 -->
<g id="node12" class="node"><title>Node12</title>
<g id="a_node12"><a xlink:href="class_ogre_1_1_high_level_gpu_program_manager.html" target="_top" xlink:title="This ResourceManager manages high&#45;level vertex and fragment programs. ">
<polygon fill="none" stroke="black" points="293,-229 293,-259 435,-259 435,-229 293,-229"/>
<text text-anchor="start" x="301" y="-247" font-family="Helvetica,sans-Serif" font-size="10.00">Ogre::HighLevelGpuProgram</text>
<text text-anchor="middle" x="364" y="-236" font-family="Helvetica,sans-Serif" font-size="10.00">Manager</text>
</a>
</g>
</g>
<!-- Node1&#45;&gt;Node12 -->
<g id="edge11" class="edge"><title>Node1&#45;&gt;Node12</title>
<path fill="none" stroke="midnightblue" d="M267.017,-231.318C275.572,-232.448 284.31,-233.603 292.859,-234.732"/>
<polygon fill="midnightblue" stroke="midnightblue" points="267.454,-227.845 257.081,-230.005 266.537,-234.785 267.454,-227.845"/>
</g>
<!-- Node13 -->
<g id="node13" class="node"><title>Node13</title>
<g id="a_node13"><a xlink:href="class_ogre_1_1_material_manager.html" target="_top" xlink:title="Class for managing Material settings for Ogre. ">
<polygon fill="none" stroke="black" points="306,-190.5 306,-209.5 422,-209.5 422,-190.5 306,-190.5"/>
<text text-anchor="middle" x="364" y="-197.5" font-family="Helvetica,sans-Serif" font-size="10.00">Ogre::MaterialManager</text>
</a>
</g>
</g>
<!-- Node1&#45;&gt;Node13 -->
<g id="edge12" class="edge"><title>Node1&#45;&gt;Node13</title>
<path fill="none" stroke="midnightblue" d="M267.278,-212.648C280.131,-210.95 293.39,-209.198 305.792,-207.559"/>
<polygon fill="midnightblue" stroke="midnightblue" points="266.537,-209.215 257.081,-213.995 267.454,-216.155 266.537,-209.215"/>
</g>
<!-- Node14 -->
<g id="node14" class="node"><title>Node14</title>
<g id="a_node14"><a xlink:href="class_ogre_1_1_mesh_manager.html" target="_top" xlink:title="Handles the management of mesh resources. ">
<polygon fill="none" stroke="black" points="311.5,-152.5 311.5,-171.5 416.5,-171.5 416.5,-152.5 311.5,-152.5"/>
<text text-anchor="middle" x="364" y="-159.5" font-family="Helvetica,sans-Serif" font-size="10.00">Ogre::MeshManager</text>
</a>
</g>
</g>
<!-- Node1&#45;&gt;Node14 -->
<g id="edge13" class="edge"><title>Node1&#45;&gt;Node14</title>
<path fill="none" stroke="midnightblue" d="M226.148,-208.158C245.029,-199.655 270.15,-188.914 293,-181 302.995,-177.538 313.968,-174.303 324.2,-171.518"/>
<polygon fill="midnightblue" stroke="midnightblue" points="224.538,-205.044 216.887,-212.373 227.439,-211.415 224.538,-205.044"/>
</g>
<!-- Node15 -->
<g id="node15" class="node"><title>Node15</title>
<g id="a_node15"><a xlink:href="class_ogre_1_1_skeleton_manager.html" target="_top" xlink:title="Handles the management of skeleton resources. ">
<polygon fill="none" stroke="black" points="304.5,-114.5 304.5,-133.5 423.5,-133.5 423.5,-114.5 304.5,-114.5"/>
<text text-anchor="middle" x="364" y="-121.5" font-family="Helvetica,sans-Serif" font-size="10.00">Ogre::SkeletonManager</text>
</a>
</g>
</g>
<!-- Node1&#45;&gt;Node15 -->
<g id="edge14" class="edge"><title>Node1&#45;&gt;Node15</title>
<path fill="none" stroke="midnightblue" d="M212.733,-204.99C230.744,-187.071 261.451,-159.246 293,-143 300.389,-139.195 308.621,-136.089 316.77,-133.575"/>
<polygon fill="midnightblue" stroke="midnightblue" points="209.913,-202.866 205.394,-212.448 214.903,-207.775 209.913,-202.866"/>
</g>
<!-- Node16 -->
<g id="node16" class="node"><title>Node16</title>
<g id="a_node16"><a xlink:href="class_ogre_1_1_texture_manager.html" target="_top" xlink:title="Class for loading &amp; managing textures. ">
<polygon fill="none" stroke="black" points="307,-76.5 307,-95.5 421,-95.5 421,-76.5 307,-76.5"/>
<text text-anchor="middle" x="364" y="-83.5" font-family="Helvetica,sans-Serif" font-size="10.00">Ogre::TextureManager</text>
</a>
</g>
</g>
<!-- Node1&#45;&gt;Node16 -->
<g id="edge15" class="edge"><title>Node1&#45;&gt;Node16</title>
<path fill="none" stroke="midnightblue" d="M206.661,-203.6C221.957,-177.637 253.373,-130.572 293,-105 299.031,-101.108 305.847,-98.0073 312.798,-95.5384"/>
<polygon fill="midnightblue" stroke="midnightblue" points="203.537,-202.011 201.604,-212.428 209.612,-205.49 203.537,-202.011"/>
</g>
<!-- Node2 -->
<g id="node2" class="node"><title>Node2</title>
<g id="a_node2"><a xlink:href="class_ogre_1_1_script_loader.html" target="_top" xlink:title="Abstract class defining the interface used by classes which wish to perform script loading to define ...">
<polygon fill="none" stroke="black" points="0,-231.5 0,-250.5 98,-250.5 98,-231.5 0,-231.5"/>
<text text-anchor="middle" x="49" y="-238.5" font-family="Helvetica,sans-Serif" font-size="10.00">Ogre::ScriptLoader</text>
</a>
</g>
</g>
<!-- Node2&#45;&gt;Node1 -->
<g id="edge1" class="edge"><title>Node2&#45;&gt;Node1</title>
<path fill="none" stroke="midnightblue" d="M108.282,-233.337C116.751,-232.223 125.486,-231.075 133.997,-229.955"/>
<polygon fill="midnightblue" stroke="midnightblue" points="107.575,-229.899 98.1164,-234.673 108.487,-236.84 107.575,-229.899"/>
</g>
<!-- Node3 -->
<g id="node3" class="node"><title>Node3</title>
<g id="a_node3"><a xlink:href="class_ogre_1_1_allocated_object.html" target="_top" xlink:title="Superclass for all objects that wish to use custom memory allocators when their new / delete operator...">
<polygon fill="none" stroke="black" points="9,-193.5 9,-212.5 89,-212.5 89,-193.5 9,-193.5"/>
<text text-anchor="middle" x="49" y="-200.5" font-family="Helvetica,sans-Serif" font-size="10.00">ResourceAlloc</text>
</a>
</g>
</g>
<!-- Node3&#45;&gt;Node1 -->
<g id="edge2" class="edge"><title>Node3&#45;&gt;Node1</title>
<path fill="none" stroke="midnightblue" d="M99.1042,-209.457C110.285,-210.927 122.293,-212.506 133.89,-214.031"/>
<polygon fill="midnightblue" stroke="midnightblue" points="99.4748,-205.975 89.1038,-208.142 98.5621,-212.916 99.4748,-205.975"/>
</g>
<!-- Node7 -->
<g id="node7" class="node"><title>Node7</title>
<g id="a_node7"><a xlink:href="class_ogre_1_1_d3_d11_gpu_program_manager.html" target="_top" xlink:title="Ogre::D3D11GpuProgramManager">
<polygon fill="none" stroke="black" points="471,-354.5 471,-373.5 638,-373.5 638,-354.5 471,-354.5"/>
<text text-anchor="middle" x="554.5" y="-361.5" font-family="Helvetica,sans-Serif" font-size="10.00">Ogre::D3D11GpuProgramManager</text>
</a>
</g>
</g>
<!-- Node6&#45;&gt;Node7 -->
<g id="edge6" class="edge"><title>Node6&#45;&gt;Node7</title>
<path fill="none" stroke="midnightblue" d="M423.422,-301.166C427.449,-302.884 431.352,-304.82 435,-307 454.969,-318.936 450.804,-333.453 471,-345 477.763,-348.866 485.261,-351.946 492.901,-354.4"/>
<polygon fill="midnightblue" stroke="midnightblue" points="424.453,-297.814 413.862,-297.541 421.972,-304.359 424.453,-297.814"/>
</g>
<!-- Node8 -->
<g id="node8" class="node"><title>Node8</title>
<g id="a_node8"><a xlink:href="class_ogre_1_1_d3_d9_gpu_program_manager.html" target="_top" xlink:title="Ogre::D3D9GpuProgramManager">
<polygon fill="none" stroke="black" points="474,-316.5 474,-335.5 635,-335.5 635,-316.5 474,-316.5"/>
<text text-anchor="middle" x="554.5" y="-323.5" font-family="Helvetica,sans-Serif" font-size="10.00">Ogre::D3D9GpuProgramManager</text>
</a>
</g>
</g>
<!-- Node6&#45;&gt;Node8 -->
<g id="edge7" class="edge"><title>Node6&#45;&gt;Node8</title>
<path fill="none" stroke="midnightblue" d="M422.589,-299.61C449.398,-305.014 480.895,-311.364 506.276,-316.48"/>
<polygon fill="midnightblue" stroke="midnightblue" points="423.061,-296.134 412.567,-297.589 421.678,-302.996 423.061,-296.134"/>
</g>
<!-- Node9 -->
<g id="node9" class="node"><title>Node9</title>
<g id="a_node9"><a xlink:href="class_ogre_1_1_g_l_e_s2_gpu_program_manager.html" target="_top" xlink:title="Ogre::GLES2GpuProgramManager">
<polygon fill="none" stroke="black" points="471,-278.5 471,-297.5 638,-297.5 638,-278.5 471,-278.5"/>
<text text-anchor="middle" x="554.5" y="-285.5" font-family="Helvetica,sans-Serif" font-size="10.00">Ogre::GLES2GpuProgramManager</text>
</a>
</g>
</g>
<!-- Node6&#45;&gt;Node9 -->
<g id="edge8" class="edge"><title>Node6&#45;&gt;Node9</title>
<path fill="none" stroke="midnightblue" d="M442.324,-288C451.704,-288 461.316,-288 470.771,-288"/>
<polygon fill="midnightblue" stroke="midnightblue" points="442.255,-284.5 432.254,-288 442.254,-291.5 442.255,-284.5"/>
</g>
<!-- Node10 -->
<g id="node10" class="node"><title>Node10</title>
<g id="a_node10"><a xlink:href="class_ogre_1_1_g_l_gpu_program_manager.html" target="_top" xlink:title="Ogre::GLGpuProgramManager">
<polygon fill="none" stroke="black" points="480,-240.5 480,-259.5 629,-259.5 629,-240.5 480,-240.5"/>
<text text-anchor="middle" x="554.5" y="-247.5" font-family="Helvetica,sans-Serif" font-size="10.00">Ogre::GLGpuProgramManager</text>
</a>
</g>
</g>
<!-- Node6&#45;&gt;Node10 -->
<g id="edge9" class="edge"><title>Node6&#45;&gt;Node10</title>
<path fill="none" stroke="midnightblue" d="M422.589,-276.39C449.398,-270.986 480.895,-264.636 506.276,-259.52"/>
<polygon fill="midnightblue" stroke="midnightblue" points="421.678,-273.004 412.567,-278.411 423.061,-279.866 421.678,-273.004"/>
</g>
<!-- Node11 -->
<g id="node11" class="node"><title>Node11</title>
<g id="a_node11"><a xlink:href="class_ogre_1_1_g_l_s_l_shader_manager.html" target="_top" xlink:title="Ogre::GLSLShaderManager">
<polygon fill="none" stroke="black" points="486,-202.5 486,-221.5 623,-221.5 623,-202.5 486,-202.5"/>
<text text-anchor="middle" x="554.5" y="-209.5" font-family="Helvetica,sans-Serif" font-size="10.00">Ogre::GLSLShaderManager</text>
</a>
</g>
</g>
<!-- Node6&#45;&gt;Node11 -->
<g id="edge10" class="edge"><title>Node6&#45;&gt;Node11</title>
<path fill="none" stroke="midnightblue" d="M420.839,-274.975C425.773,-272.959 430.571,-270.647 435,-268 454.694,-256.229 451.006,-242.255 471,-231 477.916,-227.107 485.586,-224.01 493.382,-221.548"/>
<polygon fill="midnightblue" stroke="midnightblue" points="419.422,-271.766 411.24,-278.496 421.833,-278.338 419.422,-271.766"/>
</g>
<!-- Node17 -->
<g id="node17" class="node"><title>Node17</title>
<g id="a_node17"><a xlink:href="class_ogre_1_1_d3_d11_texture_manager.html" target="_top" xlink:title="Ogre::D3D11TextureManager">
<polygon fill="none" stroke="black" points="482,-152.5 482,-171.5 627,-171.5 627,-152.5 482,-152.5"/>
<text text-anchor="middle" x="554.5" y="-159.5" font-family="Helvetica,sans-Serif" font-size="10.00">Ogre::D3D11TextureManager</text>
</a>
</g>
</g>
<!-- Node16&#45;&gt;Node17 -->
<g id="edge16" class="edge"><title>Node16&#45;&gt;Node17</title>
<path fill="none" stroke="midnightblue" d="M423.422,-99.1661C427.449,-100.884 431.352,-102.82 435,-105 454.969,-116.936 450.804,-131.453 471,-143 477.763,-146.866 485.261,-149.946 492.901,-152.4"/>
<polygon fill="midnightblue" stroke="midnightblue" points="424.453,-95.814 413.862,-95.5414 421.972,-102.359 424.453,-95.814"/>
</g>
<!-- Node18 -->
<g id="node18" class="node"><title>Node18</title>
<g id="a_node18"><a xlink:href="class_ogre_1_1_d3_d9_texture_manager.html" target="_top" xlink:title="Ogre::D3D9TextureManager">
<polygon fill="none" stroke="black" points="484.5,-114.5 484.5,-133.5 624.5,-133.5 624.5,-114.5 484.5,-114.5"/>
<text text-anchor="middle" x="554.5" y="-121.5" font-family="Helvetica,sans-Serif" font-size="10.00">Ogre::D3D9TextureManager</text>
</a>
</g>
</g>
<!-- Node16&#45;&gt;Node18 -->
<g id="edge17" class="edge"><title>Node16&#45;&gt;Node18</title>
<path fill="none" stroke="midnightblue" d="M422.589,-97.6095C449.398,-103.014 480.895,-109.364 506.276,-114.48"/>
<polygon fill="midnightblue" stroke="midnightblue" points="423.061,-94.1343 412.567,-95.589 421.678,-100.996 423.061,-94.1343"/>
</g>
<!-- Node19 -->
<g id="node19" class="node"><title>Node19</title>
<g id="a_node19"><a xlink:href="class_ogre_1_1_g_l3_plus_texture_manager.html" target="_top" xlink:title="GL3Plus&#45;specific implementation of a TextureManager. ">
<polygon fill="none" stroke="black" points="478.5,-76.5 478.5,-95.5 630.5,-95.5 630.5,-76.5 478.5,-76.5"/>
<text text-anchor="middle" x="554.5" y="-83.5" font-family="Helvetica,sans-Serif" font-size="10.00">Ogre::GL3PlusTextureManager</text>
</a>
</g>
</g>
<!-- Node16&#45;&gt;Node19 -->
<g id="edge18" class="edge"><title>Node16&#45;&gt;Node19</title>
<path fill="none" stroke="midnightblue" d="M431.394,-86C446.618,-86 462.909,-86 478.469,-86"/>
<polygon fill="midnightblue" stroke="midnightblue" points="431.046,-82.5001 421.046,-86 431.046,-89.5001 431.046,-82.5001"/>
</g>
<!-- Node20 -->
<g id="node20" class="node"><title>Node20</title>
<g id="a_node20"><a xlink:href="class_ogre_1_1_g_l_e_s2_texture_manager.html" target="_top" xlink:title="GL ES&#45;specific implementation of a TextureManager. ">
<polygon fill="none" stroke="black" points="481.5,-38.5 481.5,-57.5 627.5,-57.5 627.5,-38.5 481.5,-38.5"/>
<text text-anchor="middle" x="554.5" y="-45.5" font-family="Helvetica,sans-Serif" font-size="10.00">Ogre::GLES2TextureManager</text>
</a>
</g>
</g>
<!-- Node16&#45;&gt;Node20 -->
<g id="edge19" class="edge"><title>Node16&#45;&gt;Node20</title>
<path fill="none" stroke="midnightblue" d="M422.589,-74.3905C449.398,-68.986 480.895,-62.6365 506.276,-57.5201"/>
<polygon fill="midnightblue" stroke="midnightblue" points="421.678,-71.0038 412.567,-76.411 423.061,-77.8657 421.678,-71.0038"/>
</g>
<!-- Node21 -->
<g id="node21" class="node"><title>Node21</title>
<g id="a_node21"><a xlink:href="class_ogre_1_1_g_l_texture_manager.html" target="_top" xlink:title="GL&#45;specific implementation of a TextureManager. ">
<polygon fill="none" stroke="black" points="491,-0.5 491,-19.5 618,-19.5 618,-0.5 491,-0.5"/>
<text text-anchor="middle" x="554.5" y="-7.5" font-family="Helvetica,sans-Serif" font-size="10.00">Ogre::GLTextureManager</text>
</a>
</g>
</g>
<!-- Node16&#45;&gt;Node21 -->
<g id="edge20" class="edge"><title>Node16&#45;&gt;Node21</title>
<path fill="none" stroke="midnightblue" d="M388.369,-71.0704C409.294,-58.2865 441.188,-40.2168 471,-29 480.905,-25.2734 491.764,-22.1401 502.257,-19.5611"/>
<polygon fill="midnightblue" stroke="midnightblue" points="386.495,-68.1139 379.842,-76.3592 390.185,-74.0625 386.495,-68.1139"/>
</g>
</g>
</svg>
