<?xml version="1.0" encoding="UTF-8" standalone="no"?>
<!DOCTYPE svg PUBLIC "-//W3C//DTD SVG 1.1//EN"
 "http://www.w3.org/Graphics/SVG/1.1/DTD/svg11.dtd">
<!-- Generated by graphviz version 2.38.0 (20140413.2041)
 -->
<!-- Title: Ogre::Node Pages: 1 -->
<svg width="196pt" height="196pt"
 viewBox="0.00 0.00 196.00 196.00" xmlns="http://www.w3.org/2000/svg" xmlns:xlink="http://www.w3.org/1999/xlink">
<g id="graph0" class="graph" transform="scale(1 1) rotate(0) translate(4 192)">
<title>Ogre::Node</title>
<!-- Node1 -->
<g id="node1" class="node"><title>Node1</title>
<polygon fill="#bfbfbf" stroke="black" points="57,-112.5 57,-131.5 124,-131.5 124,-112.5 57,-112.5"/>
<text text-anchor="middle" x="90.5" y="-119.5" font-family="Helvetica,sans-Serif" font-size="10.00">Ogre::Node</text>
</g>
<!-- Node3 -->
<g id="node3" class="node"><title>Node3</title>
<g id="a_node3"><a xlink:href="class_ogre_1_1_bone.html" target="_top" xlink:title="A bone in a skeleton. ">
<polygon fill="none" stroke="black" points="8.5,-56.5 8.5,-75.5 74.5,-75.5 74.5,-56.5 8.5,-56.5"/>
<text text-anchor="middle" x="41.5" y="-63.5" font-family="Helvetica,sans-Serif" font-size="10.00">Ogre::Bone</text>
</a>
</g>
</g>
<!-- Node1&#45;&gt;Node3 -->
<g id="edge2" class="edge"><title>Node1&#45;&gt;Node3</title>
<path fill="none" stroke="midnightblue" d="M75.4655,-104.431C66.8778,-94.9673 56.4565,-83.4827 49.4408,-75.7511"/>
<polygon fill="midnightblue" stroke="midnightblue" points="73.0967,-107.029 82.4086,-112.083 78.2807,-102.325 73.0967,-107.029"/>
</g>
<!-- Node5 -->
<g id="node5" class="node"><title>Node5</title>
<g id="a_node5"><a xlink:href="class_ogre_1_1_scene_node.html" target="_top" xlink:title="Class representing a node in the scene graph. ">
<polygon fill="none" stroke="black" points="93,-56.5 93,-75.5 188,-75.5 188,-56.5 93,-56.5"/>
<text text-anchor="middle" x="140.5" y="-63.5" font-family="Helvetica,sans-Serif" font-size="10.00">Ogre::SceneNode</text>
</a>
</g>
</g>
<!-- Node1&#45;&gt;Node5 -->
<g id="edge4" class="edge"><title>Node1&#45;&gt;Node5</title>
<path fill="none" stroke="midnightblue" d="M105.576,-104.718C114.389,-95.1997 125.166,-83.5608 132.397,-75.7511"/>
<polygon fill="midnightblue" stroke="midnightblue" points="102.982,-102.367 98.7565,-112.083 108.119,-107.123 102.982,-102.367"/>
</g>
<!-- Node2 -->
<g id="node2" class="node"><title>Node2</title>
<g id="a_node2"><a xlink:href="class_ogre_1_1_allocated_object.html" target="_top" xlink:title="Superclass for all objects that wish to use custom memory allocators when their new / delete operator...">
<polygon fill="none" stroke="black" points="59.5,-168.5 59.5,-187.5 121.5,-187.5 121.5,-168.5 59.5,-168.5"/>
<text text-anchor="middle" x="90.5" y="-175.5" font-family="Helvetica,sans-Serif" font-size="10.00">NodeAlloc</text>
</a>
</g>
</g>
<!-- Node2&#45;&gt;Node1 -->
<g id="edge1" class="edge"><title>Node2&#45;&gt;Node1</title>
<path fill="none" stroke="midnightblue" d="M90.5,-157.805C90.5,-148.91 90.5,-138.78 90.5,-131.751"/>
<polygon fill="midnightblue" stroke="midnightblue" points="87.0001,-158.083 90.5,-168.083 94.0001,-158.083 87.0001,-158.083"/>
</g>
<!-- Node4 -->
<g id="node4" class="node"><title>Node4</title>
<g id="a_node4"><a xlink:href="class_ogre_1_1_tag_point.html" target="_top" xlink:title="A tagged point on a skeleton, which can be used to attach entities to on specific other entities...">
<polygon fill="none" stroke="black" points="0,-0.5 0,-19.5 83,-19.5 83,-0.5 0,-0.5"/>
<text text-anchor="middle" x="41.5" y="-7.5" font-family="Helvetica,sans-Serif" font-size="10.00">Ogre::TagPoint</text>
</a>
</g>
</g>
<!-- Node3&#45;&gt;Node4 -->
<g id="edge3" class="edge"><title>Node3&#45;&gt;Node4</title>
<path fill="none" stroke="midnightblue" d="M41.5,-45.8045C41.5,-36.9102 41.5,-26.7798 41.5,-19.7511"/>
<polygon fill="midnightblue" stroke="midnightblue" points="38.0001,-46.083 41.5,-56.083 45.0001,-46.083 38.0001,-46.083"/>
</g>
</g>
</svg>
