<?xml version="1.0" encoding="UTF-8" standalone="no"?>
<!DOCTYPE svg PUBLIC "-//W3C//DTD SVG 1.1//EN"
 "http://www.w3.org/Graphics/SVG/1.1/DTD/svg11.dtd">
<!-- Generated by graphviz version 2.38.0 (20140413.2041)
 -->
<!-- Title: Ogre::SceneQueryListener Pages: 1 -->
<svg width="702pt" height="137pt"
 viewBox="0.00 0.00 702.00 137.00" xmlns="http://www.w3.org/2000/svg" xmlns:xlink="http://www.w3.org/1999/xlink">
<g id="graph0" class="graph" transform="scale(1 1) rotate(0) translate(4 133)">
<title>Ogre::SceneQueryListener</title>
<!-- Node1 -->
<g id="node1" class="node"><title>Node1</title>
<polygon fill="#bfbfbf" stroke="black" points="0,-33 0,-52 132,-52 132,-33 0,-33"/>
<text text-anchor="middle" x="66" y="-40" font-family="Helvetica,sans-Serif" font-size="10.00">Ogre::SceneQueryListener</text>
</g>
<!-- Node2 -->
<g id="node2" class="node"><title>Node2</title>
<g id="a_node2"><a xlink:href="class_ogre_1_1_region_scene_query.html" target="_top" xlink:title="Abstract class defining a query which returns single results from a region. ">
<polygon fill="none" stroke="black" points="192,-55 192,-74 320,-74 320,-55 192,-55"/>
<text text-anchor="middle" x="256" y="-62" font-family="Helvetica,sans-Serif" font-size="10.00">Ogre::RegionSceneQuery</text>
</a>
</g>
</g>
<!-- Node1&#45;&gt;Node2 -->
<g id="edge1" class="edge"><title>Node1&#45;&gt;Node2</title>
<path fill="none" stroke="midnightblue" d="M142.318,-51.3138C158.721,-53.2333 175.915,-55.2454 191.792,-57.1033"/>
<polygon fill="midnightblue" stroke="midnightblue" points="142.565,-47.8189 132.226,-50.1328 141.751,-54.7714 142.565,-47.8189"/>
</g>
<!-- Node9 -->
<g id="node9" class="node"><title>Node9</title>
<g id="a_node9"><a xlink:href="class_ogre_1_1_scene_manager_1_1_shadow_caster_scene_query_listener.html" target="_top" xlink:title="Inner class to use as callback for shadow caster scene query. ">
<polygon fill="none" stroke="black" points="168,-5.5 168,-35.5 344,-35.5 344,-5.5 168,-5.5"/>
<text text-anchor="start" x="176" y="-23.5" font-family="Helvetica,sans-Serif" font-size="10.00">Ogre::SceneManager</text>
<text text-anchor="middle" x="256" y="-12.5" font-family="Helvetica,sans-Serif" font-size="10.00">::ShadowCasterSceneQueryListener</text>
</a>
</g>
</g>
<!-- Node1&#45;&gt;Node9 -->
<g id="edge8" class="edge"><title>Node1&#45;&gt;Node9</title>
<path fill="none" stroke="midnightblue" d="M142.298,-33.6886C150.654,-32.7108 159.215,-31.7089 167.703,-30.7156"/>
<polygon fill="midnightblue" stroke="midnightblue" points="141.751,-30.2286 132.226,-34.8672 142.565,-37.1811 141.751,-30.2286"/>
</g>
<!-- Node3 -->
<g id="node3" class="node"><title>Node3</title>
<g id="a_node3"><a xlink:href="class_ogre_1_1_axis_aligned_box_scene_query.html" target="_top" xlink:title="Specialises the SceneQuery class for querying within an axis aligned box. ">
<polygon fill="none" stroke="black" points="380,-98.5 380,-128.5 520,-128.5 520,-98.5 380,-98.5"/>
<text text-anchor="start" x="388" y="-116.5" font-family="Helvetica,sans-Serif" font-size="10.00">Ogre::AxisAlignedBoxScene</text>
<text text-anchor="middle" x="450" y="-105.5" font-family="Helvetica,sans-Serif" font-size="10.00">Query</text>
</a>
</g>
</g>
<!-- Node2&#45;&gt;Node3 -->
<g id="edge2" class="edge"><title>Node2&#45;&gt;Node3</title>
<path fill="none" stroke="midnightblue" d="M304.419,-76.6018C330.305,-83.208 362.589,-91.4471 390.08,-98.463"/>
<polygon fill="midnightblue" stroke="midnightblue" points="305.03,-73.1456 294.475,-74.064 303.299,-79.9282 305.03,-73.1456"/>
</g>
<!-- Node5 -->
<g id="node5" class="node"><title>Node5</title>
<g id="a_node5"><a xlink:href="class_ogre_1_1_plane_bounded_volume_list_scene_query.html" target="_top" xlink:title="Specialises the SceneQuery class for querying within a plane&#45;bounded volume. ">
<polygon fill="none" stroke="black" points="380,-49.5 380,-79.5 520,-79.5 520,-49.5 380,-49.5"/>
<text text-anchor="start" x="388" y="-67.5" font-family="Helvetica,sans-Serif" font-size="10.00">Ogre::PlaneBoundedVolume</text>
<text text-anchor="middle" x="450" y="-56.5" font-family="Helvetica,sans-Serif" font-size="10.00">ListSceneQuery</text>
</a>
</g>
</g>
<!-- Node2&#45;&gt;Node5 -->
<g id="edge4" class="edge"><title>Node2&#45;&gt;Node5</title>
<path fill="none" stroke="midnightblue" d="M330.154,-64.5C346.469,-64.5 363.719,-64.5 379.866,-64.5"/>
<polygon fill="midnightblue" stroke="midnightblue" points="330.134,-61.0001 320.134,-64.5 330.134,-68.0001 330.134,-61.0001"/>
</g>
<!-- Node7 -->
<g id="node7" class="node"><title>Node7</title>
<g id="a_node7"><a xlink:href="class_ogre_1_1_sphere_scene_query.html" target="_top" xlink:title="Specialises the SceneQuery class for querying within a sphere. ">
<polygon fill="none" stroke="black" points="386,-9 386,-28 514,-28 514,-9 386,-9"/>
<text text-anchor="middle" x="450" y="-16" font-family="Helvetica,sans-Serif" font-size="10.00">Ogre::SphereSceneQuery</text>
</a>
</g>
</g>
<!-- Node2&#45;&gt;Node7 -->
<g id="edge6" class="edge"><title>Node2&#45;&gt;Node7</title>
<path fill="none" stroke="midnightblue" d="M309.008,-52.6943C320.538,-50.0351 332.691,-47.1999 344,-44.5 366.285,-39.1798 391.176,-33.0255 411.129,-28.0404"/>
<polygon fill="midnightblue" stroke="midnightblue" points="308.034,-49.3268 299.072,-54.9781 309.602,-56.1489 308.034,-49.3268"/>
</g>
<!-- Node4 -->
<g id="node4" class="node"><title>Node4</title>
<g id="a_node4"><a xlink:href="class_ogre_1_1_default_axis_aligned_box_scene_query.html" target="_top" xlink:title="Default implementation of AxisAlignedBoxSceneQuery. ">
<polygon fill="none" stroke="black" points="561.5,-98.5 561.5,-128.5 688.5,-128.5 688.5,-98.5 561.5,-98.5"/>
<text text-anchor="start" x="569.5" y="-116.5" font-family="Helvetica,sans-Serif" font-size="10.00">Ogre::DefaultAxisAligned</text>
<text text-anchor="middle" x="625" y="-105.5" font-family="Helvetica,sans-Serif" font-size="10.00">BoxSceneQuery</text>
</a>
</g>
</g>
<!-- Node3&#45;&gt;Node4 -->
<g id="edge3" class="edge"><title>Node3&#45;&gt;Node4</title>
<path fill="none" stroke="midnightblue" d="M530.609,-113.5C540.914,-113.5 551.351,-113.5 561.329,-113.5"/>
<polygon fill="midnightblue" stroke="midnightblue" points="530.369,-110 520.369,-113.5 530.369,-117 530.369,-110"/>
</g>
<!-- Node6 -->
<g id="node6" class="node"><title>Node6</title>
<g id="a_node6"><a xlink:href="class_ogre_1_1_default_plane_bounded_volume_list_scene_query.html" target="_top" xlink:title="Default implementation of PlaneBoundedVolumeListSceneQuery. ">
<polygon fill="none" stroke="black" points="556,-49.5 556,-79.5 694,-79.5 694,-49.5 556,-49.5"/>
<text text-anchor="start" x="564" y="-67.5" font-family="Helvetica,sans-Serif" font-size="10.00">Ogre::DefaultPlaneBounded</text>
<text text-anchor="middle" x="625" y="-56.5" font-family="Helvetica,sans-Serif" font-size="10.00">VolumeListSceneQuery</text>
</a>
</g>
</g>
<!-- Node5&#45;&gt;Node6 -->
<g id="edge5" class="edge"><title>Node5&#45;&gt;Node6</title>
<path fill="none" stroke="midnightblue" d="M530.564,-64.5C538.976,-64.5 547.475,-64.5 555.742,-64.5"/>
<polygon fill="midnightblue" stroke="midnightblue" points="530.369,-61.0001 520.369,-64.5 530.369,-68.0001 530.369,-61.0001"/>
</g>
<!-- Node8 -->
<g id="node8" class="node"><title>Node8</title>
<g id="a_node8"><a xlink:href="class_ogre_1_1_default_sphere_scene_query.html" target="_top" xlink:title="Default implementation of SphereSceneQuery. ">
<polygon fill="none" stroke="black" points="558,-0.5 558,-30.5 692,-30.5 692,-0.5 558,-0.5"/>
<text text-anchor="start" x="566" y="-18.5" font-family="Helvetica,sans-Serif" font-size="10.00">Ogre::DefaultSphereScene</text>
<text text-anchor="middle" x="625" y="-7.5" font-family="Helvetica,sans-Serif" font-size="10.00">Query</text>
</a>
</g>
</g>
<!-- Node7&#45;&gt;Node8 -->
<g id="edge7" class="edge"><title>Node7&#45;&gt;Node8</title>
<path fill="none" stroke="midnightblue" d="M524.529,-17.2249C535.632,-17.0324 547.026,-16.8348 557.958,-16.6452"/>
<polygon fill="midnightblue" stroke="midnightblue" points="524.374,-13.727 514.436,-17.3999 524.496,-20.7259 524.374,-13.727"/>
</g>
</g>
</svg>
