<?xml version="1.0" encoding="UTF-8" standalone="no"?>
<!DOCTYPE svg PUBLIC "-//W3C//DTD SVG 1.1//EN"
 "http://www.w3.org/Graphics/SVG/1.1/DTD/svg11.dtd">
<!-- Generated by graphviz version 2.38.0 (20140413.2041)
 -->
<!-- Title: Ogre::Renderable Pages: 1 -->
<svg width="860pt" height="577pt"
 viewBox="0.00 0.00 860.00 577.00" xmlns="http://www.w3.org/2000/svg" xmlns:xlink="http://www.w3.org/1999/xlink">
<g id="graph0" class="graph" transform="scale(1 1) rotate(0) translate(4 573)">
<title>Ogre::Renderable</title>
<!-- Node1 -->
<g id="node1" class="node"><title>Node1</title>
<polygon fill="#bfbfbf" stroke="black" points="0,-309.5 0,-328.5 93,-328.5 93,-309.5 0,-309.5"/>
<text text-anchor="middle" x="46.5" y="-316.5" font-family="Helvetica,sans-Serif" font-size="10.00">Ogre::Renderable</text>
</g>
<!-- Node2 -->
<g id="node2" class="node"><title>Node2</title>
<g id="a_node2"><a xlink:href="class_ogre_1_1_billboard_chain.html" target="_top" xlink:title="Allows the rendering of a chain of connected billboards. ">
<polygon fill="none" stroke="black" points="151,-549.5 151,-568.5 258,-568.5 258,-549.5 151,-549.5"/>
<text text-anchor="middle" x="204.5" y="-556.5" font-family="Helvetica,sans-Serif" font-size="10.00">Ogre::BillboardChain</text>
</a>
</g>
</g>
<!-- Node1&#45;&gt;Node2 -->
<g id="edge1" class="edge"><title>Node1&#45;&gt;Node2</title>
<path fill="none" stroke="midnightblue" d="M48.8201,-338.756C52.8039,-381.987 68.4939,-485.458 129,-540 135.246,-545.63 142.93,-549.64 150.965,-552.486"/>
<polygon fill="midnightblue" stroke="midnightblue" points="52.3008,-338.374 48.0089,-328.688 45.3234,-338.936 52.3008,-338.374"/>
</g>
<!-- Node4 -->
<g id="node4" class="node"><title>Node4</title>
<g id="a_node4"><a xlink:href="class_ogre_1_1_billboard_set.html" target="_top" xlink:title="A collection of billboards (faces which are always facing the given direction) with the same (default...">
<polygon fill="none" stroke="black" points="156.5,-511.5 156.5,-530.5 252.5,-530.5 252.5,-511.5 156.5,-511.5"/>
<text text-anchor="middle" x="204.5" y="-518.5" font-family="Helvetica,sans-Serif" font-size="10.00">Ogre::BillboardSet</text>
</a>
</g>
</g>
<!-- Node1&#45;&gt;Node4 -->
<g id="edge3" class="edge"><title>Node1&#45;&gt;Node4</title>
<path fill="none" stroke="midnightblue" d="M50.5531,-338.912C57.4187,-376.658 77.6855,-458.712 129,-502 136.754,-508.541 146.47,-512.873 156.3,-515.731"/>
<polygon fill="midnightblue" stroke="midnightblue" points="53.9473,-337.991 48.8332,-328.712 47.0447,-339.155 53.9473,-337.991"/>
</g>
<!-- Node5 -->
<g id="node5" class="node"><title>Node5</title>
<g id="a_node5"><a xlink:href="class_ogre_1_1_border_renderable.html" target="_top" xlink:title="Class for rendering the border of a BorderPanelOverlayElement. ">
<polygon fill="none" stroke="black" points="143.5,-473.5 143.5,-492.5 265.5,-492.5 265.5,-473.5 143.5,-473.5"/>
<text text-anchor="middle" x="204.5" y="-480.5" font-family="Helvetica,sans-Serif" font-size="10.00">Ogre::BorderRenderable</text>
</a>
</g>
</g>
<!-- Node1&#45;&gt;Node5 -->
<g id="edge4" class="edge"><title>Node1&#45;&gt;Node5</title>
<path fill="none" stroke="midnightblue" d="M52.8782,-338.232C62.652,-369.539 86.3638,-431.303 129,-464 134.084,-467.899 139.881,-471.004 145.944,-473.475"/>
<polygon fill="midnightblue" stroke="midnightblue" points="56.1977,-337.115 49.9943,-328.526 49.4876,-339.109 56.1977,-337.115"/>
</g>
<!-- Node6 -->
<g id="node6" class="node"><title>Node6</title>
<g id="a_node6"><a xlink:href="class_ogre_1_1_frustum.html" target="_top" xlink:title="A frustum represents a pyramid, capped at the near and far end which is used to represent either a vi...">
<polygon fill="none" stroke="black" points="164.5,-435.5 164.5,-454.5 244.5,-454.5 244.5,-435.5 164.5,-435.5"/>
<text text-anchor="middle" x="204.5" y="-442.5" font-family="Helvetica,sans-Serif" font-size="10.00">Ogre::Frustum</text>
</a>
</g>
</g>
<!-- Node1&#45;&gt;Node6 -->
<g id="edge5" class="edge"><title>Node1&#45;&gt;Node6</title>
<path fill="none" stroke="midnightblue" d="M56.7731,-337.946C69.6083,-362.14 95.096,-403.555 129,-426 139.462,-432.926 152.286,-437.328 164.326,-440.125"/>
<polygon fill="midnightblue" stroke="midnightblue" points="59.7312,-336.043 52.0592,-328.736 53.5,-339.233 59.7312,-336.043"/>
</g>
<!-- Node8 -->
<g id="node8" class="node"><title>Node8</title>
<g id="a_node8"><a xlink:href="class_ogre_1_1_instance_batch.html" target="_top" xlink:title="InstanceBatch forms part of the new Instancing system This is an abstract class that must be derived ...">
<polygon fill="none" stroke="black" points="151,-397.5 151,-416.5 258,-416.5 258,-397.5 151,-397.5"/>
<text text-anchor="middle" x="204.5" y="-404.5" font-family="Helvetica,sans-Serif" font-size="10.00">Ogre::InstanceBatch</text>
</a>
</g>
</g>
<!-- Node1&#45;&gt;Node8 -->
<g id="edge7" class="edge"><title>Node1&#45;&gt;Node8</title>
<path fill="none" stroke="midnightblue" d="M63.1234,-336.085C78.4371,-351.821 103.182,-374.686 129,-388 136.474,-391.854 144.781,-394.962 153.059,-397.458"/>
<polygon fill="midnightblue" stroke="midnightblue" points="65.4402,-333.441 56.0194,-328.594 60.3609,-338.258 65.4402,-333.441"/>
</g>
<!-- Node14 -->
<g id="node14" class="node"><title>Node14</title>
<g id="a_node14"><a xlink:href="class_ogre_1_1_manual_object_1_1_manual_object_section.html" target="_top" xlink:title="Built, renderable section of geometry. ">
<polygon fill="none" stroke="black" points="146.5,-348 146.5,-378 262.5,-378 262.5,-348 146.5,-348"/>
<text text-anchor="start" x="154.5" y="-366" font-family="Helvetica,sans-Serif" font-size="10.00">Ogre::ManualObject</text>
<text text-anchor="middle" x="204.5" y="-355" font-family="Helvetica,sans-Serif" font-size="10.00">::ManualObjectSection</text>
</a>
</g>
</g>
<!-- Node1&#45;&gt;Node14 -->
<g id="edge13" class="edge"><title>Node1&#45;&gt;Node14</title>
<path fill="none" stroke="midnightblue" d="M91.1508,-331.312C109.437,-336.469 130.871,-342.515 150.086,-347.935"/>
<polygon fill="midnightblue" stroke="midnightblue" points="91.9243,-327.893 81.3497,-328.547 90.024,-334.631 91.9243,-327.893"/>
</g>
<!-- Node15 -->
<g id="node15" class="node"><title>Node15</title>
<g id="a_node15"><a xlink:href="class_ogre_1_1_node_1_1_debug_renderable.html" target="_top" xlink:title="Inner class for displaying debug renderable for Node. ">
<polygon fill="none" stroke="black" points="129,-309.5 129,-328.5 280,-328.5 280,-309.5 129,-309.5"/>
<text text-anchor="middle" x="204.5" y="-316.5" font-family="Helvetica,sans-Serif" font-size="10.00">Ogre::Node::DebugRenderable</text>
</a>
</g>
</g>
<!-- Node1&#45;&gt;Node15 -->
<g id="edge14" class="edge"><title>Node1&#45;&gt;Node15</title>
<path fill="none" stroke="midnightblue" d="M103.311,-319C111.598,-319 120.249,-319 128.846,-319"/>
<polygon fill="midnightblue" stroke="midnightblue" points="103.041,-315.5 93.041,-319 103.041,-322.5 103.041,-315.5"/>
</g>
<!-- Node16 -->
<g id="node16" class="node"><title>Node16</title>
<g id="a_node16"><a xlink:href="class_ogre_1_1_overlay_element.html" target="_top" xlink:title="Abstract definition of a 2D element to be displayed in an Overlay. ">
<polygon fill="none" stroke="black" points="148,-271.5 148,-290.5 261,-290.5 261,-271.5 148,-271.5"/>
<text text-anchor="middle" x="204.5" y="-278.5" font-family="Helvetica,sans-Serif" font-size="10.00">Ogre::OverlayElement</text>
</a>
</g>
</g>
<!-- Node1&#45;&gt;Node16 -->
<g id="edge15" class="edge"><title>Node1&#45;&gt;Node16</title>
<path fill="none" stroke="midnightblue" d="M96.6317,-307.032C118.493,-301.707 143.876,-295.524 164.418,-290.52"/>
<polygon fill="midnightblue" stroke="midnightblue" points="95.7529,-303.644 86.8654,-309.411 97.4097,-310.445 95.7529,-303.644"/>
</g>
<!-- Node21 -->
<g id="node21" class="node"><title>Node21</title>
<g id="a_node21"><a xlink:href="class_ogre_1_1_shadow_renderable.html" target="_top" xlink:title="Class which represents the renderable aspects of a set of shadow volume faces. ">
<polygon fill="none" stroke="black" points="140.5,-228.5 140.5,-247.5 268.5,-247.5 268.5,-228.5 140.5,-228.5"/>
<text text-anchor="middle" x="204.5" y="-235.5" font-family="Helvetica,sans-Serif" font-size="10.00">Ogre::ShadowRenderable</text>
</a>
</g>
</g>
<!-- Node1&#45;&gt;Node21 -->
<g id="edge20" class="edge"><title>Node1&#45;&gt;Node21</title>
<path fill="none" stroke="midnightblue" d="M66.9409,-302.892C82.8293,-290.365 106.297,-273.276 129,-262 140.683,-256.197 154.081,-251.371 166.264,-247.606"/>
<polygon fill="midnightblue" stroke="midnightblue" points="64.5495,-300.323 58.9467,-309.315 68.9343,-305.78 64.5495,-300.323"/>
</g>
<!-- Node25 -->
<g id="node25" class="node"><title>Node25</title>
<g id="a_node25"><a xlink:href="class_ogre_1_1_simple_renderable.html" target="_top" xlink:title="Simple implementation of MovableObject and Renderable for single&#45;part custom objects. ">
<polygon fill="none" stroke="black" points="143,-155.5 143,-174.5 266,-174.5 266,-155.5 143,-155.5"/>
<text text-anchor="middle" x="204.5" y="-162.5" font-family="Helvetica,sans-Serif" font-size="10.00">Ogre::SimpleRenderable</text>
</a>
</g>
</g>
<!-- Node1&#45;&gt;Node25 -->
<g id="edge24" class="edge"><title>Node1&#45;&gt;Node25</title>
<path fill="none" stroke="midnightblue" d="M59.8105,-301.206C74.7853,-280.246 101.49,-244.995 129,-219 147.577,-201.446 172.035,-184.741 187.765,-174.68"/>
<polygon fill="midnightblue" stroke="midnightblue" points="56.8681,-299.305 53.9685,-309.496 62.59,-303.338 56.8681,-299.305"/>
</g>
<!-- Node30 -->
<g id="node30" class="node"><title>Node30</title>
<g id="a_node30"><a xlink:href="class_ogre_1_1_static_geometry_1_1_geometry_bucket.html" target="_top" xlink:title="A GeometryBucket is a the lowest level bucket where geometry with the same vertex &amp; index format is s...">
<polygon fill="none" stroke="black" points="148.5,-106 148.5,-136 260.5,-136 260.5,-106 148.5,-106"/>
<text text-anchor="start" x="156.5" y="-124" font-family="Helvetica,sans-Serif" font-size="10.00">Ogre::StaticGeometry</text>
<text text-anchor="middle" x="204.5" y="-113" font-family="Helvetica,sans-Serif" font-size="10.00">::GeometryBucket</text>
</a>
</g>
</g>
<!-- Node1&#45;&gt;Node30 -->
<g id="edge29" class="edge"><title>Node1&#45;&gt;Node30</title>
<path fill="none" stroke="midnightblue" d="M51.5098,-299.017C59.7153,-263.229 81.7758,-188.02 129,-146 134.606,-141.012 141.241,-137.013 148.206,-133.809"/>
<polygon fill="midnightblue" stroke="midnightblue" points="48.0093,-298.646 49.3182,-309.159 54.8514,-300.124 48.0093,-298.646"/>
</g>
<!-- Node31 -->
<g id="node31" class="node"><title>Node31</title>
<g id="a_node31"><a xlink:href="class_ogre_1_1_sub_entity.html" target="_top" xlink:title="Utility class which defines the sub&#45;parts of an Entity. ">
<polygon fill="none" stroke="black" points="161.5,-67.5 161.5,-86.5 247.5,-86.5 247.5,-67.5 161.5,-67.5"/>
<text text-anchor="middle" x="204.5" y="-74.5" font-family="Helvetica,sans-Serif" font-size="10.00">Ogre::SubEntity</text>
</a>
</g>
</g>
<!-- Node1&#45;&gt;Node31 -->
<g id="edge30" class="edge"><title>Node1&#45;&gt;Node31</title>
<path fill="none" stroke="midnightblue" d="M48.7607,-299.069C52.6255,-255.456 68.0918,-151.065 129,-96 137.911,-87.9436 149.765,-83.2035 161.39,-80.4437"/>
<polygon fill="midnightblue" stroke="midnightblue" points="45.2568,-298.988 47.9784,-309.227 52.2361,-299.525 45.2568,-298.988"/>
</g>
<!-- Node32 -->
<g id="node32" class="node"><title>Node32</title>
<g id="a_node32"><a xlink:href="class_ogre_1_1_terrain_quad_tree_node_1_1_rend.html" target="_top" xlink:title="Hook to the render queue. ">
<polygon fill="none" stroke="black" points="134.5,-18 134.5,-48 274.5,-48 274.5,-18 134.5,-18"/>
<text text-anchor="start" x="142.5" y="-36" font-family="Helvetica,sans-Serif" font-size="10.00">Ogre::TerrainQuadTreeNode</text>
<text text-anchor="middle" x="204.5" y="-25" font-family="Helvetica,sans-Serif" font-size="10.00">::Rend</text>
</a>
</g>
</g>
<!-- Node1&#45;&gt;Node32 -->
<g id="edge31" class="edge"><title>Node1&#45;&gt;Node32</title>
<path fill="none" stroke="midnightblue" d="M47.8574,-299.098C49.8098,-250.922 61.502,-126.937 129,-58 132.818,-54.1007 137.261,-50.8096 142.042,-48.0319"/>
<polygon fill="midnightblue" stroke="midnightblue" points="44.35,-299.294 47.5472,-309.394 51.3468,-299.504 44.35,-299.294"/>
</g>
<!-- Node3 -->
<g id="node3" class="node"><title>Node3</title>
<g id="a_node3"><a xlink:href="class_ogre_1_1_ribbon_trail.html" target="_top" xlink:title="Subclass of BillboardChain which automatically leaves a trail behind one or more Node instances...">
<polygon fill="none" stroke="black" points="362,-549.5 362,-568.5 455,-568.5 455,-549.5 362,-549.5"/>
<text text-anchor="middle" x="408.5" y="-556.5" font-family="Helvetica,sans-Serif" font-size="10.00">Ogre::RibbonTrail</text>
</a>
</g>
</g>
<!-- Node2&#45;&gt;Node3 -->
<g id="edge2" class="edge"><title>Node2&#45;&gt;Node3</title>
<path fill="none" stroke="midnightblue" d="M268.087,-559C298.364,-559 334.052,-559 361.741,-559"/>
<polygon fill="midnightblue" stroke="midnightblue" points="268.046,-555.5 258.046,-559 268.046,-562.5 268.046,-555.5"/>
</g>
<!-- Node7 -->
<g id="node7" class="node"><title>Node7</title>
<g id="a_node7"><a xlink:href="class_ogre_1_1_camera.html" target="_top" xlink:title="A viewpoint from which the scene will be rendered. ">
<polygon fill="none" stroke="black" points="369.5,-511.5 369.5,-530.5 447.5,-530.5 447.5,-511.5 369.5,-511.5"/>
<text text-anchor="middle" x="408.5" y="-518.5" font-family="Helvetica,sans-Serif" font-size="10.00">Ogre::Camera</text>
</a>
</g>
</g>
<!-- Node6&#45;&gt;Node7 -->
<g id="edge6" class="edge"><title>Node6&#45;&gt;Node7</title>
<path fill="none" stroke="midnightblue" d="M254.529,-453.303C263.361,-455.952 272.223,-459.432 280,-464 300.06,-475.782 295.68,-490.672 316,-502 332.155,-511.006 352.066,-515.759 369.186,-518.261"/>
<polygon fill="midnightblue" stroke="midnightblue" points="255.194,-449.858 244.629,-450.653 253.384,-456.62 255.194,-449.858"/>
</g>
<!-- Node9 -->
<g id="node9" class="node"><title>Node9</title>
<g id="a_node9"><a xlink:href="class_ogre_1_1_base_instance_batch_v_t_f.html" target="_top" xlink:title="Instancing implementation using vertex texture through Vertex Texture Fetch (VTF) This implementation...">
<polygon fill="none" stroke="black" points="334.5,-473.5 334.5,-492.5 482.5,-492.5 482.5,-473.5 334.5,-473.5"/>
<text text-anchor="middle" x="408.5" y="-480.5" font-family="Helvetica,sans-Serif" font-size="10.00">Ogre::BaseInstanceBatchVTF</text>
</a>
</g>
</g>
<!-- Node8&#45;&gt;Node9 -->
<g id="edge8" class="edge"><title>Node8&#45;&gt;Node9</title>
<path fill="none" stroke="midnightblue" d="M267.757,-419.972C272.014,-421.734 276.141,-423.733 280,-426 300.06,-437.782 295.68,-452.672 316,-464 322.944,-467.871 330.582,-470.956 338.393,-473.415"/>
<polygon fill="midnightblue" stroke="midnightblue" points="268.874,-416.654 258.28,-416.48 266.453,-423.222 268.874,-416.654"/>
</g>
<!-- Node12 -->
<g id="node12" class="node"><title>Node12</title>
<g id="a_node12"><a xlink:href="class_ogre_1_1_instance_batch_h_w.html" target="_top" xlink:title="This is technique requires true instancing hardware support. ">
<polygon fill="none" stroke="black" points="346.5,-435.5 346.5,-454.5 470.5,-454.5 470.5,-435.5 346.5,-435.5"/>
<text text-anchor="middle" x="408.5" y="-442.5" font-family="Helvetica,sans-Serif" font-size="10.00">Ogre::InstanceBatchHW</text>
</a>
</g>
</g>
<!-- Node8&#45;&gt;Node12 -->
<g id="edge11" class="edge"><title>Node8&#45;&gt;Node12</title>
<path fill="none" stroke="midnightblue" d="M266.196,-418.418C295.099,-423.855 329.269,-430.283 356.767,-435.456"/>
<polygon fill="midnightblue" stroke="midnightblue" points="266.687,-414.949 256.212,-416.54 265.393,-421.828 266.687,-414.949"/>
</g>
<!-- Node13 -->
<g id="node13" class="node"><title>Node13</title>
<g id="a_node13"><a xlink:href="class_ogre_1_1_instance_batch_shader.html" target="_top" xlink:title="This is the same technique the old &quot;InstancedGeometry&quot; implementation used (with improvements). ">
<polygon fill="none" stroke="black" points="340,-397.5 340,-416.5 477,-416.5 477,-397.5 340,-397.5"/>
<text text-anchor="middle" x="408.5" y="-404.5" font-family="Helvetica,sans-Serif" font-size="10.00">Ogre::InstanceBatchShader</text>
</a>
</g>
</g>
<!-- Node8&#45;&gt;Node13 -->
<g id="edge12" class="edge"><title>Node8&#45;&gt;Node13</title>
<path fill="none" stroke="midnightblue" d="M268.268,-407C291.025,-407 316.821,-407 339.971,-407"/>
<polygon fill="midnightblue" stroke="midnightblue" points="268.046,-403.5 258.046,-407 268.046,-410.5 268.046,-403.5"/>
</g>
<!-- Node10 -->
<g id="node10" class="node"><title>Node10</title>
<g id="a_node10"><a xlink:href="class_ogre_1_1_instance_batch_h_w___v_t_f.html" target="_top" xlink:title="Instancing implementation using vertex texture through Vertex Texture Fetch (VTF) and hardware instan...">
<polygon fill="none" stroke="black" points="537,-492.5 537,-511.5 685,-511.5 685,-492.5 537,-492.5"/>
<text text-anchor="middle" x="611" y="-499.5" font-family="Helvetica,sans-Serif" font-size="10.00">Ogre::InstanceBatchHW_VTF</text>
</a>
</g>
</g>
<!-- Node9&#45;&gt;Node10 -->
<g id="edge9" class="edge"><title>Node9&#45;&gt;Node10</title>
<path fill="none" stroke="midnightblue" d="M492.79,-490.893C507.45,-492.282 522.609,-493.719 536.962,-495.079"/>
<polygon fill="midnightblue" stroke="midnightblue" points="493.022,-487.399 482.736,-489.94 492.361,-494.368 493.022,-487.399"/>
</g>
<!-- Node11 -->
<g id="node11" class="node"><title>Node11</title>
<g id="a_node11"><a xlink:href="class_ogre_1_1_instance_batch_v_t_f.html" target="_top" xlink:title="Ogre::InstanceBatchVTF">
<polygon fill="none" stroke="black" points="548.5,-454.5 548.5,-473.5 673.5,-473.5 673.5,-454.5 548.5,-454.5"/>
<text text-anchor="middle" x="611" y="-461.5" font-family="Helvetica,sans-Serif" font-size="10.00">Ogre::InstanceBatchVTF</text>
</a>
</g>
</g>
<!-- Node9&#45;&gt;Node11 -->
<g id="edge10" class="edge"><title>Node9&#45;&gt;Node11</title>
<path fill="none" stroke="midnightblue" d="M492.714,-475.114C511.394,-473.344 530.888,-471.497 548.496,-469.828"/>
<polygon fill="midnightblue" stroke="midnightblue" points="492.361,-471.632 482.736,-476.06 493.022,-478.601 492.361,-471.632"/>
</g>
<!-- Node17 -->
<g id="node17" class="node"><title>Node17</title>
<g id="a_node17"><a xlink:href="class_ogre_1_1_overlay_container.html" target="_top" xlink:title="A 2D element which contains other OverlayElement instances. ">
<polygon fill="none" stroke="black" points="349,-359.5 349,-378.5 468,-378.5 468,-359.5 349,-359.5"/>
<text text-anchor="middle" x="408.5" y="-366.5" font-family="Helvetica,sans-Serif" font-size="10.00">Ogre::OverlayContainer</text>
</a>
</g>
</g>
<!-- Node16&#45;&gt;Node17 -->
<g id="edge16" class="edge"><title>Node16&#45;&gt;Node17</title>
<path fill="none" stroke="midnightblue" d="M270.31,-294.426C273.696,-296.074 276.953,-297.923 280,-300 302.627,-315.422 293.032,-335.091 316,-350 325.798,-356.36 337.323,-360.646 348.827,-363.52"/>
<polygon fill="midnightblue" stroke="midnightblue" points="271.674,-291.203 261.101,-290.52 268.94,-297.647 271.674,-291.203"/>
</g>
<!-- Node20 -->
<g id="node20" class="node"><title>Node20</title>
<g id="a_node20"><a xlink:href="class_ogre_1_1_text_area_overlay_element.html" target="_top" xlink:title="This class implements an overlay element which contains simple unformatted text. ">
<polygon fill="none" stroke="black" points="332,-321.5 332,-340.5 485,-340.5 485,-321.5 332,-321.5"/>
<text text-anchor="middle" x="408.5" y="-328.5" font-family="Helvetica,sans-Serif" font-size="10.00">Ogre::TextAreaOverlayElement</text>
</a>
</g>
</g>
<!-- Node16&#45;&gt;Node20 -->
<g id="edge19" class="edge"><title>Node16&#45;&gt;Node20</title>
<path fill="none" stroke="midnightblue" d="M254.828,-293.047C263.254,-295.257 271.9,-297.62 280,-300 296.182,-304.754 299.716,-307.611 316,-312 329.002,-315.504 343.192,-318.733 356.432,-321.497"/>
<polygon fill="midnightblue" stroke="midnightblue" points="255.639,-289.641 245.082,-290.531 253.889,-296.419 255.639,-289.641"/>
</g>
<!-- Node18 -->
<g id="node18" class="node"><title>Node18</title>
<g id="a_node18"><a xlink:href="class_ogre_1_1_panel_overlay_element.html" target="_top" xlink:title="OverlayElement representing a flat, single&#45;material (or transparent) panel which can contain other el...">
<polygon fill="none" stroke="black" points="542,-359.5 542,-378.5 680,-378.5 680,-359.5 542,-359.5"/>
<text text-anchor="middle" x="611" y="-366.5" font-family="Helvetica,sans-Serif" font-size="10.00">Ogre::PanelOverlayElement</text>
</a>
</g>
</g>
<!-- Node17&#45;&gt;Node18 -->
<g id="edge17" class="edge"><title>Node17&#45;&gt;Node18</title>
<path fill="none" stroke="midnightblue" d="M478.262,-369C498.816,-369 521.335,-369 541.849,-369"/>
<polygon fill="midnightblue" stroke="midnightblue" points="478.032,-365.5 468.032,-369 478.032,-372.5 478.032,-365.5"/>
</g>
<!-- Node19 -->
<g id="node19" class="node"><title>Node19</title>
<g id="a_node19"><a xlink:href="class_ogre_1_1_border_panel_overlay_element.html" target="_top" xlink:title="A specialisation of the PanelOverlayElement to provide a panel with a border. ">
<polygon fill="none" stroke="black" points="721,-354 721,-384 852,-384 852,-354 721,-354"/>
<text text-anchor="start" x="729" y="-372" font-family="Helvetica,sans-Serif" font-size="10.00">Ogre::BorderPanelOverlay</text>
<text text-anchor="middle" x="786.5" y="-361" font-family="Helvetica,sans-Serif" font-size="10.00">Element</text>
</a>
</g>
</g>
<!-- Node18&#45;&gt;Node19 -->
<g id="edge18" class="edge"><title>Node18&#45;&gt;Node19</title>
<path fill="none" stroke="midnightblue" d="M690.209,-369C700.418,-369 710.787,-369 720.742,-369"/>
<polygon fill="midnightblue" stroke="midnightblue" points="690.074,-365.5 680.074,-369 690.074,-372.5 690.074,-365.5"/>
</g>
<!-- Node22 -->
<g id="node22" class="node"><title>Node22</title>
<g id="a_node22"><a xlink:href="class_ogre_1_1_entity_1_1_entity_shadow_renderable.html" target="_top" xlink:title="Nested class to allow entity shadows. ">
<polygon fill="none" stroke="black" points="340.5,-272 340.5,-302 476.5,-302 476.5,-272 340.5,-272"/>
<text text-anchor="start" x="348.5" y="-290" font-family="Helvetica,sans-Serif" font-size="10.00">Ogre::Entity::EntityShadow</text>
<text text-anchor="middle" x="408.5" y="-279" font-family="Helvetica,sans-Serif" font-size="10.00">Renderable</text>
</a>
</g>
</g>
<!-- Node21&#45;&gt;Node22 -->
<g id="edge21" class="edge"><title>Node21&#45;&gt;Node22</title>
<path fill="none" stroke="midnightblue" d="M254.668,-249.927C282.021,-256.562 316.332,-264.885 345.511,-271.963"/>
<polygon fill="midnightblue" stroke="midnightblue" points="255.47,-246.52 244.927,-247.564 253.82,-253.323 255.47,-246.52"/>
</g>
<!-- Node23 -->
<g id="node23" class="node"><title>Node23</title>
<g id="a_node23"><a xlink:href="class_ogre_1_1_manual_object_1_1_manual_object_section_shadow_renderable.html" target="_top" xlink:title="Nested class to allow shadows. ">
<polygon fill="none" stroke="black" points="333,-212.5 333,-253.5 484,-253.5 484,-212.5 333,-212.5"/>
<text text-anchor="start" x="341" y="-241.5" font-family="Helvetica,sans-Serif" font-size="10.00">Ogre::ManualObject</text>
<text text-anchor="start" x="341" y="-230.5" font-family="Helvetica,sans-Serif" font-size="10.00">::ManualObjectSectionShadow</text>
<text text-anchor="middle" x="408.5" y="-219.5" font-family="Helvetica,sans-Serif" font-size="10.00">Renderable</text>
</a>
</g>
</g>
<!-- Node21&#45;&gt;Node23 -->
<g id="edge22" class="edge"><title>Node21&#45;&gt;Node23</title>
<path fill="none" stroke="midnightblue" d="M278.787,-236.186C296.388,-235.75 315.205,-235.285 332.866,-234.847"/>
<polygon fill="midnightblue" stroke="midnightblue" points="278.493,-232.692 268.583,-236.439 278.667,-239.69 278.493,-232.692"/>
</g>
<!-- Node24 -->
<g id="node24" class="node"><title>Node24</title>
<g id="a_node24"><a xlink:href="class_ogre_1_1_static_geometry_1_1_l_o_d_bucket_1_1_l_o_d_shadow_renderable.html" target="_top" xlink:title="Nested class to allow shadows. ">
<polygon fill="none" stroke="black" points="316,-164 316,-194 501,-194 501,-164 316,-164"/>
<text text-anchor="start" x="324" y="-182" font-family="Helvetica,sans-Serif" font-size="10.00">Ogre::StaticGeometry</text>
<text text-anchor="middle" x="408.5" y="-171" font-family="Helvetica,sans-Serif" font-size="10.00">::LODBucket::LODShadowRenderable</text>
</a>
</g>
</g>
<!-- Node21&#45;&gt;Node24 -->
<g id="edge23" class="edge"><title>Node21&#45;&gt;Node24</title>
<path fill="none" stroke="midnightblue" d="M244.061,-225.263C265.221,-218.406 291.97,-209.952 316,-203 326.412,-199.988 337.537,-196.933 348.315,-194.059"/>
<polygon fill="midnightblue" stroke="midnightblue" points="242.886,-221.965 234.461,-228.389 245.053,-228.621 242.886,-221.965"/>
</g>
<!-- Node26 -->
<g id="node26" class="node"><title>Node26</title>
<g id="a_node26"><a xlink:href="class_ogre_1_1_instanced_geometry_1_1_geometry_bucket.html" target="_top" xlink:title="A GeometryBucket is a the lowest level bucket where geometry with the same vertex &amp; index format is s...">
<polygon fill="none" stroke="black" points="344,-115 344,-145 473,-145 473,-115 344,-115"/>
<text text-anchor="start" x="352" y="-133" font-family="Helvetica,sans-Serif" font-size="10.00">Ogre::InstancedGeometry</text>
<text text-anchor="middle" x="408.5" y="-122" font-family="Helvetica,sans-Serif" font-size="10.00">::GeometryBucket</text>
</a>
</g>
</g>
<!-- Node25&#45;&gt;Node26 -->
<g id="edge25" class="edge"><title>Node25&#45;&gt;Node26</title>
<path fill="none" stroke="midnightblue" d="M270.289,-153.774C293.762,-149.707 320.243,-145.119 343.636,-141.066"/>
<polygon fill="midnightblue" stroke="midnightblue" points="269.686,-150.326 260.431,-155.482 270.881,-157.224 269.686,-150.326"/>
</g>
<!-- Node27 -->
<g id="node27" class="node"><title>Node27</title>
<g id="a_node27"><a xlink:href="class_ogre_1_1_rectangle2_d.html" target="_top" xlink:title="Allows the rendering of a simple 2D rectangle This class renders a simple 2D rectangle; this rectangl...">
<polygon fill="none" stroke="black" points="358,-76.5 358,-95.5 459,-95.5 459,-76.5 358,-76.5"/>
<text text-anchor="middle" x="408.5" y="-83.5" font-family="Helvetica,sans-Serif" font-size="10.00">Ogre::Rectangle2D</text>
</a>
</g>
</g>
<!-- Node25&#45;&gt;Node27 -->
<g id="edge26" class="edge"><title>Node25&#45;&gt;Node27</title>
<path fill="none" stroke="midnightblue" d="M266.209,-151.944C271.024,-149.945 275.687,-147.645 280,-145 300.389,-132.496 295.26,-116.912 316,-105 328.662,-97.7274 343.73,-93.22 357.947,-90.4324"/>
<polygon fill="midnightblue" stroke="midnightblue" points="264.972,-148.67 256.813,-155.43 267.406,-155.233 264.972,-148.67"/>
</g>
<!-- Node28 -->
<g id="node28" class="node"><title>Node28</title>
<g id="a_node28"><a xlink:href="class_ogre_1_1_volume_1_1_chunk.html" target="_top" xlink:title="A single volume chunk mesh. ">
<polygon fill="none" stroke="black" points="353,-38.5 353,-57.5 464,-57.5 464,-38.5 353,-38.5"/>
<text text-anchor="middle" x="408.5" y="-45.5" font-family="Helvetica,sans-Serif" font-size="10.00">Ogre::Volume::Chunk</text>
</a>
</g>
</g>
<!-- Node25&#45;&gt;Node28 -->
<g id="edge27" class="edge"><title>Node25&#45;&gt;Node28</title>
<path fill="none" stroke="midnightblue" d="M271.754,-150.805C274.67,-149.085 277.44,-147.158 280,-145 309.194,-120.394 286.11,-90.7566 316,-67 326.415,-58.7222 339.546,-53.7979 352.584,-50.9282"/>
<polygon fill="midnightblue" stroke="midnightblue" points="270.011,-147.764 262.638,-155.374 273.147,-154.022 270.011,-147.764"/>
</g>
<!-- Node29 -->
<g id="node29" class="node"><title>Node29</title>
<g id="a_node29"><a xlink:href="class_ogre_1_1_wire_bounding_box.html" target="_top" xlink:title="Allows the rendering of a wireframe bounding box. ">
<polygon fill="none" stroke="black" points="347.5,-0.5 347.5,-19.5 469.5,-19.5 469.5,-0.5 347.5,-0.5"/>
<text text-anchor="middle" x="408.5" y="-7.5" font-family="Helvetica,sans-Serif" font-size="10.00">Ogre::WireBoundingBox</text>
</a>
</g>
</g>
<!-- Node25&#45;&gt;Node29 -->
<g id="edge28" class="edge"><title>Node25&#45;&gt;Node29</title>
<path fill="none" stroke="midnightblue" d="M273.745,-150.11C275.961,-148.567 278.058,-146.869 280,-145 318.901,-107.574 276.039,-65.2915 316,-29 324.648,-21.1466 335.669,-16.2078 347.044,-13.1653"/>
<polygon fill="midnightblue" stroke="midnightblue" points="271.605,-147.304 264.686,-155.327 275.099,-153.369 271.605,-147.304"/>
</g>
</g>
</svg>
