<?xml version="1.0" encoding="UTF-8" standalone="no"?>
<!DOCTYPE svg PUBLIC "-//W3C//DTD SVG 1.1//EN"
 "http://www.w3.org/Graphics/SVG/1.1/DTD/svg11.dtd">
<!-- Generated by graphviz version 2.38.0 (20140413.2041)
 -->
<!-- Title: Ogre::ScriptTranslatorManager Pages: 1 -->
<svg width="504pt" height="88pt"
 viewBox="0.00 0.00 504.00 88.00" xmlns="http://www.w3.org/2000/svg" xmlns:xlink="http://www.w3.org/1999/xlink">
<g id="graph0" class="graph" transform="scale(1 1) rotate(0) translate(4 84)">
<title>Ogre::ScriptTranslatorManager</title>
<!-- Node1 -->
<g id="node1" class="node"><title>Node1</title>
<polygon fill="#bfbfbf" stroke="black" points="143,-30 143,-49 293,-49 293,-30 143,-30"/>
<text text-anchor="middle" x="218" y="-37" font-family="Helvetica,sans-Serif" font-size="10.00">Ogre::ScriptTranslatorManager</text>
</g>
<!-- Node3 -->
<g id="node3" class="node"><title>Node3</title>
<g id="a_node3"><a xlink:href="class_ogre_1_1_builtin_script_translator_manager.html" target="_top" xlink:title="This class manages the builtin translators. ">
<polygon fill="none" stroke="black" points="342.5,-49.5 342.5,-79.5 482.5,-79.5 482.5,-49.5 342.5,-49.5"/>
<text text-anchor="start" x="350.5" y="-67.5" font-family="Helvetica,sans-Serif" font-size="10.00">Ogre::BuiltinScriptTranslator</text>
<text text-anchor="middle" x="412.5" y="-56.5" font-family="Helvetica,sans-Serif" font-size="10.00">Manager</text>
</a>
</g>
</g>
<!-- Node1&#45;&gt;Node3 -->
<g id="edge2" class="edge"><title>Node1&#45;&gt;Node3</title>
<path fill="none" stroke="midnightblue" d="M302.461,-50.3391C315.824,-52.0745 329.522,-53.8535 342.499,-55.5388"/>
<polygon fill="midnightblue" stroke="midnightblue" points="302.693,-46.8399 292.325,-49.0227 301.791,-53.7816 302.693,-46.8399"/>
</g>
<!-- Node4 -->
<g id="node4" class="node"><title>Node4</title>
<g id="a_node4"><a xlink:href="class_ogre_1_1_r_t_shader_1_1_shader_generator_1_1_s_g_script_translator_manager.html" target="_top" xlink:title="Shader generator ScriptTranslatorManager sub class. ">
<polygon fill="none" stroke="black" points="329,-0.5 329,-30.5 496,-30.5 496,-0.5 329,-0.5"/>
<text text-anchor="start" x="337" y="-18.5" font-family="Helvetica,sans-Serif" font-size="10.00">Ogre::RTShader::ShaderGenerator</text>
<text text-anchor="middle" x="412.5" y="-7.5" font-family="Helvetica,sans-Serif" font-size="10.00">::SGScriptTranslatorManager</text>
</a>
</g>
</g>
<!-- Node1&#45;&gt;Node4 -->
<g id="edge3" class="edge"><title>Node1&#45;&gt;Node4</title>
<path fill="none" stroke="midnightblue" d="M303.35,-28.9836C311.777,-27.933 320.328,-26.867 328.738,-25.8184"/>
<polygon fill="midnightblue" stroke="midnightblue" points="302.64,-25.5449 293.15,-30.2553 303.506,-32.4912 302.64,-25.5449"/>
</g>
<!-- Node2 -->
<g id="node2" class="node"><title>Node2</title>
<g id="a_node2"><a xlink:href="class_ogre_1_1_allocated_object.html" target="_top" xlink:title="Superclass for all objects that wish to use custom memory allocators when their new / delete operator...">
<polygon fill="none" stroke="black" points="0,-30 0,-49 107,-49 107,-30 0,-30"/>
<text text-anchor="middle" x="53.5" y="-37" font-family="Helvetica,sans-Serif" font-size="10.00">ScriptTranslatorAlloc</text>
</a>
</g>
</g>
<!-- Node2&#45;&gt;Node1 -->
<g id="edge1" class="edge"><title>Node2&#45;&gt;Node1</title>
<path fill="none" stroke="midnightblue" d="M117.333,-39.5C125.725,-39.5 134.395,-39.5 142.956,-39.5"/>
<polygon fill="midnightblue" stroke="midnightblue" points="117.259,-36.0001 107.259,-39.5 117.259,-43.0001 117.259,-36.0001"/>
</g>
</g>
</svg>
