<?xml version="1.0" encoding="UTF-8" standalone="no"?>
<!DOCTYPE svg PUBLIC "-//W3C//DTD SVG 1.1//EN"
 "http://www.w3.org/Graphics/SVG/1.1/DTD/svg11.dtd">
<!-- Generated by graphviz version 2.38.0 (20140413.2041)
 -->
<!-- Title: Ogre::ShadowRenderable Pages: 1 -->
<svg width="488pt" height="147pt"
 viewBox="0.00 0.00 488.00 147.00" xmlns="http://www.w3.org/2000/svg" xmlns:xlink="http://www.w3.org/1999/xlink">
<g id="graph0" class="graph" transform="scale(1 1) rotate(0) translate(4 143)">
<title>Ogre::ShadowRenderable</title>
<!-- Node1 -->
<g id="node1" class="node"><title>Node1</title>
<polygon fill="#bfbfbf" stroke="black" points="131,-60 131,-79 259,-79 259,-60 131,-60"/>
<text text-anchor="middle" x="195" y="-67" font-family="Helvetica,sans-Serif" font-size="10.00">Ogre::ShadowRenderable</text>
</g>
<!-- Node4 -->
<g id="node4" class="node"><title>Node4</title>
<g id="a_node4"><a xlink:href="class_ogre_1_1_entity_1_1_entity_shadow_renderable.html" target="_top" xlink:title="Nested class to allow entity shadows. ">
<polygon fill="none" stroke="black" points="319.5,-108.5 319.5,-138.5 455.5,-138.5 455.5,-108.5 319.5,-108.5"/>
<text text-anchor="start" x="327.5" y="-126.5" font-family="Helvetica,sans-Serif" font-size="10.00">Ogre::Entity::EntityShadow</text>
<text text-anchor="middle" x="387.5" y="-115.5" font-family="Helvetica,sans-Serif" font-size="10.00">Renderable</text>
</a>
</g>
</g>
<!-- Node1&#45;&gt;Node4 -->
<g id="edge3" class="edge"><title>Node1&#45;&gt;Node4</title>
<path fill="none" stroke="midnightblue" d="M236.254,-82.0741C254.191,-87.5798 275.606,-94.02 295,-99.5 305.589,-102.492 316.902,-105.562 327.836,-108.464"/>
<polygon fill="midnightblue" stroke="midnightblue" points="237.269,-78.7246 226.682,-79.1236 235.207,-85.414 237.269,-78.7246"/>
</g>
<!-- Node5 -->
<g id="node5" class="node"><title>Node5</title>
<g id="a_node5"><a xlink:href="class_ogre_1_1_manual_object_1_1_manual_object_section_shadow_renderable.html" target="_top" xlink:title="Nested class to allow shadows. ">
<polygon fill="none" stroke="black" points="312,-49 312,-90 463,-90 463,-49 312,-49"/>
<text text-anchor="start" x="320" y="-78" font-family="Helvetica,sans-Serif" font-size="10.00">Ogre::ManualObject</text>
<text text-anchor="start" x="320" y="-67" font-family="Helvetica,sans-Serif" font-size="10.00">::ManualObjectSectionShadow</text>
<text text-anchor="middle" x="387.5" y="-56" font-family="Helvetica,sans-Serif" font-size="10.00">Renderable</text>
</a>
</g>
</g>
<!-- Node1&#45;&gt;Node5 -->
<g id="edge4" class="edge"><title>Node1&#45;&gt;Node5</title>
<path fill="none" stroke="midnightblue" d="M269.225,-69.5C283.223,-69.5 297.893,-69.5 311.933,-69.5"/>
<polygon fill="midnightblue" stroke="midnightblue" points="269.169,-66.0001 259.169,-69.5 269.169,-73.0001 269.169,-66.0001"/>
</g>
<!-- Node6 -->
<g id="node6" class="node"><title>Node6</title>
<g id="a_node6"><a xlink:href="class_ogre_1_1_static_geometry_1_1_l_o_d_bucket_1_1_l_o_d_shadow_renderable.html" target="_top" xlink:title="Nested class to allow shadows. ">
<polygon fill="none" stroke="black" points="295,-0.5 295,-30.5 480,-30.5 480,-0.5 295,-0.5"/>
<text text-anchor="start" x="303" y="-18.5" font-family="Helvetica,sans-Serif" font-size="10.00">Ogre::StaticGeometry</text>
<text text-anchor="middle" x="387.5" y="-7.5" font-family="Helvetica,sans-Serif" font-size="10.00">::LODBucket::LODShadowRenderable</text>
</a>
</g>
</g>
<!-- Node1&#45;&gt;Node6 -->
<g id="edge5" class="edge"><title>Node1&#45;&gt;Node6</title>
<path fill="none" stroke="midnightblue" d="M236.254,-56.9259C254.191,-51.4202 275.606,-44.98 295,-39.5 305.589,-36.5081 316.902,-33.4384 327.836,-30.5365"/>
<polygon fill="midnightblue" stroke="midnightblue" points="235.207,-53.586 226.682,-59.8764 237.269,-60.2754 235.207,-53.586"/>
</g>
<!-- Node2 -->
<g id="node2" class="node"><title>Node2</title>
<g id="a_node2"><a xlink:href="class_ogre_1_1_renderable.html" target="_top" xlink:title="Abstract class defining the interface all renderable objects must implement. ">
<polygon fill="none" stroke="black" points="1,-79 1,-98 94,-98 94,-79 1,-79"/>
<text text-anchor="middle" x="47.5" y="-86" font-family="Helvetica,sans-Serif" font-size="10.00">Ogre::Renderable</text>
</a>
</g>
</g>
<!-- Node2&#45;&gt;Node1 -->
<g id="edge1" class="edge"><title>Node2&#45;&gt;Node1</title>
<path fill="none" stroke="midnightblue" d="M104.208,-81.2255C112.949,-80.0839 122.039,-78.897 130.932,-77.7357"/>
<polygon fill="midnightblue" stroke="midnightblue" points="103.6,-77.7749 94.1379,-82.5404 104.507,-84.716 103.6,-77.7749"/>
</g>
<!-- Node3 -->
<g id="node3" class="node"><title>Node3</title>
<g id="a_node3"><a xlink:href="class_ogre_1_1_allocated_object.html" target="_top" xlink:title="Superclass for all objects that wish to use custom memory allocators when their new / delete operator...">
<polygon fill="none" stroke="black" points="0,-41 0,-60 95,-60 95,-41 0,-41"/>
<text text-anchor="middle" x="47.5" y="-48" font-family="Helvetica,sans-Serif" font-size="10.00">ShadowDataAlloc</text>
</a>
</g>
</g>
<!-- Node3&#45;&gt;Node1 -->
<g id="edge2" class="edge"><title>Node3&#45;&gt;Node1</title>
<path fill="none" stroke="midnightblue" d="M105.345,-57.923C113.693,-59.0132 122.336,-60.1418 130.803,-61.2475"/>
<polygon fill="midnightblue" stroke="midnightblue" points="105.707,-54.4407 95.338,-56.6163 104.801,-61.3818 105.707,-54.4407"/>
</g>
</g>
</svg>
