<?xml version="1.0" encoding="UTF-8" standalone="no"?>
<!DOCTYPE svg PUBLIC "-//W3C//DTD SVG 1.1//EN"
 "http://www.w3.org/Graphics/SVG/1.1/DTD/svg11.dtd">
<!-- Generated by graphviz version 2.38.0 (20140413.2041)
 -->
<!-- Title: Ogre::ShadowCaster Pages: 1 -->
<svg width="805pt" height="557pt"
 viewBox="0.00 0.00 805.00 556.50" xmlns="http://www.w3.org/2000/svg" xmlns:xlink="http://www.w3.org/1999/xlink">
<g id="graph0" class="graph" transform="scale(1 1) rotate(0) translate(4 552.5)">
<title>Ogre::ShadowCaster</title>
<!-- Node1 -->
<g id="node1" class="node"><title>Node1</title>
<polygon fill="#bfbfbf" stroke="black" points="0,-273 0,-292 108,-292 108,-273 0,-273"/>
<text text-anchor="middle" x="54" y="-280" font-family="Helvetica,sans-Serif" font-size="10.00">Ogre::ShadowCaster</text>
</g>
<!-- Node2 -->
<g id="node2" class="node"><title>Node2</title>
<g id="a_node2"><a xlink:href="class_ogre_1_1_movable_object.html" target="_top" xlink:title="Abstract class defining a movable object in a scene. ">
<polygon fill="none" stroke="black" points="144,-273 144,-292 253,-292 253,-273 144,-273"/>
<text text-anchor="middle" x="198.5" y="-280" font-family="Helvetica,sans-Serif" font-size="10.00">Ogre::MovableObject</text>
</a>
</g>
</g>
<!-- Node1&#45;&gt;Node2 -->
<g id="edge1" class="edge"><title>Node1&#45;&gt;Node2</title>
<path fill="none" stroke="midnightblue" d="M118.079,-282.5C126.702,-282.5 135.487,-282.5 143.919,-282.5"/>
<polygon fill="midnightblue" stroke="midnightblue" points="118.062,-279 108.062,-282.5 118.062,-286 118.062,-279"/>
</g>
<!-- Node3 -->
<g id="node3" class="node"><title>Node3</title>
<g id="a_node3"><a xlink:href="class_ogre_1_1_billboard_chain.html" target="_top" xlink:title="Allows the rendering of a chain of connected billboards. ">
<polygon fill="none" stroke="black" points="305.5,-529 305.5,-548 412.5,-548 412.5,-529 305.5,-529"/>
<text text-anchor="middle" x="359" y="-536" font-family="Helvetica,sans-Serif" font-size="10.00">Ogre::BillboardChain</text>
</a>
</g>
</g>
<!-- Node2&#45;&gt;Node3 -->
<g id="edge2" class="edge"><title>Node2&#45;&gt;Node3</title>
<path fill="none" stroke="midnightblue" d="M201.074,-302.392C205.76,-347.84 223.68,-459.951 289,-519.5 293.775,-523.853 299.457,-527.221 305.48,-529.826"/>
<polygon fill="midnightblue" stroke="midnightblue" points="204.551,-301.982 200.147,-292.346 197.581,-302.625 204.551,-301.982"/>
</g>
<!-- Node5 -->
<g id="node5" class="node"><title>Node5</title>
<g id="a_node5"><a xlink:href="class_ogre_1_1_billboard_set.html" target="_top" xlink:title="A collection of billboards (faces which are always facing the given direction) with the same (default...">
<polygon fill="none" stroke="black" points="311,-491 311,-510 407,-510 407,-491 311,-491"/>
<text text-anchor="middle" x="359" y="-498" font-family="Helvetica,sans-Serif" font-size="10.00">Ogre::BillboardSet</text>
</a>
</g>
</g>
<!-- Node2&#45;&gt;Node5 -->
<g id="edge4" class="edge"><title>Node2&#45;&gt;Node5</title>
<path fill="none" stroke="midnightblue" d="M202.641,-302.146C210.083,-342.109 232.587,-433.165 289,-481.5 295.227,-486.836 302.83,-490.683 310.685,-493.455"/>
<polygon fill="midnightblue" stroke="midnightblue" points="206.056,-301.352 200.892,-292.1 199.159,-302.552 206.056,-301.352"/>
</g>
<!-- Node6 -->
<g id="node6" class="node"><title>Node6</title>
<g id="a_node6"><a xlink:href="class_ogre_1_1_entity.html" target="_top" xlink:title="Defines an instance of a discrete, movable object based on a Mesh. ">
<polygon fill="none" stroke="black" points="324.5,-453 324.5,-472 393.5,-472 393.5,-453 324.5,-453"/>
<text text-anchor="middle" x="359" y="-460" font-family="Helvetica,sans-Serif" font-size="10.00">Ogre::Entity</text>
</a>
</g>
</g>
<!-- Node2&#45;&gt;Node6 -->
<g id="edge5" class="edge"><title>Node2&#45;&gt;Node6</title>
<path fill="none" stroke="midnightblue" d="M204.836,-301.872C215.206,-335.832 241.353,-406.056 289,-443.5 299.062,-451.408 312.197,-456.028 324.304,-458.726"/>
<polygon fill="midnightblue" stroke="midnightblue" points="208.177,-300.827 202.016,-292.207 201.457,-302.787 208.177,-300.827"/>
</g>
<!-- Node7 -->
<g id="node7" class="node"><title>Node7</title>
<g id="a_node7"><a xlink:href="class_ogre_1_1_frustum.html" target="_top" xlink:title="A frustum represents a pyramid, capped at the near and far end which is used to represent either a vi...">
<polygon fill="none" stroke="black" points="319,-415 319,-434 399,-434 399,-415 319,-415"/>
<text text-anchor="middle" x="359" y="-422" font-family="Helvetica,sans-Serif" font-size="10.00">Ogre::Frustum</text>
</a>
</g>
</g>
<!-- Node2&#45;&gt;Node7 -->
<g id="edge6" class="edge"><title>Node2&#45;&gt;Node7</title>
<path fill="none" stroke="midnightblue" d="M208.144,-301.432C221.54,-328.63 249.907,-378.454 289,-405.5 297.787,-411.58 308.458,-415.719 318.754,-418.535"/>
<polygon fill="midnightblue" stroke="midnightblue" points="211.211,-299.734 203.751,-292.211 204.892,-302.744 211.211,-299.734"/>
</g>
<!-- Node9 -->
<g id="node9" class="node"><title>Node9</title>
<g id="a_node9"><a xlink:href="class_ogre_1_1_instance_batch.html" target="_top" xlink:title="InstanceBatch forms part of the new Instancing system This is an abstract class that must be derived ...">
<polygon fill="none" stroke="black" points="305.5,-377 305.5,-396 412.5,-396 412.5,-377 305.5,-377"/>
<text text-anchor="middle" x="359" y="-384" font-family="Helvetica,sans-Serif" font-size="10.00">Ogre::InstanceBatch</text>
</a>
</g>
</g>
<!-- Node2&#45;&gt;Node9 -->
<g id="edge8" class="edge"><title>Node2&#45;&gt;Node9</title>
<path fill="none" stroke="midnightblue" d="M213.313,-300.011C229.46,-319.32 257.956,-349.966 289,-367.5 295.816,-371.35 303.456,-374.455 311.101,-376.95"/>
<polygon fill="midnightblue" stroke="midnightblue" points="216.023,-297.796 206.987,-292.264 210.6,-302.223 216.023,-297.796"/>
</g>
<!-- Node15 -->
<g id="node15" class="node"><title>Node15</title>
<g id="a_node15"><a xlink:href="class_ogre_1_1_instanced_entity.html" target="_top" xlink:title="Ogre::InstancedEntity">
<polygon fill="none" stroke="black" points="303,-339 303,-358 415,-358 415,-339 303,-339"/>
<text text-anchor="middle" x="359" y="-346" font-family="Helvetica,sans-Serif" font-size="10.00">Ogre::InstancedEntity</text>
</a>
</g>
</g>
<!-- Node2&#45;&gt;Node15 -->
<g id="edge14" class="edge"><title>Node2&#45;&gt;Node15</title>
<path fill="none" stroke="midnightblue" d="M224.195,-297.315C241.797,-307.412 266.275,-320.525 289,-329.5 298.13,-333.106 308.195,-336.295 317.75,-338.982"/>
<polygon fill="midnightblue" stroke="midnightblue" points="225.58,-294.072 215.177,-292.062 222.056,-300.12 225.58,-294.072"/>
</g>
<!-- Node16 -->
<g id="node16" class="node"><title>Node16</title>
<g id="a_node16"><a xlink:href="class_ogre_1_1_instanced_geometry_1_1_batch_instance.html" target="_top" xlink:title="The details of a topological BatchInstance which is the highest level of partitioning for this class...">
<polygon fill="none" stroke="black" points="294.5,-289.5 294.5,-319.5 423.5,-319.5 423.5,-289.5 294.5,-289.5"/>
<text text-anchor="start" x="302.5" y="-307.5" font-family="Helvetica,sans-Serif" font-size="10.00">Ogre::InstancedGeometry</text>
<text text-anchor="middle" x="359" y="-296.5" font-family="Helvetica,sans-Serif" font-size="10.00">::BatchInstance</text>
</a>
</g>
</g>
<!-- Node2&#45;&gt;Node16 -->
<g id="edge15" class="edge"><title>Node2&#45;&gt;Node16</title>
<path fill="none" stroke="midnightblue" d="M263.235,-291.346C273.455,-292.765 284.033,-294.233 294.253,-295.652"/>
<polygon fill="midnightblue" stroke="midnightblue" points="263.547,-287.856 253.161,-289.948 262.585,-294.79 263.547,-287.856"/>
</g>
<!-- Node17 -->
<g id="node17" class="node"><title>Node17</title>
<g id="a_node17"><a xlink:href="class_ogre_1_1_light.html" target="_top" xlink:title="Representation of a dynamic light source in the scene. ">
<polygon fill="none" stroke="black" points="326.5,-251 326.5,-270 391.5,-270 391.5,-251 326.5,-251"/>
<text text-anchor="middle" x="359" y="-258" font-family="Helvetica,sans-Serif" font-size="10.00">Ogre::Light</text>
</a>
</g>
</g>
<!-- Node2&#45;&gt;Node17 -->
<g id="edge16" class="edge"><title>Node2&#45;&gt;Node17</title>
<path fill="none" stroke="midnightblue" d="M263.28,-273.647C284.889,-270.648 308.094,-267.427 326.128,-264.924"/>
<polygon fill="midnightblue" stroke="midnightblue" points="262.585,-270.21 253.161,-275.052 263.547,-277.144 262.585,-270.21"/>
</g>
<!-- Node18 -->
<g id="node18" class="node"><title>Node18</title>
<g id="a_node18"><a xlink:href="class_ogre_1_1_manual_object.html" target="_top" xlink:title="Class providing a much simplified interface to generating manual objects with custom geometry...">
<polygon fill="none" stroke="black" points="307,-213 307,-232 411,-232 411,-213 307,-213"/>
<text text-anchor="middle" x="359" y="-220" font-family="Helvetica,sans-Serif" font-size="10.00">Ogre::ManualObject</text>
</a>
</g>
</g>
<!-- Node2&#45;&gt;Node18 -->
<g id="edge17" class="edge"><title>Node2&#45;&gt;Node18</title>
<path fill="none" stroke="midnightblue" d="M227.046,-268.483C244.504,-259.953 267.726,-249.245 289,-241.5 298.574,-238.015 309.094,-234.813 318.972,-232.07"/>
<polygon fill="midnightblue" stroke="midnightblue" points="225.4,-265.393 217.99,-272.966 228.505,-271.667 225.4,-265.393"/>
</g>
<!-- Node19 -->
<g id="node19" class="node"><title>Node19</title>
<g id="a_node19"><a xlink:href="class_ogre_1_1_movable_plane.html" target="_top" xlink:title="Definition of a Plane that may be attached to a node, and the derived details of it retrieved simply...">
<polygon fill="none" stroke="black" points="306.5,-175 306.5,-194 411.5,-194 411.5,-175 306.5,-175"/>
<text text-anchor="middle" x="359" y="-182" font-family="Helvetica,sans-Serif" font-size="10.00">Ogre::MovablePlane</text>
</a>
</g>
</g>
<!-- Node2&#45;&gt;Node19 -->
<g id="edge18" class="edge"><title>Node2&#45;&gt;Node19</title>
<path fill="none" stroke="midnightblue" d="M214.317,-265.458C230.817,-247.512 259.124,-219.664 289,-203.5 296.103,-199.657 304.048,-196.54 311.948,-194.029"/>
<polygon fill="midnightblue" stroke="midnightblue" points="211.684,-263.152 207.603,-272.929 216.89,-267.831 211.684,-263.152"/>
</g>
<!-- Node20 -->
<g id="node20" class="node"><title>Node20</title>
<g id="a_node20"><a xlink:href="class_ogre_1_1_particle_system.html" target="_top" xlink:title="Class defining particle system based special effects. ">
<polygon fill="none" stroke="black" points="304,-137 304,-156 414,-156 414,-137 304,-137"/>
<text text-anchor="middle" x="359" y="-144" font-family="Helvetica,sans-Serif" font-size="10.00">Ogre::ParticleSystem</text>
</a>
</g>
</g>
<!-- Node2&#45;&gt;Node20 -->
<g id="edge19" class="edge"><title>Node2&#45;&gt;Node20</title>
<path fill="none" stroke="midnightblue" d="M208.775,-263.765C222.625,-237.745 251.187,-190.996 289,-165.5 294.769,-161.61 301.316,-158.513 308.024,-156.048"/>
<polygon fill="midnightblue" stroke="midnightblue" points="205.52,-262.441 204.049,-272.934 211.742,-265.648 205.52,-262.441"/>
</g>
<!-- Node21 -->
<g id="node21" class="node"><title>Node21</title>
<g id="a_node21"><a xlink:href="class_ogre_1_1_simple_renderable.html" target="_top" xlink:title="Simple implementation of MovableObject and Renderable for single&#45;part custom objects. ">
<polygon fill="none" stroke="black" points="297.5,-99 297.5,-118 420.5,-118 420.5,-99 297.5,-99"/>
<text text-anchor="middle" x="359" y="-106" font-family="Helvetica,sans-Serif" font-size="10.00">Ogre::SimpleRenderable</text>
</a>
</g>
</g>
<!-- Node2&#45;&gt;Node21 -->
<g id="edge20" class="edge"><title>Node2&#45;&gt;Node21</title>
<path fill="none" stroke="midnightblue" d="M205.345,-262.943C216.24,-229.908 242.831,-163.178 289,-127.5 294.014,-123.625 299.769,-120.54 305.77,-118.084"/>
<polygon fill="midnightblue" stroke="midnightblue" points="201.918,-262.171 202.246,-272.76 208.594,-264.278 201.918,-262.171"/>
</g>
<!-- Node26 -->
<g id="node26" class="node"><title>Node26</title>
<g id="a_node26"><a xlink:href="class_ogre_1_1_static_geometry_1_1_region.html" target="_top" xlink:title="The details of a topological region which is the highest level of partitioning for this class...">
<polygon fill="none" stroke="black" points="303,-49.5 303,-79.5 415,-79.5 415,-49.5 303,-49.5"/>
<text text-anchor="start" x="311" y="-67.5" font-family="Helvetica,sans-Serif" font-size="10.00">Ogre::StaticGeometry</text>
<text text-anchor="middle" x="359" y="-56.5" font-family="Helvetica,sans-Serif" font-size="10.00">::Region</text>
</a>
</g>
</g>
<!-- Node2&#45;&gt;Node26 -->
<g id="edge25" class="edge"><title>Node2&#45;&gt;Node26</title>
<path fill="none" stroke="midnightblue" d="M203.311,-263.005C211.829,-224.477 235.977,-138.118 289,-89.5 293.226,-85.6251 298.098,-82.34 303.259,-79.557"/>
<polygon fill="midnightblue" stroke="midnightblue" points="199.856,-262.428 201.232,-272.933 206.707,-263.863 199.856,-262.428"/>
</g>
<!-- Node27 -->
<g id="node27" class="node"><title>Node27</title>
<g id="a_node27"><a xlink:href="class_ogre_1_1_terrain_quad_tree_node_1_1_movable.html" target="_top" xlink:title="MovableObject implementation to provide the hook to the scene. ">
<polygon fill="none" stroke="black" points="289,-0.5 289,-30.5 429,-30.5 429,-0.5 289,-0.5"/>
<text text-anchor="start" x="297" y="-18.5" font-family="Helvetica,sans-Serif" font-size="10.00">Ogre::TerrainQuadTreeNode</text>
<text text-anchor="middle" x="359" y="-7.5" font-family="Helvetica,sans-Serif" font-size="10.00">::Movable</text>
</a>
</g>
</g>
<!-- Node2&#45;&gt;Node27 -->
<g id="edge26" class="edge"><title>Node2&#45;&gt;Node27</title>
<path fill="none" stroke="midnightblue" d="M201.192,-262.417C206.127,-216.473 224.534,-102.805 289,-39.5 292.529,-36.0343 296.585,-33.0675 300.924,-30.5281"/>
<polygon fill="midnightblue" stroke="midnightblue" points="197.69,-262.275 200.208,-272.566 204.657,-262.951 197.69,-262.275"/>
</g>
<!-- Node4 -->
<g id="node4" class="node"><title>Node4</title>
<g id="a_node4"><a xlink:href="class_ogre_1_1_ribbon_trail.html" target="_top" xlink:title="Subclass of BillboardChain which automatically leaves a trail behind one or more Node instances...">
<polygon fill="none" stroke="black" points="492.5,-529 492.5,-548 585.5,-548 585.5,-529 492.5,-529"/>
<text text-anchor="middle" x="539" y="-536" font-family="Helvetica,sans-Serif" font-size="10.00">Ogre::RibbonTrail</text>
</a>
</g>
</g>
<!-- Node3&#45;&gt;Node4 -->
<g id="edge3" class="edge"><title>Node3&#45;&gt;Node4</title>
<path fill="none" stroke="midnightblue" d="M423.19,-538.5C445.966,-538.5 471.209,-538.5 492.213,-538.5"/>
<polygon fill="midnightblue" stroke="midnightblue" points="422.924,-535 412.924,-538.5 422.924,-542 422.924,-535"/>
</g>
<!-- Node8 -->
<g id="node8" class="node"><title>Node8</title>
<g id="a_node8"><a xlink:href="class_ogre_1_1_camera.html" target="_top" xlink:title="A viewpoint from which the scene will be rendered. ">
<polygon fill="none" stroke="black" points="500,-434 500,-453 578,-453 578,-434 500,-434"/>
<text text-anchor="middle" x="539" y="-441" font-family="Helvetica,sans-Serif" font-size="10.00">Ogre::Camera</text>
</a>
</g>
</g>
<!-- Node7&#45;&gt;Node8 -->
<g id="edge7" class="edge"><title>Node7&#45;&gt;Node8</title>
<path fill="none" stroke="midnightblue" d="M409.273,-429.76C437.916,-432.817 473.466,-436.612 499.945,-439.438"/>
<polygon fill="midnightblue" stroke="midnightblue" points="409.378,-426.251 399.063,-428.67 408.635,-433.211 409.378,-426.251"/>
</g>
<!-- Node10 -->
<g id="node10" class="node"><title>Node10</title>
<g id="a_node10"><a xlink:href="class_ogre_1_1_base_instance_batch_v_t_f.html" target="_top" xlink:title="Instancing implementation using vertex texture through Vertex Texture Fetch (VTF) This implementation...">
<polygon fill="none" stroke="black" points="465,-396 465,-415 613,-415 613,-396 465,-396"/>
<text text-anchor="middle" x="539" y="-403" font-family="Helvetica,sans-Serif" font-size="10.00">Ogre::BaseInstanceBatchVTF</text>
</a>
</g>
</g>
<!-- Node9&#45;&gt;Node10 -->
<g id="edge9" class="edge"><title>Node9&#45;&gt;Node10</title>
<path fill="none" stroke="midnightblue" d="M423.07,-393.232C436.592,-394.676 450.989,-396.212 464.855,-397.692"/>
<polygon fill="midnightblue" stroke="midnightblue" points="423.239,-389.73 412.924,-392.149 422.496,-396.691 423.239,-389.73"/>
</g>
<!-- Node13 -->
<g id="node13" class="node"><title>Node13</title>
<g id="a_node13"><a xlink:href="class_ogre_1_1_instance_batch_h_w.html" target="_top" xlink:title="This is technique requires true instancing hardware support. ">
<polygon fill="none" stroke="black" points="477,-358 477,-377 601,-377 601,-358 477,-358"/>
<text text-anchor="middle" x="539" y="-365" font-family="Helvetica,sans-Serif" font-size="10.00">Ogre::InstanceBatchHW</text>
</a>
</g>
</g>
<!-- Node9&#45;&gt;Node13 -->
<g id="edge12" class="edge"><title>Node9&#45;&gt;Node13</title>
<path fill="none" stroke="midnightblue" d="M423.025,-379.773C440.508,-377.906 459.457,-375.884 476.832,-374.029"/>
<polygon fill="midnightblue" stroke="midnightblue" points="422.496,-376.309 412.924,-380.851 423.239,-383.27 422.496,-376.309"/>
</g>
<!-- Node14 -->
<g id="node14" class="node"><title>Node14</title>
<g id="a_node14"><a xlink:href="class_ogre_1_1_instance_batch_shader.html" target="_top" xlink:title="This is the same technique the old &quot;InstancedGeometry&quot; implementation used (with improvements). ">
<polygon fill="none" stroke="black" points="470.5,-320 470.5,-339 607.5,-339 607.5,-320 470.5,-320"/>
<text text-anchor="middle" x="539" y="-327" font-family="Helvetica,sans-Serif" font-size="10.00">Ogre::InstanceBatchShader</text>
</a>
</g>
</g>
<!-- Node9&#45;&gt;Node14 -->
<g id="edge13" class="edge"><title>Node9&#45;&gt;Node14</title>
<path fill="none" stroke="midnightblue" d="M410.23,-374.048C416.618,-372.063 423.011,-369.872 429,-367.5 445.82,-360.837 448.133,-355.044 465,-348.5 474.401,-344.852 484.751,-341.68 494.628,-339.027"/>
<polygon fill="midnightblue" stroke="midnightblue" points="408.854,-370.806 400.255,-376.996 410.837,-377.519 408.854,-370.806"/>
</g>
<!-- Node11 -->
<g id="node11" class="node"><title>Node11</title>
<g id="a_node11"><a xlink:href="class_ogre_1_1_instance_batch_h_w___v_t_f.html" target="_top" xlink:title="Instancing implementation using vertex texture through Vertex Texture Fetch (VTF) and hardware instan...">
<polygon fill="none" stroke="black" points="649,-415 649,-434 797,-434 797,-415 649,-415"/>
<text text-anchor="middle" x="723" y="-422" font-family="Helvetica,sans-Serif" font-size="10.00">Ogre::InstanceBatchHW_VTF</text>
</a>
</g>
</g>
<!-- Node10&#45;&gt;Node11 -->
<g id="edge10" class="edge"><title>Node10&#45;&gt;Node11</title>
<path fill="none" stroke="midnightblue" d="M623.237,-414.19C631.804,-415.084 640.464,-415.988 648.91,-416.87"/>
<polygon fill="midnightblue" stroke="midnightblue" points="623.549,-410.703 613.24,-413.146 622.822,-417.665 623.549,-410.703"/>
</g>
<!-- Node12 -->
<g id="node12" class="node"><title>Node12</title>
<g id="a_node12"><a xlink:href="class_ogre_1_1_instance_batch_v_t_f.html" target="_top" xlink:title="Ogre::InstanceBatchVTF">
<polygon fill="none" stroke="black" points="660.5,-377 660.5,-396 785.5,-396 785.5,-377 660.5,-377"/>
<text text-anchor="middle" x="723" y="-384" font-family="Helvetica,sans-Serif" font-size="10.00">Ogre::InstanceBatchVTF</text>
</a>
</g>
</g>
<!-- Node10&#45;&gt;Node12 -->
<g id="edge11" class="edge"><title>Node10&#45;&gt;Node12</title>
<path fill="none" stroke="midnightblue" d="M623.194,-396.815C635.682,-395.511 648.368,-394.187 660.301,-392.941"/>
<polygon fill="midnightblue" stroke="midnightblue" points="622.822,-393.335 613.24,-397.854 623.549,-400.297 622.822,-393.335"/>
</g>
<!-- Node22 -->
<g id="node22" class="node"><title>Node22</title>
<g id="a_node22"><a xlink:href="class_ogre_1_1_instanced_geometry_1_1_geometry_bucket.html" target="_top" xlink:title="A GeometryBucket is a the lowest level bucket where geometry with the same vertex &amp; index format is s...">
<polygon fill="none" stroke="black" points="474.5,-156.5 474.5,-186.5 603.5,-186.5 603.5,-156.5 474.5,-156.5"/>
<text text-anchor="start" x="482.5" y="-174.5" font-family="Helvetica,sans-Serif" font-size="10.00">Ogre::InstancedGeometry</text>
<text text-anchor="middle" x="539" y="-163.5" font-family="Helvetica,sans-Serif" font-size="10.00">::GeometryBucket</text>
</a>
</g>
</g>
<!-- Node21&#45;&gt;Node22 -->
<g id="edge21" class="edge"><title>Node21&#45;&gt;Node22</title>
<path fill="none" stroke="midnightblue" d="M410.23,-120.952C416.618,-122.937 423.011,-125.128 429,-127.5 445.82,-134.163 448.392,-139.325 465,-146.5 473.117,-150.006 481.9,-153.366 490.467,-156.423"/>
<polygon fill="midnightblue" stroke="midnightblue" points="410.837,-117.481 400.255,-118.004 408.854,-124.194 410.837,-117.481"/>
</g>
<!-- Node23 -->
<g id="node23" class="node"><title>Node23</title>
<g id="a_node23"><a xlink:href="class_ogre_1_1_rectangle2_d.html" target="_top" xlink:title="Allows the rendering of a simple 2D rectangle This class renders a simple 2D rectangle; this rectangl...">
<polygon fill="none" stroke="black" points="488.5,-118 488.5,-137 589.5,-137 589.5,-118 488.5,-118"/>
<text text-anchor="middle" x="539" y="-125" font-family="Helvetica,sans-Serif" font-size="10.00">Ogre::Rectangle2D</text>
</a>
</g>
</g>
<!-- Node21&#45;&gt;Node23 -->
<g id="edge22" class="edge"><title>Node21&#45;&gt;Node23</title>
<path fill="none" stroke="midnightblue" d="M430.732,-116.05C450.05,-118.112 470.567,-120.302 488.429,-122.209"/>
<polygon fill="midnightblue" stroke="midnightblue" points="431.075,-112.567 420.76,-114.986 430.332,-119.527 431.075,-112.567"/>
</g>
<!-- Node24 -->
<g id="node24" class="node"><title>Node24</title>
<g id="a_node24"><a xlink:href="class_ogre_1_1_volume_1_1_chunk.html" target="_top" xlink:title="A single volume chunk mesh. ">
<polygon fill="none" stroke="black" points="483.5,-80 483.5,-99 594.5,-99 594.5,-80 483.5,-80"/>
<text text-anchor="middle" x="539" y="-87" font-family="Helvetica,sans-Serif" font-size="10.00">Ogre::Volume::Chunk</text>
</a>
</g>
</g>
<!-- Node21&#45;&gt;Node24 -->
<g id="edge23" class="edge"><title>Node21&#45;&gt;Node24</title>
<path fill="none" stroke="midnightblue" d="M430.928,-100.929C448.427,-99.0612 466.899,-97.0895 483.481,-95.3194"/>
<polygon fill="midnightblue" stroke="midnightblue" points="430.332,-97.4727 420.76,-102.014 431.075,-104.433 430.332,-97.4727"/>
</g>
<!-- Node25 -->
<g id="node25" class="node"><title>Node25</title>
<g id="a_node25"><a xlink:href="class_ogre_1_1_wire_bounding_box.html" target="_top" xlink:title="Allows the rendering of a wireframe bounding box. ">
<polygon fill="none" stroke="black" points="478,-42 478,-61 600,-61 600,-42 478,-42"/>
<text text-anchor="middle" x="539" y="-49" font-family="Helvetica,sans-Serif" font-size="10.00">Ogre::WireBoundingBox</text>
</a>
</g>
</g>
<!-- Node21&#45;&gt;Node25 -->
<g id="edge24" class="edge"><title>Node21&#45;&gt;Node25</title>
<path fill="none" stroke="midnightblue" d="M407.474,-95.9742C414.757,-93.6988 422.133,-91.1865 429,-88.5 445.659,-81.9831 448.253,-76.7872 465,-70.5 474.563,-66.9099 485.076,-63.7436 495.071,-61.0762"/>
<polygon fill="midnightblue" stroke="midnightblue" points="406.226,-92.6945 397.656,-98.9242 408.24,-99.3984 406.226,-92.6945"/>
</g>
</g>
</svg>
