<?xml version="1.0" encoding="UTF-8" standalone="no"?>
<!DOCTYPE svg PUBLIC "-//W3C//DTD SVG 1.1//EN"
 "http://www.w3.org/Graphics/SVG/1.1/DTD/svg11.dtd">
<!-- Generated by graphviz version 2.38.0 (20140413.2041)
 -->
<!-- Title: Ogre::TerrainMaterialGeneratorA::SM2Profile::ShaderHelper Pages: 1 -->
<svg width="683pt" height="137pt"
 viewBox="0.00 0.00 683.00 137.00" xmlns="http://www.w3.org/2000/svg" xmlns:xlink="http://www.w3.org/1999/xlink">
<g id="graph0" class="graph" transform="scale(1 1) rotate(0) translate(4 133)">
<title>Ogre::TerrainMaterialGeneratorA::SM2Profile::ShaderHelper</title>
<!-- Node1 -->
<g id="node1" class="node"><title>Node1</title>
<polygon fill="#bfbfbf" stroke="black" points="104,-49.5 104,-79.5 255,-79.5 255,-49.5 104,-49.5"/>
<text text-anchor="start" x="112" y="-67.5" font-family="Helvetica,sans-Serif" font-size="10.00">Ogre::TerrainMaterialGenerator</text>
<text text-anchor="middle" x="179.5" y="-56.5" font-family="Helvetica,sans-Serif" font-size="10.00">A::SM2Profile::ShaderHelper</text>
</g>
<!-- Node3 -->
<g id="node3" class="node"><title>Node3</title>
<g id="a_node3"><a xlink:href="class_ogre_1_1_terrain_material_generator_a_1_1_s_m2_profile_1_1_shader_helper_cg.html" target="_top" xlink:title="Utility class to help with generating shaders for Cg / HLSL. ">
<polygon fill="none" stroke="black" points="304,-98.5 304,-128.5 459,-128.5 459,-98.5 304,-98.5"/>
<text text-anchor="start" x="312" y="-116.5" font-family="Helvetica,sans-Serif" font-size="10.00">Ogre::TerrainMaterialGenerator</text>
<text text-anchor="middle" x="381.5" y="-105.5" font-family="Helvetica,sans-Serif" font-size="10.00">A::SM2Profile::ShaderHelperCg</text>
</a>
</g>
</g>
<!-- Node1&#45;&gt;Node3 -->
<g id="edge2" class="edge"><title>Node1&#45;&gt;Node3</title>
<path fill="none" stroke="midnightblue" d="M251.834,-81.9768C273.878,-87.3775 297.951,-93.2755 319.25,-98.4938"/>
<polygon fill="midnightblue" stroke="midnightblue" points="252.411,-78.5149 241.866,-79.5346 250.746,-85.3138 252.411,-78.5149"/>
</g>
<!-- Node5 -->
<g id="node5" class="node"><title>Node5</title>
<g id="a_node5"><a xlink:href="class_ogre_1_1_terrain_material_generator_a_1_1_s_m2_profile_1_1_shader_helper_g_l_s_l.html" target="_top" xlink:title="Utility class to help with generating shaders for GLSL. ">
<polygon fill="none" stroke="black" points="298,-49.5 298,-79.5 465,-79.5 465,-49.5 298,-49.5"/>
<text text-anchor="start" x="306" y="-67.5" font-family="Helvetica,sans-Serif" font-size="10.00">Ogre::TerrainMaterialGenerator</text>
<text text-anchor="middle" x="381.5" y="-56.5" font-family="Helvetica,sans-Serif" font-size="10.00">A::SM2Profile::ShaderHelperGLSL</text>
</a>
</g>
</g>
<!-- Node1&#45;&gt;Node5 -->
<g id="edge4" class="edge"><title>Node1&#45;&gt;Node5</title>
<path fill="none" stroke="midnightblue" d="M265.439,-64.5C276.152,-64.5 287.1,-64.5 297.778,-64.5"/>
<polygon fill="midnightblue" stroke="midnightblue" points="265.257,-61.0001 255.257,-64.5 265.257,-68.0001 265.257,-61.0001"/>
</g>
<!-- Node6 -->
<g id="node6" class="node"><title>Node6</title>
<g id="a_node6"><a xlink:href="class_ogre_1_1_terrain_material_generator_a_1_1_s_m2_profile_1_1_shader_helper_g_l_s_l_e_s.html" target="_top" xlink:title="Utility class to help with generating shaders for GLSL ES. ">
<polygon fill="none" stroke="black" points="291,-0.5 291,-30.5 472,-30.5 472,-0.5 291,-0.5"/>
<text text-anchor="start" x="299" y="-18.5" font-family="Helvetica,sans-Serif" font-size="10.00">Ogre::TerrainMaterialGenerator</text>
<text text-anchor="middle" x="381.5" y="-7.5" font-family="Helvetica,sans-Serif" font-size="10.00">A::SM2Profile::ShaderHelperGLSLES</text>
</a>
</g>
</g>
<!-- Node1&#45;&gt;Node6 -->
<g id="edge5" class="edge"><title>Node1&#45;&gt;Node6</title>
<path fill="none" stroke="midnightblue" d="M251.834,-47.0232C273.878,-41.6225 297.951,-35.7245 319.25,-30.5062"/>
<polygon fill="midnightblue" stroke="midnightblue" points="250.746,-43.6862 241.866,-49.4654 252.411,-50.4851 250.746,-43.6862"/>
</g>
<!-- Node2 -->
<g id="node2" class="node"><title>Node2</title>
<g id="a_node2"><a xlink:href="class_ogre_1_1_allocated_object.html" target="_top" xlink:title="Superclass for all objects that wish to use custom memory allocators when their new / delete operator...">
<polygon fill="none" stroke="black" points="0,-55 0,-74 68,-74 68,-55 0,-55"/>
<text text-anchor="middle" x="34" y="-62" font-family="Helvetica,sans-Serif" font-size="10.00">TerrainAlloc</text>
</a>
</g>
</g>
<!-- Node2&#45;&gt;Node1 -->
<g id="edge1" class="edge"><title>Node2&#45;&gt;Node1</title>
<path fill="none" stroke="midnightblue" d="M78.5344,-64.5C86.6146,-64.5 95.2626,-64.5 103.965,-64.5"/>
<polygon fill="midnightblue" stroke="midnightblue" points="78.2825,-61.0001 68.2825,-64.5 78.2824,-68.0001 78.2825,-61.0001"/>
</g>
<!-- Node4 -->
<g id="node4" class="node"><title>Node4</title>
<g id="a_node4"><a xlink:href="class_ogre_1_1_terrain_material_generator_a_1_1_s_m2_profile_1_1_shader_helper_h_l_s_l.html" target="_top" xlink:title="Ogre::TerrainMaterialGenerator\lA::SM2Profile::ShaderHelperHLSL">
<polygon fill="none" stroke="black" points="508,-98.5 508,-128.5 675,-128.5 675,-98.5 508,-98.5"/>
<text text-anchor="start" x="516" y="-116.5" font-family="Helvetica,sans-Serif" font-size="10.00">Ogre::TerrainMaterialGenerator</text>
<text text-anchor="middle" x="591.5" y="-105.5" font-family="Helvetica,sans-Serif" font-size="10.00">A::SM2Profile::ShaderHelperHLSL</text>
</a>
</g>
</g>
<!-- Node3&#45;&gt;Node4 -->
<g id="edge3" class="edge"><title>Node3&#45;&gt;Node4</title>
<path fill="none" stroke="midnightblue" d="M469.215,-113.5C481.985,-113.5 495.113,-113.5 507.8,-113.5"/>
<polygon fill="midnightblue" stroke="midnightblue" points="469.065,-110 459.065,-113.5 469.065,-117 469.065,-110"/>
</g>
</g>
</svg>
