<?xml version="1.0" encoding="UTF-8" standalone="no"?>
<!DOCTYPE svg PUBLIC "-//W3C//DTD SVG 1.1//EN"
 "http://www.w3.org/Graphics/SVG/1.1/DTD/svg11.dtd">
<!-- Generated by graphviz version 2.38.0 (20140413.2041)
 -->
<!-- Title: Ogre::StringInterface Pages: 1 -->
<svg width="870pt" height="580pt"
 viewBox="0.00 0.00 870.00 580.00" xmlns="http://www.w3.org/2000/svg" xmlns:xlink="http://www.w3.org/1999/xlink">
<g id="graph0" class="graph" transform="scale(1 1) rotate(0) translate(4 576)">
<title>Ogre::StringInterface</title>
<!-- Node1 -->
<g id="node1" class="node"><title>Node1</title>
<polygon fill="#bfbfbf" stroke="black" points="0,-438.5 0,-457.5 107,-457.5 107,-438.5 0,-438.5"/>
<text text-anchor="middle" x="53.5" y="-445.5" font-family="Helvetica,sans-Serif" font-size="10.00">Ogre::StringInterface</text>
</g>
<!-- Node2 -->
<g id="node2" class="node"><title>Node2</title>
<g id="a_node2"><a xlink:href="class_ogre_1_1_external_texture_source.html" target="_top" xlink:title="IMPORTANT: Plugins must override default dictionary name! Base class that texture plugins derive from...">
<polygon fill="none" stroke="black" points="146.5,-552.5 146.5,-571.5 289.5,-571.5 289.5,-552.5 146.5,-552.5"/>
<text text-anchor="middle" x="218" y="-559.5" font-family="Helvetica,sans-Serif" font-size="10.00">Ogre::ExternalTextureSource</text>
</a>
</g>
</g>
<!-- Node1&#45;&gt;Node2 -->
<g id="edge1" class="edge"><title>Node1&#45;&gt;Node2</title>
<path fill="none" stroke="midnightblue" d="M66.4311,-466.096C81.6316,-487.696 109.935,-523.356 143,-543 149.5,-546.862 156.774,-549.945 164.155,-552.407"/>
<polygon fill="midnightblue" stroke="midnightblue" points="69.2802,-464.062 60.7432,-457.787 63.504,-468.016 69.2802,-464.062"/>
</g>
<!-- Node3 -->
<g id="node3" class="node"><title>Node3</title>
<g id="a_node3"><a xlink:href="class_ogre_1_1_overlay_element.html" target="_top" xlink:title="Abstract definition of a 2D element to be displayed in an Overlay. ">
<polygon fill="none" stroke="black" points="161.5,-514.5 161.5,-533.5 274.5,-533.5 274.5,-514.5 161.5,-514.5"/>
<text text-anchor="middle" x="218" y="-521.5" font-family="Helvetica,sans-Serif" font-size="10.00">Ogre::OverlayElement</text>
</a>
</g>
</g>
<!-- Node1&#45;&gt;Node3 -->
<g id="edge2" class="edge"><title>Node1&#45;&gt;Node3</title>
<path fill="none" stroke="midnightblue" d="M74.8713,-463.831C92.151,-476.575 118.041,-494.1 143,-505 151.63,-508.769 161.165,-511.909 170.44,-514.479"/>
<polygon fill="midnightblue" stroke="midnightblue" points="76.7663,-460.877 66.6706,-457.664 72.5589,-466.472 76.7663,-460.877"/>
</g>
<!-- Node8 -->
<g id="node8" class="node"><title>Node8</title>
<g id="a_node8"><a xlink:href="class_ogre_1_1_particle_affector.html" target="_top" xlink:title="Abstract class defining the interface to be implemented by particle affectors. ">
<polygon fill="none" stroke="black" points="162.5,-476.5 162.5,-495.5 273.5,-495.5 273.5,-476.5 162.5,-476.5"/>
<text text-anchor="middle" x="218" y="-483.5" font-family="Helvetica,sans-Serif" font-size="10.00">Ogre::ParticleAffector</text>
</a>
</g>
</g>
<!-- Node1&#45;&gt;Node8 -->
<g id="edge7" class="edge"><title>Node1&#45;&gt;Node8</title>
<path fill="none" stroke="midnightblue" d="M105.371,-459.896C128.212,-465.237 154.795,-471.454 176.289,-476.48"/>
<polygon fill="midnightblue" stroke="midnightblue" points="106.04,-456.458 95.5056,-457.589 104.446,-463.274 106.04,-456.458"/>
</g>
<!-- Node9 -->
<g id="node9" class="node"><title>Node9</title>
<g id="a_node9"><a xlink:href="class_ogre_1_1_particle_emitter.html" target="_top" xlink:title="Abstract class defining the interface to be implemented by particle emitters. ">
<polygon fill="none" stroke="black" points="164,-438.5 164,-457.5 272,-457.5 272,-438.5 164,-438.5"/>
<text text-anchor="middle" x="218" y="-445.5" font-family="Helvetica,sans-Serif" font-size="10.00">Ogre::ParticleEmitter</text>
</a>
</g>
</g>
<!-- Node1&#45;&gt;Node9 -->
<g id="edge8" class="edge"><title>Node1&#45;&gt;Node9</title>
<path fill="none" stroke="midnightblue" d="M117.677,-448C132.975,-448 149.172,-448 163.95,-448"/>
<polygon fill="midnightblue" stroke="midnightblue" points="117.259,-444.5 107.259,-448 117.259,-451.5 117.259,-444.5"/>
</g>
<!-- Node10 -->
<g id="node10" class="node"><title>Node10</title>
<g id="a_node10"><a xlink:href="class_ogre_1_1_particle_system.html" target="_top" xlink:title="Class defining particle system based special effects. ">
<polygon fill="none" stroke="black" points="163,-400.5 163,-419.5 273,-419.5 273,-400.5 163,-400.5"/>
<text text-anchor="middle" x="218" y="-407.5" font-family="Helvetica,sans-Serif" font-size="10.00">Ogre::ParticleSystem</text>
</a>
</g>
</g>
<!-- Node1&#45;&gt;Node10 -->
<g id="edge9" class="edge"><title>Node1&#45;&gt;Node10</title>
<path fill="none" stroke="midnightblue" d="M105.371,-436.104C128.212,-430.763 154.795,-424.546 176.289,-419.52"/>
<polygon fill="midnightblue" stroke="midnightblue" points="104.446,-432.726 95.5056,-438.411 106.04,-439.542 104.446,-432.726"/>
</g>
<!-- Node11 -->
<g id="node11" class="node"><title>Node11</title>
<g id="a_node11"><a xlink:href="class_ogre_1_1_particle_system_renderer.html" target="_top" xlink:title="Abstract class defining the interface required to be implemented by classes which provide rendering c...">
<polygon fill="none" stroke="black" points="143,-362.5 143,-381.5 293,-381.5 293,-362.5 143,-362.5"/>
<text text-anchor="middle" x="218" y="-369.5" font-family="Helvetica,sans-Serif" font-size="10.00">Ogre::ParticleSystemRenderer</text>
</a>
</g>
</g>
<!-- Node1&#45;&gt;Node11 -->
<g id="edge10" class="edge"><title>Node1&#45;&gt;Node11</title>
<path fill="none" stroke="midnightblue" d="M74.8713,-432.169C92.151,-419.425 118.041,-401.9 143,-391 151.63,-387.231 161.165,-384.091 170.44,-381.521"/>
<polygon fill="midnightblue" stroke="midnightblue" points="72.5589,-429.528 66.6706,-438.336 76.7663,-435.123 72.5589,-429.528"/>
</g>
<!-- Node13 -->
<g id="node13" class="node"><title>Node13</title>
<g id="a_node13"><a xlink:href="class_ogre_1_1_resource.html" target="_top" xlink:title="Abstract class representing a loadable resource (e.g. ">
<polygon fill="none" stroke="black" points="175,-247.5 175,-266.5 261,-266.5 261,-247.5 175,-247.5"/>
<text text-anchor="middle" x="218" y="-254.5" font-family="Helvetica,sans-Serif" font-size="10.00">Ogre::Resource</text>
</a>
</g>
</g>
<!-- Node1&#45;&gt;Node13 -->
<g id="edge12" class="edge"><title>Node1&#45;&gt;Node13</title>
<path fill="none" stroke="midnightblue" d="M69.5256,-430.339C102.926,-391.081 182.44,-297.622 208.54,-266.944"/>
<polygon fill="midnightblue" stroke="midnightblue" points="66.596,-428.381 62.7818,-438.266 71.9276,-432.917 66.596,-428.381"/>
</g>
<!-- Node4 -->
<g id="node4" class="node"><title>Node4</title>
<g id="a_node4"><a xlink:href="class_ogre_1_1_overlay_container.html" target="_top" xlink:title="A 2D element which contains other OverlayElement instances. ">
<polygon fill="none" stroke="black" points="346.5,-536.5 346.5,-555.5 465.5,-555.5 465.5,-536.5 346.5,-536.5"/>
<text text-anchor="middle" x="406" y="-543.5" font-family="Helvetica,sans-Serif" font-size="10.00">Ogre::OverlayContainer</text>
</a>
</g>
</g>
<!-- Node3&#45;&gt;Node4 -->
<g id="edge3" class="edge"><title>Node3&#45;&gt;Node4</title>
<path fill="none" stroke="midnightblue" d="M284.549,-531.753C304.626,-534.128 326.577,-536.724 346.176,-539.042"/>
<polygon fill="midnightblue" stroke="midnightblue" points="284.896,-528.27 274.554,-530.571 284.074,-535.221 284.896,-528.27"/>
</g>
<!-- Node7 -->
<g id="node7" class="node"><title>Node7</title>
<g id="a_node7"><a xlink:href="class_ogre_1_1_text_area_overlay_element.html" target="_top" xlink:title="This class implements an overlay element which contains simple unformatted text. ">
<polygon fill="none" stroke="black" points="329.5,-498.5 329.5,-517.5 482.5,-517.5 482.5,-498.5 329.5,-498.5"/>
<text text-anchor="middle" x="406" y="-505.5" font-family="Helvetica,sans-Serif" font-size="10.00">Ogre::TextAreaOverlayElement</text>
</a>
</g>
</g>
<!-- Node3&#45;&gt;Node7 -->
<g id="edge6" class="edge"><title>Node3&#45;&gt;Node7</title>
<path fill="none" stroke="midnightblue" d="M284.866,-518.334C299.29,-517.093 314.668,-515.771 329.437,-514.5"/>
<polygon fill="midnightblue" stroke="midnightblue" points="284.217,-514.877 274.554,-519.221 284.817,-521.851 284.217,-514.877"/>
</g>
<!-- Node5 -->
<g id="node5" class="node"><title>Node5</title>
<g id="a_node5"><a xlink:href="class_ogre_1_1_panel_overlay_element.html" target="_top" xlink:title="OverlayElement representing a flat, single&#45;material (or transparent) panel which can contain other el...">
<polygon fill="none" stroke="black" points="521,-536.5 521,-555.5 659,-555.5 659,-536.5 521,-536.5"/>
<text text-anchor="middle" x="590" y="-543.5" font-family="Helvetica,sans-Serif" font-size="10.00">Ogre::PanelOverlayElement</text>
</a>
</g>
</g>
<!-- Node4&#45;&gt;Node5 -->
<g id="edge4" class="edge"><title>Node4&#45;&gt;Node5</title>
<path fill="none" stroke="midnightblue" d="M475.641,-546C490.385,-546 505.963,-546 520.694,-546"/>
<polygon fill="midnightblue" stroke="midnightblue" points="475.588,-542.5 465.588,-546 475.588,-549.5 475.588,-542.5"/>
</g>
<!-- Node6 -->
<g id="node6" class="node"><title>Node6</title>
<g id="a_node6"><a xlink:href="class_ogre_1_1_border_panel_overlay_element.html" target="_top" xlink:title="A specialisation of the PanelOverlayElement to provide a panel with a border. ">
<polygon fill="none" stroke="black" points="714,-531 714,-561 845,-561 845,-531 714,-531"/>
<text text-anchor="start" x="722" y="-549" font-family="Helvetica,sans-Serif" font-size="10.00">Ogre::BorderPanelOverlay</text>
<text text-anchor="middle" x="779.5" y="-538" font-family="Helvetica,sans-Serif" font-size="10.00">Element</text>
</a>
</g>
</g>
<!-- Node5&#45;&gt;Node6 -->
<g id="edge5" class="edge"><title>Node5&#45;&gt;Node6</title>
<path fill="none" stroke="midnightblue" d="M669.356,-546C684.143,-546 699.455,-546 713.766,-546"/>
<polygon fill="midnightblue" stroke="midnightblue" points="669.222,-542.5 659.222,-546 669.222,-549.5 669.222,-542.5"/>
</g>
<!-- Node12 -->
<g id="node12" class="node"><title>Node12</title>
<g id="a_node12"><a xlink:href="class_ogre_1_1_billboard_particle_renderer.html" target="_top" xlink:title="Specialisation of ParticleSystemRenderer to render particles using a BillboardSet. ">
<polygon fill="none" stroke="black" points="329,-380.5 329,-399.5 483,-399.5 483,-380.5 329,-380.5"/>
<text text-anchor="middle" x="406" y="-387.5" font-family="Helvetica,sans-Serif" font-size="10.00">Ogre::BillboardParticleRenderer</text>
</a>
</g>
</g>
<!-- Node11&#45;&gt;Node12 -->
<g id="edge11" class="edge"><title>Node11&#45;&gt;Node12</title>
<path fill="none" stroke="midnightblue" d="M303.044,-380.133C311.616,-380.963 320.291,-381.802 328.772,-382.623"/>
<polygon fill="midnightblue" stroke="midnightblue" points="303.337,-376.645 293.047,-379.166 302.663,-383.613 303.337,-376.645"/>
</g>
<!-- Node14 -->
<g id="node14" class="node"><title>Node14</title>
<g id="a_node14"><a xlink:href="class_ogre_1_1_compositor.html" target="_top" xlink:title="Class representing a Compositor object. ">
<polygon fill="none" stroke="black" points="359,-342.5 359,-361.5 453,-361.5 453,-342.5 359,-342.5"/>
<text text-anchor="middle" x="406" y="-349.5" font-family="Helvetica,sans-Serif" font-size="10.00">Ogre::Compositor</text>
</a>
</g>
</g>
<!-- Node13&#45;&gt;Node14 -->
<g id="edge13" class="edge"><title>Node13&#45;&gt;Node14</title>
<path fill="none" stroke="midnightblue" d="M237.834,-273.201C258.773,-290.417 294.24,-317.277 329,-333 338.294,-337.204 348.665,-340.575 358.685,-343.241"/>
<polygon fill="midnightblue" stroke="midnightblue" points="239.963,-270.419 230.046,-266.689 235.472,-275.789 239.963,-270.419"/>
</g>
<!-- Node15 -->
<g id="node15" class="node"><title>Node15</title>
<g id="a_node15"><a xlink:href="class_ogre_1_1_font.html" target="_top" xlink:title="Class representing a font in the system. ">
<polygon fill="none" stroke="black" points="374.5,-304.5 374.5,-323.5 437.5,-323.5 437.5,-304.5 374.5,-304.5"/>
<text text-anchor="middle" x="406" y="-311.5" font-family="Helvetica,sans-Serif" font-size="10.00">Ogre::Font</text>
</a>
</g>
</g>
<!-- Node13&#45;&gt;Node15 -->
<g id="edge14" class="edge"><title>Node13&#45;&gt;Node15</title>
<path fill="none" stroke="midnightblue" d="M254.237,-270.055C275.696,-277.784 303.753,-287.499 329,-295 343.732,-299.377 360.266,-303.592 374.141,-306.935"/>
<polygon fill="midnightblue" stroke="midnightblue" points="255.17,-266.67 244.576,-266.549 252.782,-273.25 255.17,-266.67"/>
</g>
<!-- Node16 -->
<g id="node16" class="node"><title>Node16</title>
<g id="a_node16"><a xlink:href="class_ogre_1_1_gpu_program.html" target="_top" xlink:title="Defines a program which runs on the GPU such as a vertex or fragment program. ">
<polygon fill="none" stroke="black" points="357,-266.5 357,-285.5 455,-285.5 455,-266.5 357,-266.5"/>
<text text-anchor="middle" x="406" y="-273.5" font-family="Helvetica,sans-Serif" font-size="10.00">Ogre::GpuProgram</text>
</a>
</g>
</g>
<!-- Node13&#45;&gt;Node16 -->
<g id="edge15" class="edge"><title>Node13&#45;&gt;Node16</title>
<path fill="none" stroke="midnightblue" d="M271.185,-262.331C298.009,-265.071 330.484,-268.388 356.724,-271.069"/>
<polygon fill="midnightblue" stroke="midnightblue" points="271.51,-258.846 261.206,-261.311 270.799,-265.81 271.51,-258.846"/>
</g>
<!-- Node32 -->
<g id="node32" class="node"><title>Node32</title>
<g id="a_node32"><a xlink:href="class_ogre_1_1_material.html" target="_top" xlink:title="Class encapsulates rendering properties of an object. ">
<polygon fill="none" stroke="black" points="367,-228.5 367,-247.5 445,-247.5 445,-228.5 367,-228.5"/>
<text text-anchor="middle" x="406" y="-235.5" font-family="Helvetica,sans-Serif" font-size="10.00">Ogre::Material</text>
</a>
</g>
</g>
<!-- Node13&#45;&gt;Node32 -->
<g id="edge31" class="edge"><title>Node13&#45;&gt;Node32</title>
<path fill="none" stroke="midnightblue" d="M271.2,-251.668C301.56,-248.566 339.155,-244.726 366.757,-241.907"/>
<polygon fill="midnightblue" stroke="midnightblue" points="270.799,-248.19 261.206,-252.689 271.51,-255.154 270.799,-248.19"/>
</g>
<!-- Node33 -->
<g id="node33" class="node"><title>Node33</title>
<g id="a_node33"><a xlink:href="class_ogre_1_1_mesh.html" target="_top" xlink:title="Resource holding data about 3D mesh. ">
<polygon fill="none" stroke="black" points="372,-190.5 372,-209.5 440,-209.5 440,-190.5 372,-190.5"/>
<text text-anchor="middle" x="406" y="-197.5" font-family="Helvetica,sans-Serif" font-size="10.00">Ogre::Mesh</text>
</a>
</g>
</g>
<!-- Node13&#45;&gt;Node33 -->
<g id="edge32" class="edge"><title>Node13&#45;&gt;Node33</title>
<path fill="none" stroke="midnightblue" d="M254.237,-243.945C275.696,-236.216 303.753,-226.501 329,-219 342.95,-214.855 358.516,-210.856 371.909,-207.605"/>
<polygon fill="midnightblue" stroke="midnightblue" points="252.782,-240.75 244.576,-247.451 255.17,-247.33 252.782,-240.75"/>
</g>
<!-- Node35 -->
<g id="node35" class="node"><title>Node35</title>
<g id="a_node35"><a xlink:href="class_ogre_1_1_skeleton.html" target="_top" xlink:title="A collection of Bone objects used to animate a skinned mesh. ">
<polygon fill="none" stroke="black" points="365,-152.5 365,-171.5 447,-171.5 447,-152.5 365,-152.5"/>
<text text-anchor="middle" x="406" y="-159.5" font-family="Helvetica,sans-Serif" font-size="10.00">Ogre::Skeleton</text>
</a>
</g>
</g>
<!-- Node13&#45;&gt;Node35 -->
<g id="edge34" class="edge"><title>Node13&#45;&gt;Node35</title>
<path fill="none" stroke="midnightblue" d="M237.834,-240.799C258.773,-223.583 294.24,-196.723 329,-181 340.153,-175.955 352.857,-172.109 364.643,-169.243"/>
<polygon fill="midnightblue" stroke="midnightblue" points="235.472,-238.211 230.046,-247.311 239.963,-243.581 235.472,-238.211"/>
</g>
<!-- Node37 -->
<g id="node37" class="node"><title>Node37</title>
<g id="a_node37"><a xlink:href="class_ogre_1_1_texture.html" target="_top" xlink:title="Abstract class representing a Texture resource. ">
<polygon fill="none" stroke="black" points="367.5,-76.5 367.5,-95.5 444.5,-95.5 444.5,-76.5 367.5,-76.5"/>
<text text-anchor="middle" x="406" y="-83.5" font-family="Helvetica,sans-Serif" font-size="10.00">Ogre::Texture</text>
</a>
</g>
</g>
<!-- Node13&#45;&gt;Node37 -->
<g id="edge36" class="edge"><title>Node13&#45;&gt;Node37</title>
<path fill="none" stroke="midnightblue" d="M234.074,-239.731C254.569,-216.648 292.829,-174.941 329,-143 349.399,-124.987 375.074,-106.515 390.75,-95.6584"/>
<polygon fill="midnightblue" stroke="midnightblue" points="231.353,-237.525 227.364,-247.34 236.603,-242.155 231.353,-237.525"/>
</g>
<!-- Node17 -->
<g id="node17" class="node"><title>Node17</title>
<g id="a_node17"><a xlink:href="class_ogre_1_1_d3_d9_gpu_program.html" target="_top" xlink:title="Direct3D implementation of a few things common to low&#45;level vertex &amp; fragment programs. ">
<polygon fill="none" stroke="black" points="528,-437.5 528,-456.5 652,-456.5 652,-437.5 528,-437.5"/>
<text text-anchor="middle" x="590" y="-444.5" font-family="Helvetica,sans-Serif" font-size="10.00">Ogre::D3D9GpuProgram</text>
</a>
</g>
</g>
<!-- Node16&#45;&gt;Node17 -->
<g id="edge16" class="edge"><title>Node16&#45;&gt;Node17</title>
<path fill="none" stroke="midnightblue" d="M464.9,-284.056C471.505,-286.763 477.742,-290.325 483,-295 516.743,-325.002 492.588,-353.378 519,-390 533.576,-410.211 557.049,-427.304 572.744,-437.356"/>
<polygon fill="midnightblue" stroke="midnightblue" points="465.625,-280.605 455.03,-280.671 463.354,-287.226 465.625,-280.605"/>
</g>
<!-- Node20 -->
<g id="node20" class="node"><title>Node20</title>
<g id="a_node20"><a xlink:href="class_ogre_1_1_g_l_e_s2_gpu_program.html" target="_top" xlink:title="Generalised low&#45;level GL program, can be applied to multiple types (eg ARB and NV) ...">
<polygon fill="none" stroke="black" points="525,-361.5 525,-380.5 655,-380.5 655,-361.5 525,-361.5"/>
<text text-anchor="middle" x="590" y="-368.5" font-family="Helvetica,sans-Serif" font-size="10.00">Ogre::GLES2GpuProgram</text>
</a>
</g>
</g>
<!-- Node16&#45;&gt;Node20 -->
<g id="edge19" class="edge"><title>Node16&#45;&gt;Node20</title>
<path fill="none" stroke="midnightblue" d="M465.12,-286.831C471.362,-289.066 477.451,-291.759 483,-295 503.088,-306.735 500.548,-318.83 519,-333 534.025,-344.538 553.016,-354.61 567.425,-361.48"/>
<polygon fill="midnightblue" stroke="midnightblue" points="465.833,-283.385 455.242,-283.682 463.706,-290.054 465.833,-283.385"/>
</g>
<!-- Node22 -->
<g id="node22" class="node"><title>Node22</title>
<g id="a_node22"><a xlink:href="class_ogre_1_1_g_l_gpu_program.html" target="_top" xlink:title="Generalised low&#45;level GL program, can be applied to multiple types (eg ARB and NV) ...">
<polygon fill="none" stroke="black" points="534.5,-304.5 534.5,-323.5 645.5,-323.5 645.5,-304.5 534.5,-304.5"/>
<text text-anchor="middle" x="590" y="-311.5" font-family="Helvetica,sans-Serif" font-size="10.00">Ogre::GLGpuProgram</text>
</a>
</g>
</g>
<!-- Node16&#45;&gt;Node22 -->
<g id="edge21" class="edge"><title>Node16&#45;&gt;Node22</title>
<path fill="none" stroke="midnightblue" d="M462.946,-287.681C488.756,-293.07 519.007,-299.386 543.404,-304.48"/>
<polygon fill="midnightblue" stroke="midnightblue" points="463.431,-284.207 452.926,-285.589 462,-291.059 463.431,-284.207"/>
</g>
<!-- Node26 -->
<g id="node26" class="node"><title>Node26</title>
<g id="a_node26"><a xlink:href="class_ogre_1_1_high_level_gpu_program.html" target="_top" xlink:title="Abstract base class representing a high&#45;level program (a vertex or fragment program). ">
<polygon fill="none" stroke="black" points="519,-228.5 519,-247.5 661,-247.5 661,-228.5 519,-228.5"/>
<text text-anchor="middle" x="590" y="-235.5" font-family="Helvetica,sans-Serif" font-size="10.00">Ogre::HighLevelGpuProgram</text>
</a>
</g>
</g>
<!-- Node16&#45;&gt;Node26 -->
<g id="edge25" class="edge"><title>Node16&#45;&gt;Node26</title>
<path fill="none" stroke="midnightblue" d="M462.946,-264.319C488.756,-258.93 519.007,-252.614 543.404,-247.52"/>
<polygon fill="midnightblue" stroke="midnightblue" points="462,-260.941 452.926,-266.411 463.431,-267.793 462,-260.941"/>
</g>
<!-- Node18 -->
<g id="node18" class="node"><title>Node18</title>
<g id="a_node18"><a xlink:href="class_ogre_1_1_d3_d9_gpu_fragment_program.html" target="_top" xlink:title="Direct3D implementation of low&#45;level fragment programs. ">
<polygon fill="none" stroke="black" points="697,-475.5 697,-494.5 862,-494.5 862,-475.5 697,-475.5"/>
<text text-anchor="middle" x="779.5" y="-482.5" font-family="Helvetica,sans-Serif" font-size="10.00">Ogre::D3D9GpuFragmentProgram</text>
</a>
</g>
</g>
<!-- Node17&#45;&gt;Node18 -->
<g id="edge17" class="edge"><title>Node17&#45;&gt;Node18</title>
<path fill="none" stroke="midnightblue" d="M648.284,-458.61C674.951,-464.014 706.281,-470.364 731.526,-475.48"/>
<polygon fill="midnightblue" stroke="midnightblue" points="648.81,-455.145 638.314,-456.589 647.42,-462.006 648.81,-455.145"/>
</g>
<!-- Node19 -->
<g id="node19" class="node"><title>Node19</title>
<g id="a_node19"><a xlink:href="class_ogre_1_1_d3_d9_gpu_vertex_program.html" target="_top" xlink:title="Direct3D implementation of low&#45;level vertex programs. ">
<polygon fill="none" stroke="black" points="703.5,-437.5 703.5,-456.5 855.5,-456.5 855.5,-437.5 703.5,-437.5"/>
<text text-anchor="middle" x="779.5" y="-444.5" font-family="Helvetica,sans-Serif" font-size="10.00">Ogre::D3D9GpuVertexProgram</text>
</a>
</g>
</g>
<!-- Node17&#45;&gt;Node19 -->
<g id="edge18" class="edge"><title>Node17&#45;&gt;Node19</title>
<path fill="none" stroke="midnightblue" d="M662.266,-447C675.707,-447 689.804,-447 703.36,-447"/>
<polygon fill="midnightblue" stroke="midnightblue" points="662.135,-443.5 652.135,-447 662.135,-450.5 662.135,-443.5"/>
</g>
<!-- Node21 -->
<g id="node21" class="node"><title>Node21</title>
<g id="a_node21"><a xlink:href="class_ogre_1_1_g_l_s_l_e_s_gpu_program.html" target="_top" xlink:title="GLSL ES low level compiled shader object &#45; this class is used to get at the linked program object and...">
<polygon fill="none" stroke="black" points="711,-399.5 711,-418.5 848,-418.5 848,-399.5 711,-399.5"/>
<text text-anchor="middle" x="779.5" y="-406.5" font-family="Helvetica,sans-Serif" font-size="10.00">Ogre::GLSLESGpuProgram</text>
</a>
</g>
</g>
<!-- Node20&#45;&gt;Node21 -->
<g id="edge20" class="edge"><title>Node20&#45;&gt;Node21</title>
<path fill="none" stroke="midnightblue" d="M648.284,-382.61C674.951,-388.014 706.281,-394.364 731.526,-399.48"/>
<polygon fill="midnightblue" stroke="midnightblue" points="648.81,-379.145 638.314,-380.589 647.42,-386.006 648.81,-379.145"/>
</g>
<!-- Node23 -->
<g id="node23" class="node"><title>Node23</title>
<g id="a_node23"><a xlink:href="class_ogre_1_1_g_l_arb_gpu_program.html" target="_top" xlink:title="Specialisation of the GL low&#45;level program for ARB programs. ">
<polygon fill="none" stroke="black" points="716.5,-361.5 716.5,-380.5 842.5,-380.5 842.5,-361.5 716.5,-361.5"/>
<text text-anchor="middle" x="779.5" y="-368.5" font-family="Helvetica,sans-Serif" font-size="10.00">Ogre::GLArbGpuProgram</text>
</a>
</g>
</g>
<!-- Node22&#45;&gt;Node23 -->
<g id="edge22" class="edge"><title>Node22&#45;&gt;Node23</title>
<path fill="none" stroke="midnightblue" d="M624.745,-327.221C645.409,-335.035 672.505,-344.78 697,-352 708.706,-355.45 721.505,-358.682 733.419,-361.467"/>
<polygon fill="midnightblue" stroke="midnightblue" points="625.747,-323.857 615.156,-323.559 623.25,-330.396 625.747,-323.857"/>
</g>
<!-- Node24 -->
<g id="node24" class="node"><title>Node24</title>
<g id="a_node24"><a xlink:href="class_ogre_1_1_g_l_gpu_nvparse_program.html" target="_top" xlink:title="Ogre::GLGpuNvparseProgram">
<polygon fill="none" stroke="black" points="705.5,-323.5 705.5,-342.5 853.5,-342.5 853.5,-323.5 705.5,-323.5"/>
<text text-anchor="middle" x="779.5" y="-330.5" font-family="Helvetica,sans-Serif" font-size="10.00">Ogre::GLGpuNvparseProgram</text>
</a>
</g>
</g>
<!-- Node22&#45;&gt;Node24 -->
<g id="edge23" class="edge"><title>Node22&#45;&gt;Node24</title>
<path fill="none" stroke="midnightblue" d="M655.978,-320.584C671.864,-322.194 688.97,-323.928 705.215,-325.574"/>
<polygon fill="midnightblue" stroke="midnightblue" points="656.039,-317.073 645.737,-319.547 655.333,-324.037 656.039,-317.073"/>
</g>
<!-- Node25 -->
<g id="node25" class="node"><title>Node25</title>
<g id="a_node25"><a xlink:href="class_ogre_1_1_g_l_s_l_1_1_g_l_s_l_gpu_program.html" target="_top" xlink:title="GLSL low level compiled shader object &#45; this class is used to get at the linked program object and pr...">
<polygon fill="none" stroke="black" points="702.5,-285.5 702.5,-304.5 856.5,-304.5 856.5,-285.5 702.5,-285.5"/>
<text text-anchor="middle" x="779.5" y="-292.5" font-family="Helvetica,sans-Serif" font-size="10.00">Ogre::GLSL::GLSLGpuProgram</text>
</a>
</g>
</g>
<!-- Node22&#45;&gt;Node25 -->
<g id="edge24" class="edge"><title>Node22&#45;&gt;Node25</title>
<path fill="none" stroke="midnightblue" d="M655.926,-307.421C670.926,-305.901 687.016,-304.27 702.444,-302.707"/>
<polygon fill="midnightblue" stroke="midnightblue" points="655.333,-303.963 645.737,-308.453 656.039,-310.927 655.333,-303.963"/>
</g>
<!-- Node27 -->
<g id="node27" class="node"><title>Node27</title>
<g id="a_node27"><a xlink:href="class_ogre_1_1_d3_d11_h_l_s_l_program.html" target="_top" xlink:title="Specialization of HighLevelGpuProgram to provide support for D3D11 High&#45;Level Shader Language (HLSL)...">
<polygon fill="none" stroke="black" points="711.5,-247.5 711.5,-266.5 847.5,-266.5 847.5,-247.5 711.5,-247.5"/>
<text text-anchor="middle" x="779.5" y="-254.5" font-family="Helvetica,sans-Serif" font-size="10.00">Ogre::D3D11HLSLProgram</text>
</a>
</g>
</g>
<!-- Node26&#45;&gt;Node27 -->
<g id="edge26" class="edge"><title>Node26&#45;&gt;Node27</title>
<path fill="none" stroke="midnightblue" d="M671.21,-246.128C684.57,-247.482 698.304,-248.873 711.297,-250.19"/>
<polygon fill="midnightblue" stroke="midnightblue" points="671.387,-242.628 661.085,-245.102 670.681,-249.592 671.387,-242.628"/>
</g>
<!-- Node28 -->
<g id="node28" class="node"><title>Node28</title>
<g id="a_node28"><a xlink:href="class_ogre_1_1_d3_d9_h_l_s_l_program.html" target="_top" xlink:title="Specialisation of HighLevelGpuProgram to provide support for D3D9 High&#45;Level Shader Language (HLSL)...">
<polygon fill="none" stroke="black" points="714,-209.5 714,-228.5 845,-228.5 845,-209.5 714,-209.5"/>
<text text-anchor="middle" x="779.5" y="-216.5" font-family="Helvetica,sans-Serif" font-size="10.00">Ogre::D3D9HLSLProgram</text>
</a>
</g>
</g>
<!-- Node26&#45;&gt;Node28 -->
<g id="edge27" class="edge"><title>Node26&#45;&gt;Node28</title>
<path fill="none" stroke="midnightblue" d="M671.314,-229.862C685.49,-228.425 700.085,-226.946 713.765,-225.56"/>
<polygon fill="midnightblue" stroke="midnightblue" points="670.681,-226.408 661.085,-230.898 671.387,-233.372 670.681,-226.408"/>
</g>
<!-- Node29 -->
<g id="node29" class="node"><title>Node29</title>
<g id="a_node29"><a xlink:href="class_ogre_1_1_g_l_s_l_1_1_g_l_s_l_program.html" target="_top" xlink:title="Specialisation of HighLevelGpuProgram to provide support for OpenGL Shader Language (GLSL)...">
<polygon fill="none" stroke="black" points="711.5,-171.5 711.5,-190.5 847.5,-190.5 847.5,-171.5 711.5,-171.5"/>
<text text-anchor="middle" x="779.5" y="-178.5" font-family="Helvetica,sans-Serif" font-size="10.00">Ogre::GLSL::GLSLProgram</text>
</a>
</g>
</g>
<!-- Node26&#45;&gt;Node29 -->
<g id="edge28" class="edge"><title>Node26&#45;&gt;Node29</title>
<path fill="none" stroke="midnightblue" d="M642.208,-225.512C648.605,-223.541 655.003,-221.363 661,-219 677.832,-212.368 680.051,-206.328 697,-200 706.936,-196.29 717.833,-193.151 728.334,-190.559"/>
<polygon fill="midnightblue" stroke="midnightblue" points="640.824,-222.27 632.211,-228.439 642.791,-228.988 640.824,-222.27"/>
</g>
<!-- Node30 -->
<g id="node30" class="node"><title>Node30</title>
<g id="a_node30"><a xlink:href="class_ogre_1_1_g_l_s_l_shader.html" target="_top" xlink:title="Specialisation of HighLevelGpuProgram to encapsulate shader objects obtained from compiled shaders wr...">
<polygon fill="none" stroke="black" points="730,-133.5 730,-152.5 829,-152.5 829,-133.5 730,-133.5"/>
<text text-anchor="middle" x="779.5" y="-140.5" font-family="Helvetica,sans-Serif" font-size="10.00">Ogre::GLSLShader</text>
</a>
</g>
</g>
<!-- Node26&#45;&gt;Node30 -->
<g id="edge29" class="edge"><title>Node26&#45;&gt;Node30</title>
<path fill="none" stroke="midnightblue" d="M652.604,-224.259C655.546,-222.692 658.367,-220.945 661,-219 685.1,-201.196 672.584,-179.367 697,-162 706.59,-155.179 718.27,-150.772 729.758,-147.935"/>
<polygon fill="midnightblue" stroke="midnightblue" points="651.106,-221.095 643.475,-228.445 654.024,-227.458 651.106,-221.095"/>
</g>
<!-- Node31 -->
<g id="node31" class="node"><title>Node31</title>
<g id="a_node31"><a xlink:href="class_ogre_1_1_unified_high_level_gpu_program.html" target="_top" xlink:title="Specialisation of HighLevelGpuProgram which just delegates its implementation to one other high level...">
<polygon fill="none" stroke="black" points="711.5,-84 711.5,-114 847.5,-114 847.5,-84 711.5,-84"/>
<text text-anchor="start" x="719.5" y="-102" font-family="Helvetica,sans-Serif" font-size="10.00">Ogre::UnifiedHighLevelGpu</text>
<text text-anchor="middle" x="779.5" y="-91" font-family="Helvetica,sans-Serif" font-size="10.00">Program</text>
</a>
</g>
</g>
<!-- Node26&#45;&gt;Node31 -->
<g id="edge30" class="edge"><title>Node26&#45;&gt;Node31</title>
<path fill="none" stroke="midnightblue" d="M655.442,-223.365C657.396,-222.033 659.257,-220.581 661,-219 694.441,-188.661 664.058,-154.88 697,-124 701.211,-120.052 706.031,-116.728 711.175,-113.927"/>
<polygon fill="midnightblue" stroke="midnightblue" points="653.365,-220.518 646.371,-228.477 656.802,-226.617 653.365,-220.518"/>
</g>
<!-- Node34 -->
<g id="node34" class="node"><title>Node34</title>
<g id="a_node34"><a xlink:href="class_ogre_1_1_patch_mesh.html" target="_top" xlink:title="Patch specialisation of Mesh. ">
<polygon fill="none" stroke="black" points="543.5,-190.5 543.5,-209.5 636.5,-209.5 636.5,-190.5 543.5,-190.5"/>
<text text-anchor="middle" x="590" y="-197.5" font-family="Helvetica,sans-Serif" font-size="10.00">Ogre::PatchMesh</text>
</a>
</g>
</g>
<!-- Node33&#45;&gt;Node34 -->
<g id="edge33" class="edge"><title>Node33&#45;&gt;Node34</title>
<path fill="none" stroke="midnightblue" d="M450.691,-200C478.739,-200 515.094,-200 543.492,-200"/>
<polygon fill="midnightblue" stroke="midnightblue" points="450.382,-196.5 440.382,-200 450.382,-203.5 450.382,-196.5"/>
</g>
<!-- Node36 -->
<g id="node36" class="node"><title>Node36</title>
<g id="a_node36"><a xlink:href="class_ogre_1_1_skeleton_instance.html" target="_top" xlink:title="A SkeletonInstance is a single instance of a Skeleton used by a world object. ">
<polygon fill="none" stroke="black" points="530.5,-152.5 530.5,-171.5 649.5,-171.5 649.5,-152.5 530.5,-152.5"/>
<text text-anchor="middle" x="590" y="-159.5" font-family="Helvetica,sans-Serif" font-size="10.00">Ogre::SkeletonInstance</text>
</a>
</g>
</g>
<!-- Node35&#45;&gt;Node36 -->
<g id="edge35" class="edge"><title>Node35&#45;&gt;Node36</title>
<path fill="none" stroke="midnightblue" d="M457.464,-162C480.087,-162 506.911,-162 530.416,-162"/>
<polygon fill="midnightblue" stroke="midnightblue" points="457.392,-158.5 447.392,-162 457.392,-165.5 457.392,-158.5"/>
</g>
<!-- Node38 -->
<g id="node38" class="node"><title>Node38</title>
<g id="a_node38"><a xlink:href="class_ogre_1_1_d3_d11_texture.html" target="_top" xlink:title="Specialisation of Texture for D3D11. ">
<polygon fill="none" stroke="black" points="536.5,-114.5 536.5,-133.5 643.5,-133.5 643.5,-114.5 536.5,-114.5"/>
<text text-anchor="middle" x="590" y="-121.5" font-family="Helvetica,sans-Serif" font-size="10.00">Ogre::D3D11Texture</text>
</a>
</g>
</g>
<!-- Node37&#45;&gt;Node38 -->
<g id="edge37" class="edge"><title>Node37&#45;&gt;Node38</title>
<path fill="none" stroke="midnightblue" d="M454.831,-95.9866C482.176,-101.696 516.291,-108.819 543.277,-114.454"/>
<polygon fill="midnightblue" stroke="midnightblue" points="455.215,-92.4914 444.711,-93.8736 453.784,-99.3437 455.215,-92.4914"/>
</g>
<!-- Node39 -->
<g id="node39" class="node"><title>Node39</title>
<g id="a_node39"><a xlink:href="class_ogre_1_1_d3_d9_texture.html" target="_top" xlink:title="Ogre::D3D9Texture">
<polygon fill="none" stroke="black" points="539,-76.5 539,-95.5 641,-95.5 641,-76.5 539,-76.5"/>
<text text-anchor="middle" x="590" y="-83.5" font-family="Helvetica,sans-Serif" font-size="10.00">Ogre::D3D9Texture</text>
</a>
</g>
</g>
<!-- Node37&#45;&gt;Node39 -->
<g id="edge38" class="edge"><title>Node37&#45;&gt;Node39</title>
<path fill="none" stroke="midnightblue" d="M455.024,-86C480.877,-86 512.738,-86 538.903,-86"/>
<polygon fill="midnightblue" stroke="midnightblue" points="454.711,-82.5001 444.711,-86 454.71,-89.5001 454.711,-82.5001"/>
</g>
<!-- Node40 -->
<g id="node40" class="node"><title>Node40</title>
<g id="a_node40"><a xlink:href="class_ogre_1_1_g_l3_plus_texture.html" target="_top" xlink:title="Ogre::GL3PlusTexture">
<polygon fill="none" stroke="black" points="533,-38.5 533,-57.5 647,-57.5 647,-38.5 533,-38.5"/>
<text text-anchor="middle" x="590" y="-45.5" font-family="Helvetica,sans-Serif" font-size="10.00">Ogre::GL3PlusTexture</text>
</a>
</g>
</g>
<!-- Node37&#45;&gt;Node40 -->
<g id="edge39" class="edge"><title>Node37&#45;&gt;Node40</title>
<path fill="none" stroke="midnightblue" d="M454.831,-76.0134C482.176,-70.3039 516.291,-63.1809 543.277,-57.5465"/>
<polygon fill="midnightblue" stroke="midnightblue" points="453.784,-72.6563 444.711,-78.1264 455.215,-79.5086 453.784,-72.6563"/>
</g>
<!-- Node41 -->
<g id="node41" class="node"><title>Node41</title>
<g id="a_node41"><a xlink:href="class_ogre_1_1_g_l_texture.html" target="_top" xlink:title="Ogre::GLTexture">
<polygon fill="none" stroke="black" points="545.5,-0.5 545.5,-19.5 634.5,-19.5 634.5,-0.5 545.5,-0.5"/>
<text text-anchor="middle" x="590" y="-7.5" font-family="Helvetica,sans-Serif" font-size="10.00">Ogre::GLTexture</text>
</a>
</g>
</g>
<!-- Node37&#45;&gt;Node41 -->
<g id="edge40" class="edge"><title>Node37&#45;&gt;Node41</title>
<path fill="none" stroke="midnightblue" d="M432.004,-71.389C454.263,-58.8445 488.005,-40.947 519,-29 528.282,-25.4221 538.502,-22.243 548.196,-19.5574"/>
<polygon fill="midnightblue" stroke="midnightblue" points="430.162,-68.4103 423.209,-76.4045 433.63,-74.491 430.162,-68.4103"/>
</g>
</g>
</svg>
