<?xml version="1.0" encoding="UTF-8" standalone="no"?>
<!DOCTYPE svg PUBLIC "-//W3C//DTD SVG 1.1//EN"
 "http://www.w3.org/Graphics/SVG/1.1/DTD/svg11.dtd">
<!-- Generated by graphviz version 2.38.0 (20140413.2041)
 -->
<!-- Title: Ogre::RenderTarget Pages: 1 -->
<svg width="1001pt" height="584pt"
 viewBox="0.00 0.00 1001.00 584.00" xmlns="http://www.w3.org/2000/svg" xmlns:xlink="http://www.w3.org/1999/xlink">
<g id="graph0" class="graph" transform="scale(1 1) rotate(0) translate(4 580)">
<title>Ogre::RenderTarget</title>
<!-- Node1 -->
<g id="node1" class="node"><title>Node1</title>
<polygon fill="#bfbfbf" stroke="black" points="123,-267.5 123,-286.5 226,-286.5 226,-267.5 123,-267.5"/>
<text text-anchor="middle" x="174.5" y="-274.5" font-family="Helvetica,sans-Serif" font-size="10.00">Ogre::RenderTarget</text>
</g>
<!-- Node3 -->
<g id="node3" class="node"><title>Node3</title>
<g id="a_node3"><a xlink:href="class_ogre_1_1_multi_render_target.html" target="_top" xlink:title="This class represents a render target that renders to multiple RenderTextures at once. ">
<polygon fill="none" stroke="black" points="262,-449.5 262,-468.5 386,-468.5 386,-449.5 262,-449.5"/>
<text text-anchor="middle" x="324" y="-456.5" font-family="Helvetica,sans-Serif" font-size="10.00">Ogre::MultiRenderTarget</text>
</a>
</g>
</g>
<!-- Node1&#45;&gt;Node3 -->
<g id="edge2" class="edge"><title>Node1&#45;&gt;Node3</title>
<path fill="none" stroke="midnightblue" d="M189.992,-294.882C220.663,-332.726 291.269,-419.847 315.031,-449.167"/>
<polygon fill="midnightblue" stroke="midnightblue" points="192.446,-292.35 183.43,-286.785 187.007,-296.758 192.446,-292.35"/>
</g>
<!-- Node9 -->
<g id="node9" class="node"><title>Node9</title>
<g id="a_node9"><a xlink:href="class_ogre_1_1_render_texture.html" target="_top" xlink:title="This class represents a RenderTarget that renders to a Texture. ">
<polygon fill="none" stroke="black" points="270,-267.5 270,-286.5 378,-286.5 378,-267.5 270,-267.5"/>
<text text-anchor="middle" x="324" y="-274.5" font-family="Helvetica,sans-Serif" font-size="10.00">Ogre::RenderTexture</text>
</a>
</g>
</g>
<!-- Node1&#45;&gt;Node9 -->
<g id="edge8" class="edge"><title>Node1&#45;&gt;Node9</title>
<path fill="none" stroke="midnightblue" d="M236.338,-277C247.467,-277 259.002,-277 269.884,-277"/>
<polygon fill="midnightblue" stroke="midnightblue" points="236.261,-273.5 226.261,-277 236.261,-280.5 236.261,-273.5"/>
</g>
<!-- Node20 -->
<g id="node20" class="node"><title>Node20</title>
<g id="a_node20"><a xlink:href="class_ogre_1_1_render_window.html" target="_top" xlink:title="Manages the target rendering window. ">
<polygon fill="none" stroke="black" points="269,-57.5 269,-76.5 379,-76.5 379,-57.5 269,-57.5"/>
<text text-anchor="middle" x="324" y="-64.5" font-family="Helvetica,sans-Serif" font-size="10.00">Ogre::RenderWindow</text>
</a>
</g>
</g>
<!-- Node1&#45;&gt;Node20 -->
<g id="edge19" class="edge"><title>Node1&#45;&gt;Node20</title>
<path fill="none" stroke="midnightblue" d="M188.066,-259.109C218.107,-216.339 293.287,-109.303 316.239,-76.6252"/>
<polygon fill="midnightblue" stroke="midnightblue" points="185.105,-257.236 182.221,-267.431 190.833,-261.26 185.105,-257.236"/>
</g>
<!-- Node2 -->
<g id="node2" class="node"><title>Node2</title>
<g id="a_node2"><a xlink:href="class_ogre_1_1_allocated_object.html" target="_top" xlink:title="Superclass for all objects that wish to use custom memory allocators when their new / delete operator...">
<polygon fill="none" stroke="black" points="0,-267.5 0,-286.5 87,-286.5 87,-267.5 0,-267.5"/>
<text text-anchor="middle" x="43.5" y="-274.5" font-family="Helvetica,sans-Serif" font-size="10.00">RenderSysAlloc</text>
</a>
</g>
</g>
<!-- Node2&#45;&gt;Node1 -->
<g id="edge1" class="edge"><title>Node2&#45;&gt;Node1</title>
<path fill="none" stroke="midnightblue" d="M97.2458,-277C105.713,-277 114.461,-277 122.877,-277"/>
<polygon fill="midnightblue" stroke="midnightblue" points="97.097,-273.5 87.0969,-277 97.0969,-280.5 97.097,-273.5"/>
</g>
<!-- Node4 -->
<g id="node4" class="node"><title>Node4</title>
<g id="a_node4"><a xlink:href="class_ogre_1_1_d3_d11_multi_render_target.html" target="_top" xlink:title="Ogre::D3D11MultiRenderTarget">
<polygon fill="none" stroke="black" points="426.5,-556.5 426.5,-575.5 581.5,-575.5 581.5,-556.5 426.5,-556.5"/>
<text text-anchor="middle" x="504" y="-563.5" font-family="Helvetica,sans-Serif" font-size="10.00">Ogre::D3D11MultiRenderTarget</text>
</a>
</g>
</g>
<!-- Node3&#45;&gt;Node4 -->
<g id="edge3" class="edge"><title>Node3&#45;&gt;Node4</title>
<path fill="none" stroke="midnightblue" d="M339.245,-476.436C356.65,-496.553 388.005,-529.146 422,-547 429.417,-550.895 437.631,-554.001 445.9,-556.475"/>
<polygon fill="midnightblue" stroke="midnightblue" points="341.801,-474.038 332.673,-468.658 336.454,-478.556 341.801,-474.038"/>
</g>
<!-- Node5 -->
<g id="node5" class="node"><title>Node5</title>
<g id="a_node5"><a xlink:href="class_ogre_1_1_d3_d9_multi_render_target.html" target="_top" xlink:title="Ogre::D3D9MultiRenderTarget">
<polygon fill="none" stroke="black" points="429.5,-518.5 429.5,-537.5 578.5,-537.5 578.5,-518.5 429.5,-518.5"/>
<text text-anchor="middle" x="504" y="-525.5" font-family="Helvetica,sans-Serif" font-size="10.00">Ogre::D3D9MultiRenderTarget</text>
</a>
</g>
</g>
<!-- Node3&#45;&gt;Node5 -->
<g id="edge4" class="edge"><title>Node3&#45;&gt;Node5</title>
<path fill="none" stroke="midnightblue" d="M349.264,-473.636C368.439,-484.672 396.182,-499.483 422,-509 432.029,-512.697 443.028,-515.844 453.598,-518.451"/>
<polygon fill="midnightblue" stroke="midnightblue" points="350.984,-470.588 340.585,-468.562 347.451,-476.631 350.984,-470.588"/>
</g>
<!-- Node6 -->
<g id="node6" class="node"><title>Node6</title>
<g id="a_node6"><a xlink:href="class_ogre_1_1_g_l3_plus_f_b_o_multi_render_target.html" target="_top" xlink:title="MultiRenderTarget for OpenGL. ">
<polygon fill="none" stroke="black" points="427,-469 427,-499 581,-499 581,-469 427,-469"/>
<text text-anchor="start" x="435" y="-487" font-family="Helvetica,sans-Serif" font-size="10.00">Ogre::GL3PlusFBOMultiRender</text>
<text text-anchor="middle" x="504" y="-476" font-family="Helvetica,sans-Serif" font-size="10.00">Target</text>
</a>
</g>
</g>
<!-- Node3&#45;&gt;Node6 -->
<g id="edge5" class="edge"><title>Node3&#45;&gt;Node6</title>
<path fill="none" stroke="midnightblue" d="M396.209,-469.001C406.286,-470.417 416.68,-471.876 426.846,-473.304"/>
<polygon fill="midnightblue" stroke="midnightblue" points="396.647,-465.529 386.258,-467.604 395.673,-472.46 396.647,-465.529"/>
</g>
<!-- Node7 -->
<g id="node7" class="node"><title>Node7</title>
<g id="a_node7"><a xlink:href="class_ogre_1_1_g_l_e_s2_f_b_o_multi_render_target.html" target="_top" xlink:title="MultiRenderTarget for GL ES 2.x. ">
<polygon fill="none" stroke="black" points="430,-420 430,-450 578,-450 578,-420 430,-420"/>
<text text-anchor="start" x="438" y="-438" font-family="Helvetica,sans-Serif" font-size="10.00">Ogre::GLES2FBOMultiRender</text>
<text text-anchor="middle" x="504" y="-427" font-family="Helvetica,sans-Serif" font-size="10.00">Target</text>
</a>
</g>
</g>
<!-- Node3&#45;&gt;Node7 -->
<g id="edge6" class="edge"><title>Node3&#45;&gt;Node7</title>
<path fill="none" stroke="midnightblue" d="M396.306,-449.386C407.386,-447.892 418.848,-446.346 429.967,-444.847"/>
<polygon fill="midnightblue" stroke="midnightblue" points="395.7,-445.936 386.258,-450.741 396.636,-452.873 395.7,-445.936"/>
</g>
<!-- Node8 -->
<g id="node8" class="node"><title>Node8</title>
<g id="a_node8"><a xlink:href="class_ogre_1_1_g_l_f_b_o_multi_render_target.html" target="_top" xlink:title="MultiRenderTarget for GL. ">
<polygon fill="none" stroke="black" points="425.5,-381.5 425.5,-400.5 582.5,-400.5 582.5,-381.5 425.5,-381.5"/>
<text text-anchor="middle" x="504" y="-388.5" font-family="Helvetica,sans-Serif" font-size="10.00">Ogre::GLFBOMultiRenderTarget</text>
</a>
</g>
</g>
<!-- Node3&#45;&gt;Node8 -->
<g id="edge7" class="edge"><title>Node3&#45;&gt;Node8</title>
<path fill="none" stroke="midnightblue" d="M349.644,-444.49C368.827,-433.71 396.404,-419.317 422,-410 432.18,-406.295 443.347,-403.13 454.05,-400.506"/>
<polygon fill="midnightblue" stroke="midnightblue" points="347.897,-441.457 340.947,-449.454 351.367,-447.536 347.897,-441.457"/>
</g>
<!-- Node10 -->
<g id="node10" class="node"><title>Node10</title>
<g id="a_node10"><a xlink:href="class_ogre_1_1_d3_d11_render_texture.html" target="_top" xlink:title="RenderTexture implementation for D3D11. ">
<polygon fill="none" stroke="black" points="434.5,-343.5 434.5,-362.5 573.5,-362.5 573.5,-343.5 434.5,-343.5"/>
<text text-anchor="middle" x="504" y="-350.5" font-family="Helvetica,sans-Serif" font-size="10.00">Ogre::D3D11RenderTexture</text>
</a>
</g>
</g>
<!-- Node9&#45;&gt;Node10 -->
<g id="edge9" class="edge"><title>Node9&#45;&gt;Node10</title>
<path fill="none" stroke="midnightblue" d="M346.722,-292.349C365.763,-305.158 394.605,-323.032 422,-334 431.387,-337.758 441.696,-340.882 451.722,-343.437"/>
<polygon fill="midnightblue" stroke="midnightblue" points="348.686,-289.453 338.457,-286.692 344.732,-295.229 348.686,-289.453"/>
</g>
<!-- Node11 -->
<g id="node11" class="node"><title>Node11</title>
<g id="a_node11"><a xlink:href="class_ogre_1_1_d3_d9_render_texture.html" target="_top" xlink:title="RenderTexture implementation for D3D9. ">
<polygon fill="none" stroke="black" points="437,-305.5 437,-324.5 571,-324.5 571,-305.5 437,-305.5"/>
<text text-anchor="middle" x="504" y="-312.5" font-family="Helvetica,sans-Serif" font-size="10.00">Ogre::D3D9RenderTexture</text>
</a>
</g>
</g>
<!-- Node9&#45;&gt;Node11 -->
<g id="edge10" class="edge"><title>Node9&#45;&gt;Node11</title>
<path fill="none" stroke="midnightblue" d="M379.716,-288.681C404.959,-294.07 434.545,-300.386 458.406,-305.48"/>
<polygon fill="midnightblue" stroke="midnightblue" points="380.427,-285.254 369.917,-286.589 378.966,-292.1 380.427,-285.254"/>
</g>
<!-- Node12 -->
<g id="node12" class="node"><title>Node12</title>
<g id="a_node12"><a xlink:href="class_ogre_1_1_g_l3_plus_render_texture.html" target="_top" xlink:title="Base class for GL Render Textures. ">
<polygon fill="none" stroke="black" points="431,-267.5 431,-286.5 577,-286.5 577,-267.5 431,-267.5"/>
<text text-anchor="middle" x="504" y="-274.5" font-family="Helvetica,sans-Serif" font-size="10.00">Ogre::GL3PlusRenderTexture</text>
</a>
</g>
</g>
<!-- Node9&#45;&gt;Node12 -->
<g id="edge11" class="edge"><title>Node9&#45;&gt;Node12</title>
<path fill="none" stroke="midnightblue" d="M388.67,-277C402.346,-277 416.892,-277 430.863,-277"/>
<polygon fill="midnightblue" stroke="midnightblue" points="388.406,-273.5 378.406,-277 388.406,-280.5 388.406,-273.5"/>
</g>
<!-- Node14 -->
<g id="node14" class="node"><title>Node14</title>
<g id="a_node14"><a xlink:href="class_ogre_1_1_g_l_e_s2_render_texture.html" target="_top" xlink:title="Base class for GL Render Textures. ">
<polygon fill="none" stroke="black" points="434,-229.5 434,-248.5 574,-248.5 574,-229.5 434,-229.5"/>
<text text-anchor="middle" x="504" y="-236.5" font-family="Helvetica,sans-Serif" font-size="10.00">Ogre::GLES2RenderTexture</text>
</a>
</g>
</g>
<!-- Node9&#45;&gt;Node14 -->
<g id="edge13" class="edge"><title>Node9&#45;&gt;Node14</title>
<path fill="none" stroke="midnightblue" d="M379.716,-265.319C404.959,-259.93 434.545,-253.614 458.406,-248.52"/>
<polygon fill="midnightblue" stroke="midnightblue" points="378.966,-261.9 369.917,-267.411 380.427,-268.746 378.966,-261.9"/>
</g>
<!-- Node16 -->
<g id="node16" class="node"><title>Node16</title>
<g id="a_node16"><a xlink:href="class_ogre_1_1_g_l_render_texture.html" target="_top" xlink:title="Base class for GL Render Textures. ">
<polygon fill="none" stroke="black" points="443.5,-169.5 443.5,-188.5 564.5,-188.5 564.5,-169.5 443.5,-169.5"/>
<text text-anchor="middle" x="504" y="-176.5" font-family="Helvetica,sans-Serif" font-size="10.00">Ogre::GLRenderTexture</text>
</a>
</g>
</g>
<!-- Node9&#45;&gt;Node16 -->
<g id="edge15" class="edge"><title>Node9&#45;&gt;Node16</title>
<path fill="none" stroke="midnightblue" d="M349.172,-262.227C368.651,-250.46 396.843,-233.741 422,-220 442.61,-208.743 466.669,-196.7 483.179,-188.6"/>
<polygon fill="midnightblue" stroke="midnightblue" points="347.355,-259.235 340.619,-267.413 350.985,-265.22 347.355,-259.235"/>
</g>
<!-- Node13 -->
<g id="node13" class="node"><title>Node13</title>
<g id="a_node13"><a xlink:href="class_ogre_1_1_g_l3_plus_f_b_o_render_texture.html" target="_top" xlink:title="RenderTexture for GL FBO. ">
<polygon fill="none" stroke="black" points="623,-284.5 623,-303.5 789,-303.5 789,-284.5 623,-284.5"/>
<text text-anchor="middle" x="706" y="-291.5" font-family="Helvetica,sans-Serif" font-size="10.00">Ogre::GL3PlusFBORenderTexture</text>
</a>
</g>
</g>
<!-- Node12&#45;&gt;Node13 -->
<g id="edge12" class="edge"><title>Node12&#45;&gt;Node13</title>
<path fill="none" stroke="midnightblue" d="M587.362,-284.001C599.036,-284.993 611.042,-286.014 622.714,-287.006"/>
<polygon fill="midnightblue" stroke="midnightblue" points="587.465,-280.497 577.205,-283.137 586.872,-287.472 587.465,-280.497"/>
</g>
<!-- Node15 -->
<g id="node15" class="node"><title>Node15</title>
<g id="a_node15"><a xlink:href="class_ogre_1_1_g_l_e_s2_copying_render_texture.html" target="_top" xlink:title="Ogre::GLES2CopyingRender\lTexture">
<polygon fill="none" stroke="black" points="634.5,-235 634.5,-265 777.5,-265 777.5,-235 634.5,-235"/>
<text text-anchor="start" x="642.5" y="-253" font-family="Helvetica,sans-Serif" font-size="10.00">Ogre::GLES2CopyingRender</text>
<text text-anchor="middle" x="706" y="-242" font-family="Helvetica,sans-Serif" font-size="10.00">Texture</text>
</a>
</g>
</g>
<!-- Node14&#45;&gt;Node15 -->
<g id="edge14" class="edge"><title>Node14&#45;&gt;Node15</title>
<path fill="none" stroke="midnightblue" d="M584.258,-243.359C600.749,-244.266 618.027,-245.217 634.191,-246.105"/>
<polygon fill="midnightblue" stroke="midnightblue" points="584.286,-239.856 574.109,-242.801 583.901,-246.845 584.286,-239.856"/>
</g>
<!-- Node17 -->
<g id="node17" class="node"><title>Node17</title>
<g id="a_node17"><a xlink:href="class_ogre_1_1_g_l_copying_render_texture.html" target="_top" xlink:title="Ogre::GLCopyingRenderTexture">
<polygon fill="none" stroke="black" points="627.5,-196.5 627.5,-215.5 784.5,-215.5 784.5,-196.5 627.5,-196.5"/>
<text text-anchor="middle" x="706" y="-203.5" font-family="Helvetica,sans-Serif" font-size="10.00">Ogre::GLCopyingRenderTexture</text>
</a>
</g>
</g>
<!-- Node16&#45;&gt;Node17 -->
<g id="edge16" class="edge"><title>Node16&#45;&gt;Node17</title>
<path fill="none" stroke="midnightblue" d="M574.661,-188.404C593.965,-191.01 614.935,-193.841 634.297,-196.455"/>
<polygon fill="midnightblue" stroke="midnightblue" points="575.114,-184.934 564.736,-187.064 574.178,-191.871 575.114,-184.934"/>
</g>
<!-- Node18 -->
<g id="node18" class="node"><title>Node18</title>
<g id="a_node18"><a xlink:href="class_ogre_1_1_g_l_f_b_o_render_texture.html" target="_top" xlink:title="RenderTexture for GL FBO. ">
<polygon fill="none" stroke="black" points="635.5,-158.5 635.5,-177.5 776.5,-177.5 776.5,-158.5 635.5,-158.5"/>
<text text-anchor="middle" x="706" y="-165.5" font-family="Helvetica,sans-Serif" font-size="10.00">Ogre::GLFBORenderTexture</text>
</a>
</g>
</g>
<!-- Node16&#45;&gt;Node18 -->
<g id="edge17" class="edge"><title>Node16&#45;&gt;Node18</title>
<path fill="none" stroke="midnightblue" d="M574.821,-175.16C594.438,-174.081 615.766,-172.908 635.373,-171.83"/>
<polygon fill="midnightblue" stroke="midnightblue" points="574.528,-171.671 564.736,-175.715 574.913,-178.66 574.528,-171.671"/>
</g>
<!-- Node19 -->
<g id="node19" class="node"><title>Node19</title>
<g id="a_node19"><a xlink:href="class_ogre_1_1_g_l_p_b_render_texture.html" target="_top" xlink:title="Ogre::GLPBRenderTexture">
<polygon fill="none" stroke="black" points="639,-120.5 639,-139.5 773,-139.5 773,-120.5 639,-120.5"/>
<text text-anchor="middle" x="706" y="-127.5" font-family="Helvetica,sans-Serif" font-size="10.00">Ogre::GLPBRenderTexture</text>
</a>
</g>
</g>
<!-- Node16&#45;&gt;Node19 -->
<g id="edge18" class="edge"><title>Node16&#45;&gt;Node19</title>
<path fill="none" stroke="midnightblue" d="M551.157,-166.871C572.657,-161.296 598.602,-154.677 622,-149 635.073,-145.828 649.339,-142.511 662.299,-139.552"/>
<polygon fill="midnightblue" stroke="midnightblue" points="550.101,-163.529 541.304,-169.433 551.863,-170.303 550.101,-163.529"/>
</g>
<!-- Node21 -->
<g id="node21" class="node"><title>Node21</title>
<g id="a_node21"><a xlink:href="class_ogre_1_1_d3_d11_render_window_base.html" target="_top" xlink:title="Ogre::D3D11RenderWindowBase">
<polygon fill="none" stroke="black" points="422,-76.5 422,-95.5 586,-95.5 586,-76.5 422,-76.5"/>
<text text-anchor="middle" x="504" y="-83.5" font-family="Helvetica,sans-Serif" font-size="10.00">Ogre::D3D11RenderWindowBase</text>
</a>
</g>
</g>
<!-- Node20&#45;&gt;Node21 -->
<g id="edge20" class="edge"><title>Node20&#45;&gt;Node21</title>
<path fill="none" stroke="midnightblue" d="M389.627,-73.8984C400.066,-75.0126 410.99,-76.1787 421.761,-77.3284"/>
<polygon fill="midnightblue" stroke="midnightblue" points="389.688,-70.3851 379.373,-72.8039 388.945,-77.3456 389.688,-70.3851"/>
</g>
<!-- Node26 -->
<g id="node26" class="node"><title>Node26</title>
<g id="a_node26"><a xlink:href="class_ogre_1_1_d3_d9_render_window.html" target="_top" xlink:title="Ogre::D3D9RenderWindow">
<polygon fill="none" stroke="black" points="436,-38.5 436,-57.5 572,-57.5 572,-38.5 436,-38.5"/>
<text text-anchor="middle" x="504" y="-45.5" font-family="Helvetica,sans-Serif" font-size="10.00">Ogre::D3D9RenderWindow</text>
</a>
</g>
</g>
<!-- Node20&#45;&gt;Node26 -->
<g id="edge25" class="edge"><title>Node20&#45;&gt;Node26</title>
<path fill="none" stroke="midnightblue" d="M389.587,-60.1059C404.606,-58.5027 420.631,-56.7922 435.761,-55.1772"/>
<polygon fill="midnightblue" stroke="midnightblue" points="388.945,-56.6544 379.373,-61.1961 389.688,-63.6149 388.945,-56.6544"/>
</g>
<!-- Node27 -->
<g id="node27" class="node"><title>Node27</title>
<g id="a_node27"><a xlink:href="class_ogre_1_1_na_cl_window.html" target="_top" xlink:title="Ogre::NaClWindow">
<polygon fill="none" stroke="black" points="453.5,-0.5 453.5,-19.5 554.5,-19.5 554.5,-0.5 453.5,-0.5"/>
<text text-anchor="middle" x="504" y="-7.5" font-family="Helvetica,sans-Serif" font-size="10.00">Ogre::NaClWindow</text>
</a>
</g>
</g>
<!-- Node20&#45;&gt;Node27 -->
<g id="edge26" class="edge"><title>Node20&#45;&gt;Node27</title>
<path fill="none" stroke="midnightblue" d="M355.923,-53.5781C374.778,-45.7239 399.501,-36.0063 422,-29 433.309,-25.4784 445.683,-22.2634 457.281,-19.52"/>
<polygon fill="midnightblue" stroke="midnightblue" points="354.496,-50.3815 346.641,-57.4913 357.215,-56.8317 354.496,-50.3815"/>
</g>
<!-- Node22 -->
<g id="node22" class="node"><title>Node22</title>
<g id="a_node22"><a xlink:href="class_ogre_1_1_d3_d11_render_window_image_source.html" target="_top" xlink:title="Ogre::D3D11RenderWindowImage\lSource">
<polygon fill="none" stroke="black" points="622,-71 622,-101 790,-101 790,-71 622,-71"/>
<text text-anchor="start" x="630" y="-89" font-family="Helvetica,sans-Serif" font-size="10.00">Ogre::D3D11RenderWindowImage</text>
<text text-anchor="middle" x="706" y="-78" font-family="Helvetica,sans-Serif" font-size="10.00">Source</text>
</a>
</g>
</g>
<!-- Node21&#45;&gt;Node22 -->
<g id="edge21" class="edge"><title>Node21&#45;&gt;Node22</title>
<path fill="none" stroke="midnightblue" d="M596.089,-86C604.681,-86 613.361,-86 621.873,-86"/>
<polygon fill="midnightblue" stroke="midnightblue" points="596.059,-82.5001 586.059,-86 596.059,-89.5001 596.059,-82.5001"/>
</g>
<!-- Node23 -->
<g id="node23" class="node"><title>Node23</title>
<g id="a_node23"><a xlink:href="class_ogre_1_1_d3_d11_render_window_swap_chain_based.html" target="_top" xlink:title="Ogre::D3D11RenderWindowSwap\lChainBased">
<polygon fill="none" stroke="black" points="623,-22 623,-52 789,-52 789,-22 623,-22"/>
<text text-anchor="start" x="631" y="-40" font-family="Helvetica,sans-Serif" font-size="10.00">Ogre::D3D11RenderWindowSwap</text>
<text text-anchor="middle" x="706" y="-29" font-family="Helvetica,sans-Serif" font-size="10.00">ChainBased</text>
</a>
</g>
</g>
<!-- Node21&#45;&gt;Node23 -->
<g id="edge22" class="edge"><title>Node21&#45;&gt;Node23</title>
<path fill="none" stroke="midnightblue" d="M556.017,-74.1686C565.968,-71.8227 576.316,-69.3563 586,-67 605.564,-62.2399 626.899,-56.9061 646.033,-52.0709"/>
<polygon fill="midnightblue" stroke="midnightblue" points="555.173,-70.7716 546.238,-76.4659 556.774,-77.5861 555.173,-70.7716"/>
</g>
<!-- Node24 -->
<g id="node24" class="node"><title>Node24</title>
<g id="a_node24"><a xlink:href="class_ogre_1_1_d3_d11_render_window_core_window.html" target="_top" xlink:title="Ogre::D3D11RenderWindowCore\lWindow">
<polygon fill="none" stroke="black" points="828.5,-44 828.5,-74 990.5,-74 990.5,-44 828.5,-44"/>
<text text-anchor="start" x="836.5" y="-62" font-family="Helvetica,sans-Serif" font-size="10.00">Ogre::D3D11RenderWindowCore</text>
<text text-anchor="middle" x="909.5" y="-51" font-family="Helvetica,sans-Serif" font-size="10.00">Window</text>
</a>
</g>
</g>
<!-- Node23&#45;&gt;Node24 -->
<g id="edge23" class="edge"><title>Node23&#45;&gt;Node24</title>
<path fill="none" stroke="midnightblue" d="M799.333,-47.081C809.062,-48.1432 818.896,-49.2169 828.469,-50.2621"/>
<polygon fill="midnightblue" stroke="midnightblue" points="799.569,-43.5861 789.248,-45.98 798.809,-50.5447 799.569,-43.5861"/>
</g>
<!-- Node25 -->
<g id="node25" class="node"><title>Node25</title>
<g id="a_node25"><a xlink:href="class_ogre_1_1_d3_d11_render_window_hwnd.html" target="_top" xlink:title="Ogre::D3D11RenderWindowHwnd">
<polygon fill="none" stroke="black" points="826,-5.5 826,-24.5 993,-24.5 993,-5.5 826,-5.5"/>
<text text-anchor="middle" x="909.5" y="-12.5" font-family="Helvetica,sans-Serif" font-size="10.00">Ogre::D3D11RenderWindowHwnd</text>
</a>
</g>
</g>
<!-- Node23&#45;&gt;Node25 -->
<g id="edge24" class="edge"><title>Node23&#45;&gt;Node25</title>
<path fill="none" stroke="midnightblue" d="M799.225,-26.9308C808.108,-25.961 817.079,-24.9814 825.861,-24.0226"/>
<polygon fill="midnightblue" stroke="midnightblue" points="798.809,-23.4553 789.248,-28.02 799.569,-30.4139 798.809,-23.4553"/>
</g>
</g>
</svg>
