<?xml version="1.0" encoding="UTF-8" standalone="no"?>
<!DOCTYPE svg PUBLIC "-//W3C//DTD SVG 1.1//EN"
 "http://www.w3.org/Graphics/SVG/1.1/DTD/svg11.dtd">
<!-- Generated by graphviz version 2.38.0 (20140413.2041)
 -->
<!-- Title: Ogre::D3D11RenderWindowCoreWindow Pages: 1 -->
<svg width="284pt" height="274pt"
 viewBox="0.00 0.00 283.50 274.00" xmlns="http://www.w3.org/2000/svg" xmlns:xlink="http://www.w3.org/1999/xlink">
<g id="graph0" class="graph" transform="scale(1 1) rotate(0) translate(4 270)">
<title>Ogre::D3D11RenderWindowCoreWindow</title>
<!-- Node1 -->
<g id="node1" class="node"><title>Node1</title>
<polygon fill="#bfbfbf" stroke="black" points="47,-0.5 47,-30.5 209,-30.5 209,-0.5 47,-0.5"/>
<text text-anchor="start" x="55" y="-18.5" font-family="Helvetica,sans-Serif" font-size="10.00">Ogre::D3D11RenderWindowCore</text>
<text text-anchor="middle" x="128" y="-7.5" font-family="Helvetica,sans-Serif" font-size="10.00">Window</text>
</g>
<!-- Node2 -->
<g id="node2" class="node"><title>Node2</title>
<g id="a_node2"><a xlink:href="class_ogre_1_1_d3_d11_render_window_swap_chain_based.html" target="_top" xlink:title="Ogre::D3D11RenderWindowSwap\lChainBased">
<polygon fill="none" stroke="black" points="45,-67.5 45,-97.5 211,-97.5 211,-67.5 45,-67.5"/>
<text text-anchor="start" x="53" y="-85.5" font-family="Helvetica,sans-Serif" font-size="10.00">Ogre::D3D11RenderWindowSwap</text>
<text text-anchor="middle" x="128" y="-74.5" font-family="Helvetica,sans-Serif" font-size="10.00">ChainBased</text>
</a>
</g>
</g>
<!-- Node2&#45;&gt;Node1 -->
<g id="edge1" class="edge"><title>Node2&#45;&gt;Node1</title>
<path fill="none" stroke="midnightblue" d="M128,-57.1081C128,-48.1539 128,-38.3227 128,-30.5765"/>
<polygon fill="midnightblue" stroke="midnightblue" points="124.5,-57.3959 128,-67.396 131.5,-57.396 124.5,-57.3959"/>
</g>
<!-- Node3 -->
<g id="node3" class="node"><title>Node3</title>
<g id="a_node3"><a xlink:href="class_ogre_1_1_d3_d11_render_window_base.html" target="_top" xlink:title="Ogre::D3D11RenderWindowBase">
<polygon fill="none" stroke="black" points="46,-134.5 46,-153.5 210,-153.5 210,-134.5 46,-134.5"/>
<text text-anchor="middle" x="128" y="-141.5" font-family="Helvetica,sans-Serif" font-size="10.00">Ogre::D3D11RenderWindowBase</text>
</a>
</g>
</g>
<!-- Node3&#45;&gt;Node2 -->
<g id="edge2" class="edge"><title>Node3&#45;&gt;Node2</title>
<path fill="none" stroke="midnightblue" d="M128,-124.235C128,-115.586 128,-105.497 128,-97.523"/>
<polygon fill="midnightblue" stroke="midnightblue" points="124.5,-124.475 128,-134.475 131.5,-124.475 124.5,-124.475"/>
</g>
<!-- Node4 -->
<g id="node4" class="node"><title>Node4</title>
<g id="a_node4"><a xlink:href="class_ogre_1_1_render_window.html" target="_top" xlink:title="Manages the target rendering window. ">
<polygon fill="none" stroke="black" points="0,-190.5 0,-209.5 110,-209.5 110,-190.5 0,-190.5"/>
<text text-anchor="middle" x="55" y="-197.5" font-family="Helvetica,sans-Serif" font-size="10.00">Ogre::RenderWindow</text>
</a>
</g>
</g>
<!-- Node4&#45;&gt;Node3 -->
<g id="edge3" class="edge"><title>Node4&#45;&gt;Node3</title>
<path fill="none" stroke="midnightblue" d="M75.1416,-184.101C88.2793,-174.382 104.982,-162.027 116.058,-153.834"/>
<polygon fill="midnightblue" stroke="midnightblue" points="72.6867,-181.563 66.7287,-190.324 76.8497,-187.191 72.6867,-181.563"/>
</g>
<!-- Node5 -->
<g id="node5" class="node"><title>Node5</title>
<g id="a_node5"><a xlink:href="class_ogre_1_1_render_target.html" target="_top" xlink:title="A &#39;canvas&#39; which can receive the results of a rendering operation. ">
<polygon fill="none" stroke="red" points="3.5,-246.5 3.5,-265.5 106.5,-265.5 106.5,-246.5 3.5,-246.5"/>
<text text-anchor="middle" x="55" y="-253.5" font-family="Helvetica,sans-Serif" font-size="10.00">Ogre::RenderTarget</text>
</a>
</g>
</g>
<!-- Node5&#45;&gt;Node4 -->
<g id="edge4" class="edge"><title>Node5&#45;&gt;Node4</title>
<path fill="none" stroke="midnightblue" d="M55,-235.805C55,-226.91 55,-216.78 55,-209.751"/>
<polygon fill="midnightblue" stroke="midnightblue" points="51.5001,-236.083 55,-246.083 58.5001,-236.083 51.5001,-236.083"/>
</g>
<!-- Node6 -->
<g id="node6" class="node"><title>Node6</title>
<g id="a_node6"><a xlink:href="class_ogre_1_1_d3_d11_device_resource.html" target="_top" xlink:title="Represents a Direct3D rendering resource. ">
<polygon fill="none" stroke="black" points="128.5,-190.5 128.5,-209.5 275.5,-209.5 275.5,-190.5 128.5,-190.5"/>
<text text-anchor="middle" x="202" y="-197.5" font-family="Helvetica,sans-Serif" font-size="10.00">Ogre::D3D11DeviceResource</text>
</a>
</g>
</g>
<!-- Node6&#45;&gt;Node3 -->
<g id="edge5" class="edge"><title>Node6&#45;&gt;Node3</title>
<path fill="none" stroke="darkgreen" d="M181.966,-184.38C168.591,-174.62 151.441,-162.106 140.106,-153.834"/>
<polygon fill="darkgreen" stroke="darkgreen" points="179.97,-187.257 190.111,-190.324 184.096,-181.602 179.97,-187.257"/>
</g>
</g>
</svg>
