<?xml version="1.0" encoding="UTF-8" standalone="no"?>
<!DOCTYPE svg PUBLIC "-//W3C//DTD SVG 1.1//EN"
 "http://www.w3.org/Graphics/SVG/1.1/DTD/svg11.dtd">
<!-- Generated by graphviz version 2.38.0 (20140413.2041)
 -->
<!-- Title: Ogre::RTShader::ShaderGenerator::SGRenderObjectListener Pages: 1 -->
<svg width="280pt" height="95pt"
 viewBox="0.00 0.00 280.00 95.00" xmlns="http://www.w3.org/2000/svg" xmlns:xlink="http://www.w3.org/1999/xlink">
<g id="graph0" class="graph" transform="scale(1 1) rotate(0) translate(4 91)">
<title>Ogre::RTShader::ShaderGenerator::SGRenderObjectListener</title>
<!-- Node1 -->
<g id="node1" class="node"><title>Node1</title>
<polygon fill="#bfbfbf" stroke="black" points="57.5,-0.5 57.5,-30.5 224.5,-30.5 224.5,-0.5 57.5,-0.5"/>
<text text-anchor="start" x="65.5" y="-18.5" font-family="Helvetica,sans-Serif" font-size="10.00">Ogre::RTShader::ShaderGenerator</text>
<text text-anchor="middle" x="141" y="-7.5" font-family="Helvetica,sans-Serif" font-size="10.00">::SGRenderObjectListener</text>
</g>
<!-- Node2 -->
<g id="node2" class="node"><title>Node2</title>
<g id="a_node2"><a xlink:href="class_ogre_1_1_render_object_listener.html" target="_top" xlink:title="Abstract interface which classes must implement if they wish to receive events from the scene manager...">
<polygon fill="none" stroke="black" points="0,-67.5 0,-86.5 138,-86.5 138,-67.5 0,-67.5"/>
<text text-anchor="middle" x="69" y="-74.5" font-family="Helvetica,sans-Serif" font-size="10.00">Ogre::RenderObjectListener</text>
</a>
</g>
</g>
<!-- Node2&#45;&gt;Node1 -->
<g id="edge1" class="edge"><title>Node2&#45;&gt;Node1</title>
<path fill="none" stroke="midnightblue" d="M87.2463,-60.9215C98.5515,-51.579 112.973,-39.6616 124.031,-30.523"/>
<polygon fill="midnightblue" stroke="midnightblue" points="84.7948,-58.4069 79.3158,-67.4751 89.2539,-63.8028 84.7948,-58.4069"/>
</g>
<!-- Node3 -->
<g id="node3" class="node"><title>Node3</title>
<g id="a_node3"><a xlink:href="class_ogre_1_1_allocated_object.html" target="_top" xlink:title="Superclass for all objects that wish to use custom memory allocators when their new / delete operator...">
<polygon fill="none" stroke="black" points="156,-67.5 156,-86.5 272,-86.5 272,-67.5 156,-67.5"/>
<text text-anchor="middle" x="214" y="-74.5" font-family="Helvetica,sans-Serif" font-size="10.00">RTShaderSystemAlloc</text>
</a>
</g>
</g>
<!-- Node3&#45;&gt;Node1 -->
<g id="edge2" class="edge"><title>Node3&#45;&gt;Node1</title>
<path fill="none" stroke="midnightblue" d="M195.5,-60.9215C184.038,-51.579 169.417,-39.6616 158.205,-30.523"/>
<polygon fill="midnightblue" stroke="midnightblue" points="193.578,-63.8701 203.541,-67.4751 198.001,-58.4442 193.578,-63.8701"/>
</g>
</g>
</svg>
