<?xml version="1.0" encoding="UTF-8" standalone="no"?>
<!DOCTYPE svg PUBLIC "-//W3C//DTD SVG 1.1//EN"
 "http://www.w3.org/Graphics/SVG/1.1/DTD/svg11.dtd">
<!-- Generated by graphviz version 2.38.0 (20140413.2041)
 -->
<!-- Title: Ogre::FrameListener Pages: 1 -->
<svg width="299pt" height="165pt"
 viewBox="0.00 0.00 299.00 164.50" xmlns="http://www.w3.org/2000/svg" xmlns:xlink="http://www.w3.org/1999/xlink">
<g id="graph0" class="graph" transform="scale(1 1) rotate(0) translate(4 160.5)">
<title>Ogre::FrameListener</title>
<!-- Node1 -->
<g id="node1" class="node"><title>Node1</title>
<polygon fill="#bfbfbf" stroke="black" points="0,-60.5 0,-79.5 106,-79.5 106,-60.5 0,-60.5"/>
<text text-anchor="middle" x="53" y="-67.5" font-family="Helvetica,sans-Serif" font-size="10.00">Ogre::FrameListener</text>
</g>
<!-- Node2 -->
<g id="node2" class="node"><title>Node2</title>
<g id="a_node2"><a xlink:href="class_ogre_1_1_frame_time_controller_value.html" target="_top" xlink:title="Predefined controller value for getting the latest frame time. ">
<polygon fill="none" stroke="black" points="149,-126 149,-156 284,-156 284,-126 149,-126"/>
<text text-anchor="start" x="157" y="-144" font-family="Helvetica,sans-Serif" font-size="10.00">Ogre::FrameTimeController</text>
<text text-anchor="middle" x="216.5" y="-133" font-family="Helvetica,sans-Serif" font-size="10.00">Value</text>
</a>
</g>
</g>
<!-- Node1&#45;&gt;Node2 -->
<g id="edge1" class="edge"><title>Node1&#45;&gt;Node2</title>
<path fill="none" stroke="midnightblue" d="M78.6993,-84.6949C96.0299,-94.6289 119.954,-107.599 142,-117 149.409,-120.159 157.382,-123.156 165.248,-125.893"/>
<polygon fill="midnightblue" stroke="midnightblue" points="80.2089,-81.5243 69.8033,-79.5303 76.6943,-87.578 80.2089,-81.5243"/>
</g>
<!-- Node3 -->
<g id="node3" class="node"><title>Node3</title>
<g id="a_node3"><a xlink:href="class_ogre_1_1_page_manager_1_1_event_router.html" target="_top" xlink:title="Ogre::PageManager::\lEventRouter">
<polygon fill="none" stroke="black" points="161.5,-77 161.5,-107 271.5,-107 271.5,-77 161.5,-77"/>
<text text-anchor="start" x="169.5" y="-95" font-family="Helvetica,sans-Serif" font-size="10.00">Ogre::PageManager::</text>
<text text-anchor="middle" x="216.5" y="-84" font-family="Helvetica,sans-Serif" font-size="10.00">EventRouter</text>
</a>
</g>
</g>
<!-- Node1&#45;&gt;Node3 -->
<g id="edge2" class="edge"><title>Node1&#45;&gt;Node3</title>
<path fill="none" stroke="midnightblue" d="M116.52,-78.5167C131.325,-80.5335 146.993,-82.6678 161.389,-84.6288"/>
<polygon fill="midnightblue" stroke="midnightblue" points="116.815,-75.0246 106.434,-77.1428 115.87,-81.9606 116.815,-75.0246"/>
</g>
<!-- Node4 -->
<g id="node4" class="node"><title>Node4</title>
<g id="a_node4"><a xlink:href="class_ogre_1_1_volume_1_1_chunk.html" target="_top" xlink:title="A single volume chunk mesh. ">
<polygon fill="none" stroke="black" points="161,-38.5 161,-57.5 272,-57.5 272,-38.5 161,-38.5"/>
<text text-anchor="middle" x="216.5" y="-45.5" font-family="Helvetica,sans-Serif" font-size="10.00">Ogre::Volume::Chunk</text>
</a>
</g>
</g>
<!-- Node1&#45;&gt;Node4 -->
<g id="edge3" class="edge"><title>Node1&#45;&gt;Node4</title>
<path fill="none" stroke="midnightblue" d="M116.413,-61.498C131.059,-59.5028 146.554,-57.392 160.831,-55.4471"/>
<polygon fill="midnightblue" stroke="midnightblue" points="115.87,-58.0394 106.434,-62.8572 116.815,-64.9754 115.87,-58.0394"/>
</g>
<!-- Node5 -->
<g id="node5" class="node"><title>Node5</title>
<g id="a_node5"><a xlink:href="class_ogre_bites_1_1_application_context.html" target="_top" xlink:title="Base class responsible for setting up a common context for samples. ">
<polygon fill="none" stroke="black" points="142,-0.5 142,-19.5 291,-19.5 291,-0.5 142,-0.5"/>
<text text-anchor="middle" x="216.5" y="-7.5" font-family="Helvetica,sans-Serif" font-size="10.00">OgreBites::ApplicationContext</text>
</a>
</g>
</g>
<!-- Node1&#45;&gt;Node5 -->
<g id="edge4" class="edge"><title>Node1&#45;&gt;Node5</title>
<path fill="none" stroke="midnightblue" d="M81.4941,-55.6012C98.578,-47.0569 121.179,-36.4703 142,-29 151.924,-25.4392 162.824,-22.2484 173.12,-19.5442"/>
<polygon fill="midnightblue" stroke="midnightblue" points="79.4599,-52.7087 72.1281,-60.357 82.6291,-58.9502 79.4599,-52.7087"/>
</g>
</g>
</svg>
