<?xml version="1.0" encoding="UTF-8" standalone="no"?>
<!DOCTYPE svg PUBLIC "-//W3C//DTD SVG 1.1//EN"
 "http://www.w3.org/Graphics/SVG/1.1/DTD/svg11.dtd">
<!-- Generated by graphviz version 2.38.0 (20140413.2041)
 -->
<!-- Title: Ogre::MovableObjectFactory Pages: 1 -->
<svg width="440pt" height="256pt"
 viewBox="0.00 0.00 440.00 256.00" xmlns="http://www.w3.org/2000/svg" xmlns:xlink="http://www.w3.org/1999/xlink">
<g id="graph0" class="graph" transform="scale(1 1) rotate(0) translate(4 252)">
<title>Ogre::MovableObjectFactory</title>
<!-- Node1 -->
<g id="node1" class="node"><title>Node1</title>
<polygon fill="#bfbfbf" stroke="black" points="111,-114.5 111,-133.5 253,-133.5 253,-114.5 111,-114.5"/>
<text text-anchor="middle" x="182" y="-121.5" font-family="Helvetica,sans-Serif" font-size="10.00">Ogre::MovableObjectFactory</text>
</g>
<!-- Node3 -->
<g id="node3" class="node"><title>Node3</title>
<g id="a_node3"><a xlink:href="class_ogre_1_1_billboard_chain_factory.html" target="_top" xlink:title="Factory object for creating BillboardChain instances. ">
<polygon fill="none" stroke="black" points="290.5,-228.5 290.5,-247.5 430.5,-247.5 430.5,-228.5 290.5,-228.5"/>
<text text-anchor="middle" x="360.5" y="-235.5" font-family="Helvetica,sans-Serif" font-size="10.00">Ogre::BillboardChainFactory</text>
</a>
</g>
</g>
<!-- Node1&#45;&gt;Node3 -->
<g id="edge2" class="edge"><title>Node1&#45;&gt;Node3</title>
<path fill="none" stroke="midnightblue" d="M197.631,-141.371C216.57,-162.754 251.605,-198.717 289,-219 296.131,-222.868 304.103,-225.99 312.05,-228.496"/>
<polygon fill="midnightblue" stroke="midnightblue" points="200.17,-138.957 190.972,-133.698 194.883,-143.544 200.17,-138.957"/>
</g>
<!-- Node4 -->
<g id="node4" class="node"><title>Node4</title>
<g id="a_node4"><a xlink:href="class_ogre_1_1_billboard_set_factory.html" target="_top" xlink:title="Factory object for creating BillboardSet instances. ">
<polygon fill="none" stroke="black" points="296,-190.5 296,-209.5 425,-209.5 425,-190.5 296,-190.5"/>
<text text-anchor="middle" x="360.5" y="-197.5" font-family="Helvetica,sans-Serif" font-size="10.00">Ogre::BillboardSetFactory</text>
</a>
</g>
</g>
<!-- Node1&#45;&gt;Node4 -->
<g id="edge3" class="edge"><title>Node1&#45;&gt;Node4</title>
<path fill="none" stroke="midnightblue" d="M206.834,-138.877C227.831,-151.475 259.569,-169.302 289,-181 298.071,-184.605 308.063,-187.761 317.601,-190.41"/>
<polygon fill="midnightblue" stroke="midnightblue" points="208.623,-135.869 198.26,-133.665 204.987,-141.85 208.623,-135.869"/>
</g>
<!-- Node5 -->
<g id="node5" class="node"><title>Node5</title>
<g id="a_node5"><a xlink:href="class_ogre_1_1_entity_factory.html" target="_top" xlink:title="Factory object for creating Entity instances. ">
<polygon fill="none" stroke="black" points="309.5,-152.5 309.5,-171.5 411.5,-171.5 411.5,-152.5 309.5,-152.5"/>
<text text-anchor="middle" x="360.5" y="-159.5" font-family="Helvetica,sans-Serif" font-size="10.00">Ogre::EntityFactory</text>
</a>
</g>
</g>
<!-- Node1&#45;&gt;Node5 -->
<g id="edge4" class="edge"><title>Node1&#45;&gt;Node5</title>
<path fill="none" stroke="midnightblue" d="M237.588,-135.753C262.545,-141.126 291.727,-147.409 315.282,-152.48"/>
<polygon fill="midnightblue" stroke="midnightblue" points="238.051,-132.272 227.538,-133.589 236.578,-139.115 238.051,-132.272"/>
</g>
<!-- Node6 -->
<g id="node6" class="node"><title>Node6</title>
<g id="a_node6"><a xlink:href="class_ogre_1_1_light_factory.html" target="_top" xlink:title="Factory object for creating Light instances. ">
<polygon fill="none" stroke="black" points="311.5,-114.5 311.5,-133.5 409.5,-133.5 409.5,-114.5 311.5,-114.5"/>
<text text-anchor="middle" x="360.5" y="-121.5" font-family="Helvetica,sans-Serif" font-size="10.00">Ogre::LightFactory</text>
</a>
</g>
</g>
<!-- Node1&#45;&gt;Node6 -->
<g id="edge5" class="edge"><title>Node1&#45;&gt;Node6</title>
<path fill="none" stroke="midnightblue" d="M263.175,-124C279.611,-124 296.423,-124 311.306,-124"/>
<polygon fill="midnightblue" stroke="midnightblue" points="263.011,-120.5 253.011,-124 263.011,-127.5 263.011,-120.5"/>
</g>
<!-- Node7 -->
<g id="node7" class="node"><title>Node7</title>
<g id="a_node7"><a xlink:href="class_ogre_1_1_manual_object_factory.html" target="_top" xlink:title="Factory object for creating ManualObject instances. ">
<polygon fill="none" stroke="black" points="292,-76.5 292,-95.5 429,-95.5 429,-76.5 292,-76.5"/>
<text text-anchor="middle" x="360.5" y="-83.5" font-family="Helvetica,sans-Serif" font-size="10.00">Ogre::ManualObjectFactory</text>
</a>
</g>
</g>
<!-- Node1&#45;&gt;Node7 -->
<g id="edge6" class="edge"><title>Node1&#45;&gt;Node7</title>
<path fill="none" stroke="midnightblue" d="M237.588,-112.247C262.545,-106.874 291.727,-100.591 315.282,-95.5201"/>
<polygon fill="midnightblue" stroke="midnightblue" points="236.578,-108.885 227.538,-114.411 238.051,-115.728 236.578,-108.885"/>
</g>
<!-- Node8 -->
<g id="node8" class="node"><title>Node8</title>
<g id="a_node8"><a xlink:href="class_ogre_1_1_particle_system_factory.html" target="_top" xlink:title="Factory object for creating ParticleSystem instances. ">
<polygon fill="none" stroke="black" points="289,-38.5 289,-57.5 432,-57.5 432,-38.5 289,-38.5"/>
<text text-anchor="middle" x="360.5" y="-45.5" font-family="Helvetica,sans-Serif" font-size="10.00">Ogre::ParticleSystemFactory</text>
</a>
</g>
</g>
<!-- Node1&#45;&gt;Node8 -->
<g id="edge7" class="edge"><title>Node1&#45;&gt;Node8</title>
<path fill="none" stroke="midnightblue" d="M206.834,-109.123C227.831,-96.5248 259.569,-78.6975 289,-67 298.071,-63.3948 308.063,-60.2395 317.601,-57.5895"/>
<polygon fill="midnightblue" stroke="midnightblue" points="204.987,-106.15 198.26,-114.335 208.623,-112.131 204.987,-106.15"/>
</g>
<!-- Node9 -->
<g id="node9" class="node"><title>Node9</title>
<g id="a_node9"><a xlink:href="class_ogre_1_1_ribbon_trail_factory.html" target="_top" xlink:title="Factory object for creating RibbonTrail instances. ">
<polygon fill="none" stroke="black" points="297.5,-0.5 297.5,-19.5 423.5,-19.5 423.5,-0.5 297.5,-0.5"/>
<text text-anchor="middle" x="360.5" y="-7.5" font-family="Helvetica,sans-Serif" font-size="10.00">Ogre::RibbonTrailFactory</text>
</a>
</g>
</g>
<!-- Node1&#45;&gt;Node9 -->
<g id="edge8" class="edge"><title>Node1&#45;&gt;Node9</title>
<path fill="none" stroke="midnightblue" d="M197.631,-106.629C216.57,-85.2457 251.605,-49.2828 289,-29 296.131,-25.132 304.103,-22.0105 312.05,-19.5039"/>
<polygon fill="midnightblue" stroke="midnightblue" points="194.883,-104.456 190.972,-114.302 200.17,-109.043 194.883,-104.456"/>
</g>
<!-- Node2 -->
<g id="node2" class="node"><title>Node2</title>
<g id="a_node2"><a xlink:href="class_ogre_1_1_allocated_object.html" target="_top" xlink:title="Superclass for all objects that wish to use custom memory allocators when their new / delete operator...">
<polygon fill="none" stroke="black" points="0,-114.5 0,-133.5 75,-133.5 75,-114.5 0,-114.5"/>
<text text-anchor="middle" x="37.5" y="-121.5" font-family="Helvetica,sans-Serif" font-size="10.00">MovableAlloc</text>
</a>
</g>
</g>
<!-- Node2&#45;&gt;Node1 -->
<g id="edge1" class="edge"><title>Node2&#45;&gt;Node1</title>
<path fill="none" stroke="midnightblue" d="M85.3076,-124C93.5287,-124 102.244,-124 110.936,-124"/>
<polygon fill="midnightblue" stroke="midnightblue" points="85.1973,-120.5 75.1973,-124 85.1973,-127.5 85.1973,-120.5"/>
</g>
</g>
</svg>
