<?xml version="1.0" encoding="UTF-8" standalone="no"?>
<!DOCTYPE svg PUBLIC "-//W3C//DTD SVG 1.1//EN"
 "http://www.w3.org/Graphics/SVG/1.1/DTD/svg11.dtd">
<!-- Generated by graphviz version 2.38.0 (20140413.2041)
 -->
<!-- Title: Ogre::HighLevelGpuProgram Pages: 1 -->
<svg width="721pt" height="192pt"
 viewBox="0.00 0.00 721.00 191.50" xmlns="http://www.w3.org/2000/svg" xmlns:xlink="http://www.w3.org/1999/xlink">
<g id="graph0" class="graph" transform="scale(1 1) rotate(0) translate(4 187.5)">
<title>Ogre::HighLevelGpuProgram</title>
<!-- Node1 -->
<g id="node1" class="node"><title>Node1</title>
<polygon fill="#bfbfbf" stroke="black" points="399,-88 399,-107 541,-107 541,-88 399,-88"/>
<text text-anchor="middle" x="470" y="-95" font-family="Helvetica,sans-Serif" font-size="10.00">Ogre::HighLevelGpuProgram</text>
</g>
<!-- Node6 -->
<g id="node6" class="node"><title>Node6</title>
<g id="a_node6"><a xlink:href="class_ogre_1_1_d3_d11_h_l_s_l_program.html" target="_top" xlink:title="Specialization of HighLevelGpuProgram to provide support for D3D11 High&#45;Level Shader Language (HLSL)...">
<polygon fill="none" stroke="black" points="577,-164 577,-183 713,-183 713,-164 577,-164"/>
<text text-anchor="middle" x="645" y="-171" font-family="Helvetica,sans-Serif" font-size="10.00">Ogre::D3D11HLSLProgram</text>
</a>
</g>
</g>
<!-- Node1&#45;&gt;Node6 -->
<g id="edge5" class="edge"><title>Node1&#45;&gt;Node6</title>
<path fill="none" stroke="midnightblue" d="M494.872,-112.281C515.893,-124.818 547.646,-142.61 577,-154.5 585.853,-158.086 595.622,-161.268 604.9,-163.954"/>
<polygon fill="midnightblue" stroke="midnightblue" points="496.657,-109.27 486.288,-107.097 493.038,-115.263 496.657,-109.27"/>
</g>
<!-- Node7 -->
<g id="node7" class="node"><title>Node7</title>
<g id="a_node7"><a xlink:href="class_ogre_1_1_d3_d9_h_l_s_l_program.html" target="_top" xlink:title="Specialisation of HighLevelGpuProgram to provide support for D3D9 High&#45;Level Shader Language (HLSL)...">
<polygon fill="none" stroke="black" points="579.5,-126 579.5,-145 710.5,-145 710.5,-126 579.5,-126"/>
<text text-anchor="middle" x="645" y="-133" font-family="Helvetica,sans-Serif" font-size="10.00">Ogre::D3D9HLSLProgram</text>
</a>
</g>
</g>
<!-- Node1&#45;&gt;Node7 -->
<g id="edge6" class="edge"><title>Node1&#45;&gt;Node7</title>
<path fill="none" stroke="midnightblue" d="M524.505,-109.253C548.967,-114.626 577.571,-120.909 600.659,-125.98"/>
<polygon fill="midnightblue" stroke="midnightblue" points="525.173,-105.816 514.655,-107.089 523.671,-112.653 525.173,-105.816"/>
</g>
<!-- Node8 -->
<g id="node8" class="node"><title>Node8</title>
<g id="a_node8"><a xlink:href="class_ogre_1_1_g_l_s_l_1_1_g_l_s_l_program.html" target="_top" xlink:title="Specialisation of HighLevelGpuProgram to provide support for OpenGL Shader Language (GLSL)...">
<polygon fill="none" stroke="black" points="577,-88 577,-107 713,-107 713,-88 577,-88"/>
<text text-anchor="middle" x="645" y="-95" font-family="Helvetica,sans-Serif" font-size="10.00">Ogre::GLSL::GLSLProgram</text>
</a>
</g>
</g>
<!-- Node1&#45;&gt;Node8 -->
<g id="edge7" class="edge"><title>Node1&#45;&gt;Node8</title>
<path fill="none" stroke="midnightblue" d="M551.587,-97.5C560.014,-97.5 568.517,-97.5 576.773,-97.5"/>
<polygon fill="midnightblue" stroke="midnightblue" points="551.366,-94.0001 541.366,-97.5 551.366,-101 551.366,-94.0001"/>
</g>
<!-- Node9 -->
<g id="node9" class="node"><title>Node9</title>
<g id="a_node9"><a xlink:href="class_ogre_1_1_g_l_s_l_shader.html" target="_top" xlink:title="Specialisation of HighLevelGpuProgram to encapsulate shader objects obtained from compiled shaders wr...">
<polygon fill="none" stroke="black" points="595.5,-50 595.5,-69 694.5,-69 694.5,-50 595.5,-50"/>
<text text-anchor="middle" x="645" y="-57" font-family="Helvetica,sans-Serif" font-size="10.00">Ogre::GLSLShader</text>
</a>
</g>
</g>
<!-- Node1&#45;&gt;Node9 -->
<g id="edge8" class="edge"><title>Node1&#45;&gt;Node9</title>
<path fill="none" stroke="midnightblue" d="M524.505,-85.7474C548.967,-80.3742 577.571,-74.0914 600.659,-69.0201"/>
<polygon fill="midnightblue" stroke="midnightblue" points="523.671,-82.347 514.655,-87.911 525.173,-89.184 523.671,-82.347"/>
</g>
<!-- Node10 -->
<g id="node10" class="node"><title>Node10</title>
<g id="a_node10"><a xlink:href="class_ogre_1_1_unified_high_level_gpu_program.html" target="_top" xlink:title="Specialisation of HighLevelGpuProgram which just delegates its implementation to one other high level...">
<polygon fill="none" stroke="black" points="577,-0.5 577,-30.5 713,-30.5 713,-0.5 577,-0.5"/>
<text text-anchor="start" x="585" y="-18.5" font-family="Helvetica,sans-Serif" font-size="10.00">Ogre::UnifiedHighLevelGpu</text>
<text text-anchor="middle" x="645" y="-7.5" font-family="Helvetica,sans-Serif" font-size="10.00">Program</text>
</a>
</g>
</g>
<!-- Node1&#45;&gt;Node10 -->
<g id="edge9" class="edge"><title>Node1&#45;&gt;Node10</title>
<path fill="none" stroke="midnightblue" d="M495.859,-82.8841C517.037,-70.7376 548.482,-53.4155 577,-40.5 584.69,-37.017 593.023,-33.6205 601.113,-30.5102"/>
<polygon fill="midnightblue" stroke="midnightblue" points="494.079,-79.87 487.174,-87.9055 497.583,-85.93 494.079,-79.87"/>
</g>
<!-- Node2 -->
<g id="node2" class="node"><title>Node2</title>
<g id="a_node2"><a xlink:href="class_ogre_1_1_gpu_program.html" target="_top" xlink:title="Defines a program which runs on the GPU such as a vertex or fragment program. ">
<polygon fill="none" stroke="black" points="265,-88 265,-107 363,-107 363,-88 265,-88"/>
<text text-anchor="middle" x="314" y="-95" font-family="Helvetica,sans-Serif" font-size="10.00">Ogre::GpuProgram</text>
</a>
</g>
</g>
<!-- Node2&#45;&gt;Node1 -->
<g id="edge1" class="edge"><title>Node2&#45;&gt;Node1</title>
<path fill="none" stroke="midnightblue" d="M373.307,-97.5C381.659,-97.5 390.322,-97.5 398.872,-97.5"/>
<polygon fill="midnightblue" stroke="midnightblue" points="373.304,-94.0001 363.304,-97.5 373.304,-101 373.304,-94.0001"/>
</g>
<!-- Node3 -->
<g id="node3" class="node"><title>Node3</title>
<g id="a_node3"><a xlink:href="class_ogre_1_1_resource.html" target="_top" xlink:title="Abstract class representing a loadable resource (e.g. ">
<polygon fill="none" stroke="black" points="143,-88 143,-107 229,-107 229,-88 143,-88"/>
<text text-anchor="middle" x="186" y="-95" font-family="Helvetica,sans-Serif" font-size="10.00">Ogre::Resource</text>
</a>
</g>
</g>
<!-- Node3&#45;&gt;Node2 -->
<g id="edge2" class="edge"><title>Node3&#45;&gt;Node2</title>
<path fill="none" stroke="midnightblue" d="M239.441,-97.5C247.889,-97.5 256.599,-97.5 264.938,-97.5"/>
<polygon fill="midnightblue" stroke="midnightblue" points="239.307,-94.0001 229.307,-97.5 239.307,-101 239.307,-94.0001"/>
</g>
<!-- Node4 -->
<g id="node4" class="node"><title>Node4</title>
<g id="a_node4"><a xlink:href="class_ogre_1_1_string_interface.html" target="_top" xlink:title="Class defining the common interface which classes can use to present a reflection&#45;style, self&#45;defining parameter set to callers. ">
<polygon fill="none" stroke="black" points="0,-107 0,-126 107,-126 107,-107 0,-107"/>
<text text-anchor="middle" x="53.5" y="-114" font-family="Helvetica,sans-Serif" font-size="10.00">Ogre::StringInterface</text>
</a>
</g>
</g>
<!-- Node4&#45;&gt;Node3 -->
<g id="edge3" class="edge"><title>Node4&#45;&gt;Node3</title>
<path fill="none" stroke="midnightblue" d="M117.331,-107.352C126.011,-106.088 134.749,-104.816 142.929,-103.625"/>
<polygon fill="midnightblue" stroke="midnightblue" points="116.595,-103.922 107.203,-108.827 117.603,-110.849 116.595,-103.922"/>
</g>
<!-- Node5 -->
<g id="node5" class="node"><title>Node5</title>
<g id="a_node5"><a xlink:href="class_ogre_1_1_allocated_object.html" target="_top" xlink:title="Superclass for all objects that wish to use custom memory allocators when their new / delete operator...">
<polygon fill="none" stroke="black" points="13.5,-69 13.5,-88 93.5,-88 93.5,-69 13.5,-69"/>
<text text-anchor="middle" x="53.5" y="-76" font-family="Helvetica,sans-Serif" font-size="10.00">ResourceAlloc</text>
</a>
</g>
</g>
<!-- Node5&#45;&gt;Node3 -->
<g id="edge4" class="edge"><title>Node5&#45;&gt;Node3</title>
<path fill="none" stroke="midnightblue" d="M103.713,-85.6651C116.542,-87.5329 130.253,-89.5291 142.69,-91.3399"/>
<polygon fill="midnightblue" stroke="midnightblue" points="104.054,-82.178 93.6543,-84.2006 103.046,-89.1049 104.054,-82.178"/>
</g>
</g>
</svg>
