<?xml version="1.0" encoding="UTF-8" standalone="no"?>
<!DOCTYPE svg PUBLIC "-//W3C//DTD SVG 1.1//EN"
 "http://www.w3.org/Graphics/SVG/1.1/DTD/svg11.dtd">
<!-- Generated by graphviz version 2.38.0 (20140413.2041)
 -->
<!-- Title: Ogre::Entity::EntityShadowRenderable Pages: 1 -->
<svg width="214pt" height="151pt"
 viewBox="0.00 0.00 214.00 151.00" xmlns="http://www.w3.org/2000/svg" xmlns:xlink="http://www.w3.org/1999/xlink">
<g id="graph0" class="graph" transform="scale(1 1) rotate(0) translate(4 147)">
<title>Ogre::Entity::EntityShadowRenderable</title>
<!-- Node1 -->
<g id="node1" class="node"><title>Node1</title>
<polygon fill="#bfbfbf" stroke="black" points="34.5,-0.5 34.5,-30.5 170.5,-30.5 170.5,-0.5 34.5,-0.5"/>
<text text-anchor="start" x="42.5" y="-18.5" font-family="Helvetica,sans-Serif" font-size="10.00">Ogre::Entity::EntityShadow</text>
<text text-anchor="middle" x="102.5" y="-7.5" font-family="Helvetica,sans-Serif" font-size="10.00">Renderable</text>
</g>
<!-- Node2 -->
<g id="node2" class="node"><title>Node2</title>
<g id="a_node2"><a xlink:href="class_ogre_1_1_shadow_renderable.html" target="_top" xlink:title="Class which represents the renderable aspects of a set of shadow volume faces. ">
<polygon fill="none" stroke="black" points="38.5,-67.5 38.5,-86.5 166.5,-86.5 166.5,-67.5 38.5,-67.5"/>
<text text-anchor="middle" x="102.5" y="-74.5" font-family="Helvetica,sans-Serif" font-size="10.00">Ogre::ShadowRenderable</text>
</a>
</g>
</g>
<!-- Node2&#45;&gt;Node1 -->
<g id="edge1" class="edge"><title>Node2&#45;&gt;Node1</title>
<path fill="none" stroke="midnightblue" d="M102.5,-57.2349C102.5,-48.5864 102.5,-38.4969 102.5,-30.523"/>
<polygon fill="midnightblue" stroke="midnightblue" points="99.0001,-57.4751 102.5,-67.4751 106,-57.4751 99.0001,-57.4751"/>
</g>
<!-- Node3 -->
<g id="node3" class="node"><title>Node3</title>
<g id="a_node3"><a xlink:href="class_ogre_1_1_renderable.html" target="_top" xlink:title="Abstract class defining the interface all renderable objects must implement. ">
<polygon fill="none" stroke="black" points="0,-123.5 0,-142.5 93,-142.5 93,-123.5 0,-123.5"/>
<text text-anchor="middle" x="46.5" y="-130.5" font-family="Helvetica,sans-Serif" font-size="10.00">Ogre::Renderable</text>
</a>
</g>
</g>
<!-- Node3&#45;&gt;Node2 -->
<g id="edge2" class="edge"><title>Node3&#45;&gt;Node2</title>
<path fill="none" stroke="midnightblue" d="M62.8299,-116.253C72.765,-106.673 85.0875,-94.7906 93.3389,-86.8339"/>
<polygon fill="midnightblue" stroke="midnightblue" points="60.2664,-113.863 55.4974,-123.324 65.1253,-118.902 60.2664,-113.863"/>
</g>
<!-- Node4 -->
<g id="node4" class="node"><title>Node4</title>
<g id="a_node4"><a xlink:href="class_ogre_1_1_allocated_object.html" target="_top" xlink:title="Superclass for all objects that wish to use custom memory allocators when their new / delete operator...">
<polygon fill="none" stroke="black" points="111,-123.5 111,-142.5 206,-142.5 206,-123.5 111,-123.5"/>
<text text-anchor="middle" x="158.5" y="-130.5" font-family="Helvetica,sans-Serif" font-size="10.00">ShadowDataAlloc</text>
</a>
</g>
</g>
<!-- Node4&#45;&gt;Node2 -->
<g id="edge3" class="edge"><title>Node4&#45;&gt;Node2</title>
<path fill="none" stroke="midnightblue" d="M142.17,-116.253C132.235,-106.673 119.912,-94.7906 111.661,-86.8339"/>
<polygon fill="midnightblue" stroke="midnightblue" points="139.875,-118.902 149.503,-123.324 144.734,-113.863 139.875,-118.902"/>
</g>
</g>
</svg>
