<?xml version="1.0" encoding="UTF-8" standalone="no"?>
<!DOCTYPE svg PUBLIC "-//W3C//DTD SVG 1.1//EN"
 "http://www.w3.org/Graphics/SVG/1.1/DTD/svg11.dtd">
<!-- Generated by graphviz version 2.38.0 (20140413.2041)
 -->
<!-- Title: Ogre::MovableObject Pages: 1 -->
<svg width="810pt" height="557pt"
 viewBox="0.00 0.00 810.00 556.50" xmlns="http://www.w3.org/2000/svg" xmlns:xlink="http://www.w3.org/1999/xlink">
<g id="graph0" class="graph" transform="scale(1 1) rotate(0) translate(4 552.5)">
<title>Ogre::MovableObject</title>
<!-- Node1 -->
<g id="node1" class="node"><title>Node1</title>
<polygon fill="#bfbfbf" stroke="black" points="149,-273 149,-292 258,-292 258,-273 149,-273"/>
<text text-anchor="middle" x="203.5" y="-280" font-family="Helvetica,sans-Serif" font-size="10.00">Ogre::MovableObject</text>
</g>
<!-- Node5 -->
<g id="node5" class="node"><title>Node5</title>
<g id="a_node5"><a xlink:href="class_ogre_1_1_billboard_chain.html" target="_top" xlink:title="Allows the rendering of a chain of connected billboards. ">
<polygon fill="none" stroke="black" points="310.5,-529 310.5,-548 417.5,-548 417.5,-529 310.5,-529"/>
<text text-anchor="middle" x="364" y="-536" font-family="Helvetica,sans-Serif" font-size="10.00">Ogre::BillboardChain</text>
</a>
</g>
</g>
<!-- Node1&#45;&gt;Node5 -->
<g id="edge4" class="edge"><title>Node1&#45;&gt;Node5</title>
<path fill="none" stroke="midnightblue" d="M206.074,-302.392C210.76,-347.84 228.68,-459.951 294,-519.5 298.775,-523.853 304.457,-527.221 310.48,-529.826"/>
<polygon fill="midnightblue" stroke="midnightblue" points="209.551,-301.982 205.147,-292.346 202.581,-302.625 209.551,-301.982"/>
</g>
<!-- Node7 -->
<g id="node7" class="node"><title>Node7</title>
<g id="a_node7"><a xlink:href="class_ogre_1_1_billboard_set.html" target="_top" xlink:title="A collection of billboards (faces which are always facing the given direction) with the same (default...">
<polygon fill="none" stroke="black" points="316,-491 316,-510 412,-510 412,-491 316,-491"/>
<text text-anchor="middle" x="364" y="-498" font-family="Helvetica,sans-Serif" font-size="10.00">Ogre::BillboardSet</text>
</a>
</g>
</g>
<!-- Node1&#45;&gt;Node7 -->
<g id="edge6" class="edge"><title>Node1&#45;&gt;Node7</title>
<path fill="none" stroke="midnightblue" d="M207.641,-302.146C215.083,-342.109 237.587,-433.165 294,-481.5 300.227,-486.836 307.83,-490.683 315.685,-493.455"/>
<polygon fill="midnightblue" stroke="midnightblue" points="211.056,-301.352 205.892,-292.1 204.159,-302.552 211.056,-301.352"/>
</g>
<!-- Node8 -->
<g id="node8" class="node"><title>Node8</title>
<g id="a_node8"><a xlink:href="class_ogre_1_1_entity.html" target="_top" xlink:title="Defines an instance of a discrete, movable object based on a Mesh. ">
<polygon fill="none" stroke="black" points="329.5,-453 329.5,-472 398.5,-472 398.5,-453 329.5,-453"/>
<text text-anchor="middle" x="364" y="-460" font-family="Helvetica,sans-Serif" font-size="10.00">Ogre::Entity</text>
</a>
</g>
</g>
<!-- Node1&#45;&gt;Node8 -->
<g id="edge7" class="edge"><title>Node1&#45;&gt;Node8</title>
<path fill="none" stroke="midnightblue" d="M209.836,-301.872C220.206,-335.832 246.353,-406.056 294,-443.5 304.062,-451.408 317.197,-456.028 329.304,-458.726"/>
<polygon fill="midnightblue" stroke="midnightblue" points="213.177,-300.827 207.016,-292.207 206.457,-302.787 213.177,-300.827"/>
</g>
<!-- Node9 -->
<g id="node9" class="node"><title>Node9</title>
<g id="a_node9"><a xlink:href="class_ogre_1_1_frustum.html" target="_top" xlink:title="A frustum represents a pyramid, capped at the near and far end which is used to represent either a vi...">
<polygon fill="none" stroke="black" points="324,-415 324,-434 404,-434 404,-415 324,-415"/>
<text text-anchor="middle" x="364" y="-422" font-family="Helvetica,sans-Serif" font-size="10.00">Ogre::Frustum</text>
</a>
</g>
</g>
<!-- Node1&#45;&gt;Node9 -->
<g id="edge8" class="edge"><title>Node1&#45;&gt;Node9</title>
<path fill="none" stroke="midnightblue" d="M213.144,-301.432C226.54,-328.63 254.907,-378.454 294,-405.5 302.787,-411.58 313.458,-415.719 323.754,-418.535"/>
<polygon fill="midnightblue" stroke="midnightblue" points="216.211,-299.734 208.751,-292.211 209.892,-302.744 216.211,-299.734"/>
</g>
<!-- Node11 -->
<g id="node11" class="node"><title>Node11</title>
<g id="a_node11"><a xlink:href="class_ogre_1_1_instance_batch.html" target="_top" xlink:title="InstanceBatch forms part of the new Instancing system This is an abstract class that must be derived ...">
<polygon fill="none" stroke="black" points="310.5,-377 310.5,-396 417.5,-396 417.5,-377 310.5,-377"/>
<text text-anchor="middle" x="364" y="-384" font-family="Helvetica,sans-Serif" font-size="10.00">Ogre::InstanceBatch</text>
</a>
</g>
</g>
<!-- Node1&#45;&gt;Node11 -->
<g id="edge10" class="edge"><title>Node1&#45;&gt;Node11</title>
<path fill="none" stroke="midnightblue" d="M218.313,-300.011C234.46,-319.32 262.956,-349.966 294,-367.5 300.816,-371.35 308.456,-374.455 316.101,-376.95"/>
<polygon fill="midnightblue" stroke="midnightblue" points="221.023,-297.796 211.987,-292.264 215.6,-302.223 221.023,-297.796"/>
</g>
<!-- Node17 -->
<g id="node17" class="node"><title>Node17</title>
<g id="a_node17"><a xlink:href="class_ogre_1_1_instanced_entity.html" target="_top" xlink:title="Ogre::InstancedEntity">
<polygon fill="none" stroke="black" points="308,-339 308,-358 420,-358 420,-339 308,-339"/>
<text text-anchor="middle" x="364" y="-346" font-family="Helvetica,sans-Serif" font-size="10.00">Ogre::InstancedEntity</text>
</a>
</g>
</g>
<!-- Node1&#45;&gt;Node17 -->
<g id="edge16" class="edge"><title>Node1&#45;&gt;Node17</title>
<path fill="none" stroke="midnightblue" d="M229.917,-297.232C247.504,-307.007 271.673,-319.623 294,-328.5 303.967,-332.463 315.025,-336.02 325.315,-338.998"/>
<polygon fill="midnightblue" stroke="midnightblue" points="231.306,-293.998 220.876,-292.136 227.869,-300.096 231.306,-293.998"/>
</g>
<!-- Node18 -->
<g id="node18" class="node"><title>Node18</title>
<g id="a_node18"><a xlink:href="class_ogre_1_1_instanced_geometry_1_1_batch_instance.html" target="_top" xlink:title="The details of a topological BatchInstance which is the highest level of partitioning for this class...">
<polygon fill="none" stroke="black" points="299.5,-289.5 299.5,-319.5 428.5,-319.5 428.5,-289.5 299.5,-289.5"/>
<text text-anchor="start" x="307.5" y="-307.5" font-family="Helvetica,sans-Serif" font-size="10.00">Ogre::InstancedGeometry</text>
<text text-anchor="middle" x="364" y="-296.5" font-family="Helvetica,sans-Serif" font-size="10.00">::BatchInstance</text>
</a>
</g>
</g>
<!-- Node1&#45;&gt;Node18 -->
<g id="edge17" class="edge"><title>Node1&#45;&gt;Node18</title>
<path fill="none" stroke="midnightblue" d="M268.235,-291.346C278.455,-292.765 289.033,-294.233 299.253,-295.652"/>
<polygon fill="midnightblue" stroke="midnightblue" points="268.547,-287.856 258.161,-289.948 267.585,-294.79 268.547,-287.856"/>
</g>
<!-- Node19 -->
<g id="node19" class="node"><title>Node19</title>
<g id="a_node19"><a xlink:href="class_ogre_1_1_light.html" target="_top" xlink:title="Representation of a dynamic light source in the scene. ">
<polygon fill="none" stroke="black" points="331.5,-251 331.5,-270 396.5,-270 396.5,-251 331.5,-251"/>
<text text-anchor="middle" x="364" y="-258" font-family="Helvetica,sans-Serif" font-size="10.00">Ogre::Light</text>
</a>
</g>
</g>
<!-- Node1&#45;&gt;Node19 -->
<g id="edge18" class="edge"><title>Node1&#45;&gt;Node19</title>
<path fill="none" stroke="midnightblue" d="M268.28,-273.647C289.889,-270.648 313.094,-267.427 331.128,-264.924"/>
<polygon fill="midnightblue" stroke="midnightblue" points="267.585,-270.21 258.161,-275.052 268.547,-277.144 267.585,-270.21"/>
</g>
<!-- Node20 -->
<g id="node20" class="node"><title>Node20</title>
<g id="a_node20"><a xlink:href="class_ogre_1_1_manual_object.html" target="_top" xlink:title="Class providing a much simplified interface to generating manual objects with custom geometry...">
<polygon fill="none" stroke="black" points="312,-213 312,-232 416,-232 416,-213 312,-213"/>
<text text-anchor="middle" x="364" y="-220" font-family="Helvetica,sans-Serif" font-size="10.00">Ogre::ManualObject</text>
</a>
</g>
</g>
<!-- Node1&#45;&gt;Node20 -->
<g id="edge19" class="edge"><title>Node1&#45;&gt;Node20</title>
<path fill="none" stroke="midnightblue" d="M232.046,-268.483C249.504,-259.953 272.726,-249.245 294,-241.5 303.574,-238.015 314.094,-234.813 323.972,-232.07"/>
<polygon fill="midnightblue" stroke="midnightblue" points="230.4,-265.393 222.99,-272.966 233.505,-271.667 230.4,-265.393"/>
</g>
<!-- Node21 -->
<g id="node21" class="node"><title>Node21</title>
<g id="a_node21"><a xlink:href="class_ogre_1_1_movable_plane.html" target="_top" xlink:title="Definition of a Plane that may be attached to a node, and the derived details of it retrieved simply...">
<polygon fill="none" stroke="black" points="311.5,-175 311.5,-194 416.5,-194 416.5,-175 311.5,-175"/>
<text text-anchor="middle" x="364" y="-182" font-family="Helvetica,sans-Serif" font-size="10.00">Ogre::MovablePlane</text>
</a>
</g>
</g>
<!-- Node1&#45;&gt;Node21 -->
<g id="edge20" class="edge"><title>Node1&#45;&gt;Node21</title>
<path fill="none" stroke="midnightblue" d="M219.317,-265.458C235.817,-247.512 264.124,-219.664 294,-203.5 301.103,-199.657 309.048,-196.54 316.948,-194.029"/>
<polygon fill="midnightblue" stroke="midnightblue" points="216.684,-263.152 212.603,-272.929 221.89,-267.831 216.684,-263.152"/>
</g>
<!-- Node22 -->
<g id="node22" class="node"><title>Node22</title>
<g id="a_node22"><a xlink:href="class_ogre_1_1_particle_system.html" target="_top" xlink:title="Class defining particle system based special effects. ">
<polygon fill="none" stroke="black" points="309,-137 309,-156 419,-156 419,-137 309,-137"/>
<text text-anchor="middle" x="364" y="-144" font-family="Helvetica,sans-Serif" font-size="10.00">Ogre::ParticleSystem</text>
</a>
</g>
</g>
<!-- Node1&#45;&gt;Node22 -->
<g id="edge21" class="edge"><title>Node1&#45;&gt;Node22</title>
<path fill="none" stroke="midnightblue" d="M213.775,-263.765C227.625,-237.745 256.187,-190.996 294,-165.5 299.769,-161.61 306.316,-158.513 313.024,-156.048"/>
<polygon fill="midnightblue" stroke="midnightblue" points="210.52,-262.441 209.049,-272.934 216.742,-265.648 210.52,-262.441"/>
</g>
<!-- Node23 -->
<g id="node23" class="node"><title>Node23</title>
<g id="a_node23"><a xlink:href="class_ogre_1_1_simple_renderable.html" target="_top" xlink:title="Simple implementation of MovableObject and Renderable for single&#45;part custom objects. ">
<polygon fill="none" stroke="black" points="302.5,-99 302.5,-118 425.5,-118 425.5,-99 302.5,-99"/>
<text text-anchor="middle" x="364" y="-106" font-family="Helvetica,sans-Serif" font-size="10.00">Ogre::SimpleRenderable</text>
</a>
</g>
</g>
<!-- Node1&#45;&gt;Node23 -->
<g id="edge22" class="edge"><title>Node1&#45;&gt;Node23</title>
<path fill="none" stroke="midnightblue" d="M210.345,-262.943C221.24,-229.908 247.831,-163.178 294,-127.5 299.014,-123.625 304.769,-120.54 310.77,-118.084"/>
<polygon fill="midnightblue" stroke="midnightblue" points="206.918,-262.171 207.246,-272.76 213.594,-264.278 206.918,-262.171"/>
</g>
<!-- Node28 -->
<g id="node28" class="node"><title>Node28</title>
<g id="a_node28"><a xlink:href="class_ogre_1_1_static_geometry_1_1_region.html" target="_top" xlink:title="The details of a topological region which is the highest level of partitioning for this class...">
<polygon fill="none" stroke="black" points="308,-49.5 308,-79.5 420,-79.5 420,-49.5 308,-49.5"/>
<text text-anchor="start" x="316" y="-67.5" font-family="Helvetica,sans-Serif" font-size="10.00">Ogre::StaticGeometry</text>
<text text-anchor="middle" x="364" y="-56.5" font-family="Helvetica,sans-Serif" font-size="10.00">::Region</text>
</a>
</g>
</g>
<!-- Node1&#45;&gt;Node28 -->
<g id="edge27" class="edge"><title>Node1&#45;&gt;Node28</title>
<path fill="none" stroke="midnightblue" d="M208.311,-263.005C216.829,-224.477 240.977,-138.118 294,-89.5 298.226,-85.6251 303.098,-82.34 308.259,-79.557"/>
<polygon fill="midnightblue" stroke="midnightblue" points="204.856,-262.428 206.232,-272.933 211.707,-263.863 204.856,-262.428"/>
</g>
<!-- Node29 -->
<g id="node29" class="node"><title>Node29</title>
<g id="a_node29"><a xlink:href="class_ogre_1_1_terrain_quad_tree_node_1_1_movable.html" target="_top" xlink:title="MovableObject implementation to provide the hook to the scene. ">
<polygon fill="none" stroke="black" points="294,-0.5 294,-30.5 434,-30.5 434,-0.5 294,-0.5"/>
<text text-anchor="start" x="302" y="-18.5" font-family="Helvetica,sans-Serif" font-size="10.00">Ogre::TerrainQuadTreeNode</text>
<text text-anchor="middle" x="364" y="-7.5" font-family="Helvetica,sans-Serif" font-size="10.00">::Movable</text>
</a>
</g>
</g>
<!-- Node1&#45;&gt;Node29 -->
<g id="edge28" class="edge"><title>Node1&#45;&gt;Node29</title>
<path fill="none" stroke="midnightblue" d="M206.192,-262.417C211.127,-216.473 229.534,-102.805 294,-39.5 297.529,-36.0343 301.585,-33.0675 305.924,-30.5281"/>
<polygon fill="midnightblue" stroke="midnightblue" points="202.69,-262.275 205.208,-272.566 209.657,-262.951 202.69,-262.275"/>
</g>
<!-- Node2 -->
<g id="node2" class="node"><title>Node2</title>
<g id="a_node2"><a xlink:href="class_ogre_1_1_shadow_caster.html" target="_top" xlink:title="This class defines the interface that must be implemented by shadow casters. ">
<polygon fill="none" stroke="black" points="2.5,-311 2.5,-330 110.5,-330 110.5,-311 2.5,-311"/>
<text text-anchor="middle" x="56.5" y="-318" font-family="Helvetica,sans-Serif" font-size="10.00">Ogre::ShadowCaster</text>
</a>
</g>
</g>
<!-- Node2&#45;&gt;Node1 -->
<g id="edge1" class="edge"><title>Node2&#45;&gt;Node1</title>
<path fill="none" stroke="midnightblue" d="M103.993,-308.316C124.124,-303.04 147.338,-296.956 166.173,-292.02"/>
<polygon fill="midnightblue" stroke="midnightblue" points="102.876,-304.99 94.0896,-310.911 104.65,-311.762 102.876,-304.99"/>
</g>
<!-- Node3 -->
<g id="node3" class="node"><title>Node3</title>
<g id="a_node3"><a xlink:href="class_ogre_1_1_animable_object.html" target="_top" xlink:title="Defines an interface to classes which have one or more AnimableValue instances to expose...">
<polygon fill="none" stroke="black" points="0,-273 0,-292 113,-292 113,-273 0,-273"/>
<text text-anchor="middle" x="56.5" y="-280" font-family="Helvetica,sans-Serif" font-size="10.00">Ogre::AnimableObject</text>
</a>
</g>
</g>
<!-- Node3&#45;&gt;Node1 -->
<g id="edge2" class="edge"><title>Node3&#45;&gt;Node1</title>
<path fill="none" stroke="midnightblue" d="M123.381,-282.5C131.846,-282.5 140.433,-282.5 148.675,-282.5"/>
<polygon fill="midnightblue" stroke="midnightblue" points="123.146,-279 113.146,-282.5 123.146,-286 123.146,-279"/>
</g>
<!-- Node4 -->
<g id="node4" class="node"><title>Node4</title>
<g id="a_node4"><a xlink:href="class_ogre_1_1_allocated_object.html" target="_top" xlink:title="Superclass for all objects that wish to use custom memory allocators when their new / delete operator...">
<polygon fill="none" stroke="black" points="19,-235 19,-254 94,-254 94,-235 19,-235"/>
<text text-anchor="middle" x="56.5" y="-242" font-family="Helvetica,sans-Serif" font-size="10.00">MovableAlloc</text>
</a>
</g>
</g>
<!-- Node4&#45;&gt;Node1 -->
<g id="edge3" class="edge"><title>Node4&#45;&gt;Node1</title>
<path fill="none" stroke="midnightblue" d="M103.993,-256.684C124.124,-261.96 147.338,-268.044 166.173,-272.98"/>
<polygon fill="midnightblue" stroke="midnightblue" points="104.65,-253.238 94.0896,-254.089 102.876,-260.01 104.65,-253.238"/>
</g>
<!-- Node6 -->
<g id="node6" class="node"><title>Node6</title>
<g id="a_node6"><a xlink:href="class_ogre_1_1_ribbon_trail.html" target="_top" xlink:title="Subclass of BillboardChain which automatically leaves a trail behind one or more Node instances...">
<polygon fill="none" stroke="black" points="497.5,-529 497.5,-548 590.5,-548 590.5,-529 497.5,-529"/>
<text text-anchor="middle" x="544" y="-536" font-family="Helvetica,sans-Serif" font-size="10.00">Ogre::RibbonTrail</text>
</a>
</g>
</g>
<!-- Node5&#45;&gt;Node6 -->
<g id="edge5" class="edge"><title>Node5&#45;&gt;Node6</title>
<path fill="none" stroke="midnightblue" d="M428.19,-538.5C450.966,-538.5 476.209,-538.5 497.213,-538.5"/>
<polygon fill="midnightblue" stroke="midnightblue" points="427.924,-535 417.924,-538.5 427.924,-542 427.924,-535"/>
</g>
<!-- Node10 -->
<g id="node10" class="node"><title>Node10</title>
<g id="a_node10"><a xlink:href="class_ogre_1_1_camera.html" target="_top" xlink:title="A viewpoint from which the scene will be rendered. ">
<polygon fill="none" stroke="black" points="505,-434 505,-453 583,-453 583,-434 505,-434"/>
<text text-anchor="middle" x="544" y="-441" font-family="Helvetica,sans-Serif" font-size="10.00">Ogre::Camera</text>
</a>
</g>
</g>
<!-- Node9&#45;&gt;Node10 -->
<g id="edge9" class="edge"><title>Node9&#45;&gt;Node10</title>
<path fill="none" stroke="midnightblue" d="M414.273,-429.76C442.916,-432.817 478.466,-436.612 504.945,-439.438"/>
<polygon fill="midnightblue" stroke="midnightblue" points="414.378,-426.251 404.063,-428.67 413.635,-433.211 414.378,-426.251"/>
</g>
<!-- Node12 -->
<g id="node12" class="node"><title>Node12</title>
<g id="a_node12"><a xlink:href="class_ogre_1_1_base_instance_batch_v_t_f.html" target="_top" xlink:title="Instancing implementation using vertex texture through Vertex Texture Fetch (VTF) This implementation...">
<polygon fill="none" stroke="black" points="470,-396 470,-415 618,-415 618,-396 470,-396"/>
<text text-anchor="middle" x="544" y="-403" font-family="Helvetica,sans-Serif" font-size="10.00">Ogre::BaseInstanceBatchVTF</text>
</a>
</g>
</g>
<!-- Node11&#45;&gt;Node12 -->
<g id="edge11" class="edge"><title>Node11&#45;&gt;Node12</title>
<path fill="none" stroke="midnightblue" d="M428.07,-393.232C441.592,-394.676 455.989,-396.212 469.855,-397.692"/>
<polygon fill="midnightblue" stroke="midnightblue" points="428.239,-389.73 417.924,-392.149 427.496,-396.691 428.239,-389.73"/>
</g>
<!-- Node15 -->
<g id="node15" class="node"><title>Node15</title>
<g id="a_node15"><a xlink:href="class_ogre_1_1_instance_batch_h_w.html" target="_top" xlink:title="This is technique requires true instancing hardware support. ">
<polygon fill="none" stroke="black" points="482,-358 482,-377 606,-377 606,-358 482,-358"/>
<text text-anchor="middle" x="544" y="-365" font-family="Helvetica,sans-Serif" font-size="10.00">Ogre::InstanceBatchHW</text>
</a>
</g>
</g>
<!-- Node11&#45;&gt;Node15 -->
<g id="edge14" class="edge"><title>Node11&#45;&gt;Node15</title>
<path fill="none" stroke="midnightblue" d="M428.025,-379.773C445.508,-377.906 464.457,-375.884 481.832,-374.029"/>
<polygon fill="midnightblue" stroke="midnightblue" points="427.496,-376.309 417.924,-380.851 428.239,-383.27 427.496,-376.309"/>
</g>
<!-- Node16 -->
<g id="node16" class="node"><title>Node16</title>
<g id="a_node16"><a xlink:href="class_ogre_1_1_instance_batch_shader.html" target="_top" xlink:title="This is the same technique the old &quot;InstancedGeometry&quot; implementation used (with improvements). ">
<polygon fill="none" stroke="black" points="475.5,-320 475.5,-339 612.5,-339 612.5,-320 475.5,-320"/>
<text text-anchor="middle" x="544" y="-327" font-family="Helvetica,sans-Serif" font-size="10.00">Ogre::InstanceBatchShader</text>
</a>
</g>
</g>
<!-- Node11&#45;&gt;Node16 -->
<g id="edge15" class="edge"><title>Node11&#45;&gt;Node16</title>
<path fill="none" stroke="midnightblue" d="M415.23,-374.048C421.618,-372.063 428.011,-369.872 434,-367.5 450.82,-360.837 453.133,-355.044 470,-348.5 479.401,-344.852 489.751,-341.68 499.628,-339.027"/>
<polygon fill="midnightblue" stroke="midnightblue" points="413.854,-370.806 405.255,-376.996 415.837,-377.519 413.854,-370.806"/>
</g>
<!-- Node13 -->
<g id="node13" class="node"><title>Node13</title>
<g id="a_node13"><a xlink:href="class_ogre_1_1_instance_batch_h_w___v_t_f.html" target="_top" xlink:title="Instancing implementation using vertex texture through Vertex Texture Fetch (VTF) and hardware instan...">
<polygon fill="none" stroke="black" points="654,-415 654,-434 802,-434 802,-415 654,-415"/>
<text text-anchor="middle" x="728" y="-422" font-family="Helvetica,sans-Serif" font-size="10.00">Ogre::InstanceBatchHW_VTF</text>
</a>
</g>
</g>
<!-- Node12&#45;&gt;Node13 -->
<g id="edge12" class="edge"><title>Node12&#45;&gt;Node13</title>
<path fill="none" stroke="midnightblue" d="M628.237,-414.19C636.804,-415.084 645.464,-415.988 653.91,-416.87"/>
<polygon fill="midnightblue" stroke="midnightblue" points="628.549,-410.703 618.24,-413.146 627.822,-417.665 628.549,-410.703"/>
</g>
<!-- Node14 -->
<g id="node14" class="node"><title>Node14</title>
<g id="a_node14"><a xlink:href="class_ogre_1_1_instance_batch_v_t_f.html" target="_top" xlink:title="Ogre::InstanceBatchVTF">
<polygon fill="none" stroke="black" points="665.5,-377 665.5,-396 790.5,-396 790.5,-377 665.5,-377"/>
<text text-anchor="middle" x="728" y="-384" font-family="Helvetica,sans-Serif" font-size="10.00">Ogre::InstanceBatchVTF</text>
</a>
</g>
</g>
<!-- Node12&#45;&gt;Node14 -->
<g id="edge13" class="edge"><title>Node12&#45;&gt;Node14</title>
<path fill="none" stroke="midnightblue" d="M628.194,-396.815C640.682,-395.511 653.368,-394.187 665.301,-392.941"/>
<polygon fill="midnightblue" stroke="midnightblue" points="627.822,-393.335 618.24,-397.854 628.549,-400.297 627.822,-393.335"/>
</g>
<!-- Node24 -->
<g id="node24" class="node"><title>Node24</title>
<g id="a_node24"><a xlink:href="class_ogre_1_1_instanced_geometry_1_1_geometry_bucket.html" target="_top" xlink:title="A GeometryBucket is a the lowest level bucket where geometry with the same vertex &amp; index format is s...">
<polygon fill="none" stroke="black" points="479.5,-156.5 479.5,-186.5 608.5,-186.5 608.5,-156.5 479.5,-156.5"/>
<text text-anchor="start" x="487.5" y="-174.5" font-family="Helvetica,sans-Serif" font-size="10.00">Ogre::InstancedGeometry</text>
<text text-anchor="middle" x="544" y="-163.5" font-family="Helvetica,sans-Serif" font-size="10.00">::GeometryBucket</text>
</a>
</g>
</g>
<!-- Node23&#45;&gt;Node24 -->
<g id="edge23" class="edge"><title>Node23&#45;&gt;Node24</title>
<path fill="none" stroke="midnightblue" d="M415.23,-120.952C421.618,-122.937 428.011,-125.128 434,-127.5 450.82,-134.163 453.392,-139.325 470,-146.5 478.117,-150.006 486.9,-153.366 495.467,-156.423"/>
<polygon fill="midnightblue" stroke="midnightblue" points="415.837,-117.481 405.255,-118.004 413.854,-124.194 415.837,-117.481"/>
</g>
<!-- Node25 -->
<g id="node25" class="node"><title>Node25</title>
<g id="a_node25"><a xlink:href="class_ogre_1_1_rectangle2_d.html" target="_top" xlink:title="Allows the rendering of a simple 2D rectangle This class renders a simple 2D rectangle; this rectangl...">
<polygon fill="none" stroke="black" points="493.5,-118 493.5,-137 594.5,-137 594.5,-118 493.5,-118"/>
<text text-anchor="middle" x="544" y="-125" font-family="Helvetica,sans-Serif" font-size="10.00">Ogre::Rectangle2D</text>
</a>
</g>
</g>
<!-- Node23&#45;&gt;Node25 -->
<g id="edge24" class="edge"><title>Node23&#45;&gt;Node25</title>
<path fill="none" stroke="midnightblue" d="M435.732,-116.05C455.05,-118.112 475.567,-120.302 493.429,-122.209"/>
<polygon fill="midnightblue" stroke="midnightblue" points="436.075,-112.567 425.76,-114.986 435.332,-119.527 436.075,-112.567"/>
</g>
<!-- Node26 -->
<g id="node26" class="node"><title>Node26</title>
<g id="a_node26"><a xlink:href="class_ogre_1_1_volume_1_1_chunk.html" target="_top" xlink:title="A single volume chunk mesh. ">
<polygon fill="none" stroke="black" points="488.5,-80 488.5,-99 599.5,-99 599.5,-80 488.5,-80"/>
<text text-anchor="middle" x="544" y="-87" font-family="Helvetica,sans-Serif" font-size="10.00">Ogre::Volume::Chunk</text>
</a>
</g>
</g>
<!-- Node23&#45;&gt;Node26 -->
<g id="edge25" class="edge"><title>Node23&#45;&gt;Node26</title>
<path fill="none" stroke="midnightblue" d="M435.928,-100.929C453.427,-99.0612 471.899,-97.0895 488.481,-95.3194"/>
<polygon fill="midnightblue" stroke="midnightblue" points="435.332,-97.4727 425.76,-102.014 436.075,-104.433 435.332,-97.4727"/>
</g>
<!-- Node27 -->
<g id="node27" class="node"><title>Node27</title>
<g id="a_node27"><a xlink:href="class_ogre_1_1_wire_bounding_box.html" target="_top" xlink:title="Allows the rendering of a wireframe bounding box. ">
<polygon fill="none" stroke="black" points="483,-42 483,-61 605,-61 605,-42 483,-42"/>
<text text-anchor="middle" x="544" y="-49" font-family="Helvetica,sans-Serif" font-size="10.00">Ogre::WireBoundingBox</text>
</a>
</g>
</g>
<!-- Node23&#45;&gt;Node27 -->
<g id="edge26" class="edge"><title>Node23&#45;&gt;Node27</title>
<path fill="none" stroke="midnightblue" d="M412.474,-95.9742C419.757,-93.6988 427.133,-91.1865 434,-88.5 450.659,-81.9831 453.253,-76.7872 470,-70.5 479.563,-66.9099 490.076,-63.7436 500.071,-61.0762"/>
<polygon fill="midnightblue" stroke="midnightblue" points="411.226,-92.6945 402.656,-98.9242 413.24,-99.3984 411.226,-92.6945"/>
</g>
</g>
</svg>
