<?xml version="1.0" encoding="UTF-8" standalone="no"?>
<!DOCTYPE svg PUBLIC "-//W3C//DTD SVG 1.1//EN"
 "http://www.w3.org/Graphics/SVG/1.1/DTD/svg11.dtd">
<!-- Generated by graphviz version 2.38.0 (20140413.2041)
 -->
<!-- Title: Ogre::SceneManager::ShadowCasterSceneQueryListener Pages: 1 -->
<svg width="242pt" height="95pt"
 viewBox="0.00 0.00 241.50 95.00" xmlns="http://www.w3.org/2000/svg" xmlns:xlink="http://www.w3.org/1999/xlink">
<g id="graph0" class="graph" transform="scale(1 1) rotate(0) translate(4 91)">
<title>Ogre::SceneManager::ShadowCasterSceneQueryListener</title>
<!-- Node1 -->
<g id="node1" class="node"><title>Node1</title>
<polygon fill="#bfbfbf" stroke="black" points="41,-0.5 41,-30.5 217,-30.5 217,-0.5 41,-0.5"/>
<text text-anchor="start" x="49" y="-18.5" font-family="Helvetica,sans-Serif" font-size="10.00">Ogre::SceneManager</text>
<text text-anchor="middle" x="129" y="-7.5" font-family="Helvetica,sans-Serif" font-size="10.00">::ShadowCasterSceneQueryListener</text>
</g>
<!-- Node2 -->
<g id="node2" class="node"><title>Node2</title>
<g id="a_node2"><a xlink:href="class_ogre_1_1_scene_query_listener.html" target="_top" xlink:title="This optional class allows you to receive per&#45;result callbacks from SceneQuery executions instead of ...">
<polygon fill="none" stroke="black" points="0,-67.5 0,-86.5 132,-86.5 132,-67.5 0,-67.5"/>
<text text-anchor="middle" x="66" y="-74.5" font-family="Helvetica,sans-Serif" font-size="10.00">Ogre::SceneQueryListener</text>
</a>
</g>
</g>
<!-- Node2&#45;&gt;Node1 -->
<g id="edge1" class="edge"><title>Node2&#45;&gt;Node1</title>
<path fill="none" stroke="midnightblue" d="M82.5505,-60.369C92.3512,-51.1127 104.666,-39.4824 114.152,-30.523"/>
<polygon fill="midnightblue" stroke="midnightblue" points="79.8933,-58.0643 75.0264,-67.4751 84.6997,-63.1534 79.8933,-58.0643"/>
</g>
<!-- Node3 -->
<g id="node3" class="node"><title>Node3</title>
<g id="a_node3"><a xlink:href="class_ogre_1_1_allocated_object.html" target="_top" xlink:title="Superclass for all objects that wish to use custom memory allocators when their new / delete operator...">
<polygon fill="none" stroke="black" points="150.5,-67.5 150.5,-86.5 233.5,-86.5 233.5,-67.5 150.5,-67.5"/>
<text text-anchor="middle" x="192" y="-74.5" font-family="Helvetica,sans-Serif" font-size="10.00">SceneMgtAlloc</text>
</a>
</g>
</g>
<!-- Node3&#45;&gt;Node1 -->
<g id="edge2" class="edge"><title>Node3&#45;&gt;Node1</title>
<path fill="none" stroke="midnightblue" d="M175.45,-60.369C165.649,-51.1127 153.334,-39.4824 143.848,-30.523"/>
<polygon fill="midnightblue" stroke="midnightblue" points="173.3,-63.1534 182.974,-67.4751 178.107,-58.0643 173.3,-63.1534"/>
</g>
</g>
</svg>
