<?xml version="1.0" encoding="UTF-8" standalone="no"?>
<!DOCTYPE svg PUBLIC "-//W3C//DTD SVG 1.1//EN"
 "http://www.w3.org/Graphics/SVG/1.1/DTD/svg11.dtd">
<!-- Generated by graphviz version 2.38.0 (20140413.2041)
 -->
<!-- Title: Ogre::DefaultIntersectionSceneQuery Pages: 1 -->
<svg width="273pt" height="218pt"
 viewBox="0.00 0.00 272.50 218.00" xmlns="http://www.w3.org/2000/svg" xmlns:xlink="http://www.w3.org/1999/xlink">
<g id="graph0" class="graph" transform="scale(1 1) rotate(0) translate(4 214)">
<title>Ogre::DefaultIntersectionSceneQuery</title>
<!-- Node1 -->
<g id="node1" class="node"><title>Node1</title>
<polygon fill="#bfbfbf" stroke="black" points="56,-0.5 56,-30.5 182,-30.5 182,-0.5 56,-0.5"/>
<text text-anchor="start" x="64" y="-18.5" font-family="Helvetica,sans-Serif" font-size="10.00">Ogre::DefaultIntersection</text>
<text text-anchor="middle" x="119" y="-7.5" font-family="Helvetica,sans-Serif" font-size="10.00">SceneQuery</text>
</g>
<!-- Node2 -->
<g id="node2" class="node"><title>Node2</title>
<g id="a_node2"><a xlink:href="class_ogre_1_1_intersection_scene_query.html" target="_top" xlink:title="Separate SceneQuery class to query for pairs of objects which are possibly intersecting one another...">
<polygon fill="none" stroke="black" points="44.5,-67.5 44.5,-86.5 193.5,-86.5 193.5,-67.5 44.5,-67.5"/>
<text text-anchor="middle" x="119" y="-74.5" font-family="Helvetica,sans-Serif" font-size="10.00">Ogre::IntersectionSceneQuery</text>
</a>
</g>
</g>
<!-- Node2&#45;&gt;Node1 -->
<g id="edge1" class="edge"><title>Node2&#45;&gt;Node1</title>
<path fill="none" stroke="midnightblue" d="M119,-57.2349C119,-48.5864 119,-38.4969 119,-30.523"/>
<polygon fill="midnightblue" stroke="midnightblue" points="115.5,-57.4751 119,-67.4751 122.5,-57.4751 115.5,-57.4751"/>
</g>
<!-- Node3 -->
<g id="node3" class="node"><title>Node3</title>
<g id="a_node3"><a xlink:href="class_ogre_1_1_scene_query.html" target="_top" xlink:title="A class for performing queries on a scene. ">
<polygon fill="none" stroke="black" points="0,-129 0,-148 98,-148 98,-129 0,-129"/>
<text text-anchor="middle" x="49" y="-136" font-family="Helvetica,sans-Serif" font-size="10.00">Ogre::SceneQuery</text>
</a>
</g>
</g>
<!-- Node3&#45;&gt;Node2 -->
<g id="edge2" class="edge"><title>Node3&#45;&gt;Node2</title>
<path fill="none" stroke="midnightblue" d="M66.6791,-122.473C80.0676,-111.093 97.9772,-95.8694 108.989,-86.5091"/>
<polygon fill="midnightblue" stroke="midnightblue" points="64.3819,-119.832 59.0293,-128.975 68.9155,-125.165 64.3819,-119.832"/>
</g>
<!-- Node4 -->
<g id="node4" class="node"><title>Node4</title>
<g id="a_node4"><a xlink:href="class_ogre_1_1_allocated_object.html" target="_top" xlink:title="Superclass for all objects that wish to use custom memory allocators when their new / delete operator...">
<polygon fill="none" stroke="black" points="7.5,-190.5 7.5,-209.5 90.5,-209.5 90.5,-190.5 7.5,-190.5"/>
<text text-anchor="middle" x="49" y="-197.5" font-family="Helvetica,sans-Serif" font-size="10.00">SceneMgtAlloc</text>
</a>
</g>
</g>
<!-- Node4&#45;&gt;Node3 -->
<g id="edge3" class="edge"><title>Node4&#45;&gt;Node3</title>
<path fill="none" stroke="midnightblue" d="M49,-180.317C49,-169.496 49,-156.398 49,-148.009"/>
<polygon fill="midnightblue" stroke="midnightblue" points="45.5001,-180.475 49,-190.475 52.5001,-180.475 45.5001,-180.475"/>
</g>
<!-- Node5 -->
<g id="node5" class="node"><title>Node5</title>
<g id="a_node5"><a xlink:href="class_ogre_1_1_intersection_scene_query_listener.html" target="_top" xlink:title="Alternative listener class for dealing with IntersectionSceneQuery. ">
<polygon fill="none" stroke="black" points="115.5,-123.5 115.5,-153.5 264.5,-153.5 264.5,-123.5 115.5,-123.5"/>
<text text-anchor="start" x="123.5" y="-141.5" font-family="Helvetica,sans-Serif" font-size="10.00">Ogre::IntersectionSceneQuery</text>
<text text-anchor="middle" x="190" y="-130.5" font-family="Helvetica,sans-Serif" font-size="10.00">Listener</text>
</a>
</g>
</g>
<!-- Node5&#45;&gt;Node2 -->
<g id="edge4" class="edge"><title>Node5&#45;&gt;Node2</title>
<path fill="none" stroke="midnightblue" d="M165.411,-116.893C153.06,-106.543 138.758,-94.5577 129.331,-86.6578"/>
<polygon fill="midnightblue" stroke="midnightblue" points="163.261,-119.659 173.174,-123.399 167.758,-114.294 163.261,-119.659"/>
</g>
</g>
</svg>
