<?xml version="1.0" encoding="UTF-8" standalone="no"?>
<!DOCTYPE svg PUBLIC "-//W3C//DTD SVG 1.1//EN"
 "http://www.w3.org/Graphics/SVG/1.1/DTD/svg11.dtd">
<!-- Generated by graphviz version 2.38.0 (20140413.2041)
 -->
<!-- Title: Graphical Class Hierarchy Pages: 1 -->
<svg width="517pt" height="83pt"
 viewBox="0.00 0.00 517.00 83.00" xmlns="http://www.w3.org/2000/svg" xmlns:xlink="http://www.w3.org/1999/xlink">
<g id="graph0" class="graph" transform="scale(1 1) rotate(0) translate(4 79)">
<title>Graphical Class Hierarchy</title>
<!-- Node1 -->
<g id="node1" class="node"><title>Node1</title>
<g id="a_node1"><a xlink:href="class_ogre_1_1_any_1_1placeholder.html" target="_top" xlink:title="Ogre::Any::placeholder">
<polygon fill="none" stroke="black" points="0,-28 0,-47 116,-47 116,-28 0,-28"/>
<text text-anchor="middle" x="58" y="-35" font-family="Helvetica,sans-Serif" font-size="10.00">Ogre::Any::placeholder</text>
</a>
</g>
</g>
<!-- Node2 -->
<g id="node2" class="node"><title>Node2</title>
<g id="a_node2"><a xlink:href="class_ogre_1_1_any_1_1holder.html" target="_top" xlink:title="Ogre::Any::holder\&lt;\l ValueType \&gt;">
<polygon fill="none" stroke="black" points="188.5,-44.5 188.5,-74.5 287.5,-74.5 287.5,-44.5 188.5,-44.5"/>
<text text-anchor="start" x="196.5" y="-62.5" font-family="Helvetica,sans-Serif" font-size="10.00">Ogre::Any::holder&lt;</text>
<text text-anchor="middle" x="238" y="-51.5" font-family="Helvetica,sans-Serif" font-size="10.00"> ValueType &gt;</text>
</a>
</g>
</g>
<!-- Node1&#45;&gt;Node2 -->
<g id="edge1" class="edge"><title>Node1&#45;&gt;Node2</title>
<path fill="none" stroke="midnightblue" d="M126.295,-45.8173C146.97,-48.3727 169.309,-51.1337 188.469,-53.5018"/>
<polygon fill="midnightblue" stroke="midnightblue" points="126.654,-42.3352 116.3,-44.582 125.795,-49.2823 126.654,-42.3352"/>
</g>
<!-- Node3 -->
<g id="node3" class="node"><title>Node3</title>
<g id="a_node3"><a xlink:href="class_ogre_1_1_any_numeric_1_1numplaceholder.html" target="_top" xlink:title="Ogre::AnyNumeric::numplaceholder">
<polygon fill="none" stroke="black" points="152,-6 152,-25 324,-25 324,-6 152,-6"/>
<text text-anchor="middle" x="238" y="-13" font-family="Helvetica,sans-Serif" font-size="10.00">Ogre::AnyNumeric::numplaceholder</text>
</a>
</g>
</g>
<!-- Node1&#45;&gt;Node3 -->
<g id="edge2" class="edge"><title>Node1&#45;&gt;Node3</title>
<path fill="none" stroke="midnightblue" d="M126.265,-29.1863C137.284,-27.8245 148.776,-26.4041 160.008,-25.0158"/>
<polygon fill="midnightblue" stroke="midnightblue" points="125.795,-25.7177 116.3,-30.418 126.654,-32.6648 125.795,-25.7177"/>
</g>
<!-- Node4 -->
<g id="node4" class="node"><title>Node4</title>
<g id="a_node4"><a xlink:href="class_ogre_1_1_any_numeric_1_1numholder.html" target="_top" xlink:title="Ogre::AnyNumeric::numholder\l\&lt; ValueType \&gt;">
<polygon fill="none" stroke="black" points="360,-0.5 360,-30.5 509,-30.5 509,-0.5 360,-0.5"/>
<text text-anchor="start" x="368" y="-18.5" font-family="Helvetica,sans-Serif" font-size="10.00">Ogre::AnyNumeric::numholder</text>
<text text-anchor="middle" x="434.5" y="-7.5" font-family="Helvetica,sans-Serif" font-size="10.00">&lt; ValueType &gt;</text>
</a>
</g>
</g>
<!-- Node3&#45;&gt;Node4 -->
<g id="edge3" class="edge"><title>Node3&#45;&gt;Node4</title>
<path fill="none" stroke="midnightblue" d="M334.162,-15.5C342.817,-15.5 351.495,-15.5 359.92,-15.5"/>
<polygon fill="midnightblue" stroke="midnightblue" points="334.028,-12.0001 324.028,-15.5 334.028,-19.0001 334.028,-12.0001"/>
</g>
</g>
</svg>
